<?xml version="1.0" encoding="iso-8859-1"?>
<!-- Generator: Adobe Illustrator 25.0.1, SVG Export Plug-In . SVG Version: 6.00 Build 0)  -->
<svg version="1.1" id="Layer_1" xmlns="http://www.w3.org/2000/svg" xmlns:xlink="http://www.w3.org/1999/xlink" x="0px" y="0px"
	 width="1080px" height="1080px" viewBox="0 0 1080 1080" enable-background="new 0 0 1080 1080" xml:space="preserve">
<image display="none" overflow="visible" width="800" height="1120" xlink:href="../../../Anime/NISE3527.JPG"  transform="matrix(0.8901 0 0 0.8901 183.9732 41.5625)">
</image>
<path fill="#FDE3D7" d="M725.766,351.085l28.213-62.553l-3.957-59.362l-40.34-32.426l-47.489,13.66l-32.17,35.362l-36.511,41.106
	l-3.191,27.574l3.702,4.085c0,0,4.596,10.596,11.745,12c0,0,14.17,4.851,15.702,7.404c0,0,1.66,1.532,5.106,0.638l72.766,18
	l2.553-4.723C701.894,351.851,722.319,352.745,725.766,351.085z"/>
<path fill="#AFACBF" d="M629,354.213c0,0-1.149-6.511,1.915-7.085c3.064-0.574,61.66,6.128,73.915,11.106l-1.723,22.213L629,354.213
	z"/>
<path fill="#2A292E" d="M691.06,369.73l3.671,4.013l6.693,0.193l13.363,32.553c0,0,14.17,4.979,18,8.426
	c0,0,28.532,15.511,42.319,20.872c0,0,23.553,11.681,28.915,16.66c0,0,5.745,2.489,18,2.106c0,0-1.915-20.681-9-23.553
	c0,0-27.957-11.872-45-13.021c0,0,26.808-2.489,48.064,8.043l25.851-1.532c0,0,5.553-0.574-19.723-13.979l-43.66-0.766l3.255-14.936
	l-13.596-7.66h-5.936c0,0,0-6.702-10.34-8.234c0,0-22.213-4.404-36,2.489l-2.782-19.532c0,0-2.197-4.596-8.133-4.021l-2.298,11.681
	L691.06,369.73z"/>
<path fill="#A69CA7" d="M717.558,800.802c0,0,21.58,37.782,36.551,51.861c0,0,36.891,33.505,56.317,101.762
	c0,0-35.644-50.257-76.634-69.861l-4.634-24.059L717.558,800.802z"/>
<path fill="#362C34" d="M721.673,819.855c0,0,20.139,31.739,31.901,38.333l-34.218-2.495L721.673,819.855z"/>
<path fill="#362C34" d="M757.673,864.247c0,0,29.049,31.366,38.139,63.267c0,0-17.584-21.743-64.396-49.545l-2.97-18.178
	L757.673,864.247z"/>
<path fill="#E4E1EE" d="M661.317,861.99c0,0,14.852,48.356,25.307,47.406c0,0,4.515-7.96,5.584-16.277l8.792,4.634l2.733-8.673
	c0,0,13.188,11.049,16.04,9.267c0,0,4.871-3.208,5.347-32.911l-38.376-20.555L661.317,861.99z"/>
<path fill="#E4E1EE" d="M332.921,827.891l-0.832,23.881c0,0,11.525-2.852,14.376-6.178v8.673l8.198-2.97
	c0,0-2.97,13.426-2.376,15.802c0,0-3.564,3.327-2.852,4.515c0,0,14.733,0.713,17.822-2.257l0.594,9.386l7.366-4.277v18.772
	c0,0,15.089-6.653,15.921-8.911c0,0-0.627,18.654,1.409,17.941l6.907-4.871c0,0,0.356,11.525,11.049,0.475
	c0,0,2.139,17.822,5.584,17.347c0,0,11.762-2.97,13.901-8.317c0,0,2.257,7.741,3.683,8.326c0,0,6.875-2.029,8.071-5.118
	c0,0,6.543,20.555,11.889,14.733l-19.96-77.228l-9.386-29.109L332.921,827.891z"/>
<path fill="#FDDCD1" d="M683.178,908.089c0,0,9.98,106.717,6.772,130.348h-66.297l-60.594-95.418l53.465-46.956l36.356-9.361
	l23.168,7.842L683.178,908.089z"/>
<path fill="#FDDCD1" d="M444.366,901.673l10.455-23.644l96.251,44.911l-8.33,106.931c0,0-23.049,1.188-75.564-79.366
	C467.178,950.505,445.317,910.584,444.366,901.673z"/>
<path fill="#DBA99B" d="M418.968,828.842c0,0,20.765,67.842,25.398,72.832c0,0,13.188-19.604,20.673-17.109l57.743,29.941
	c0,0,14.257,105.148,14.257,111.564c0,0-32.436-19.96-69.861-75.564c0,0,41.347,65.727,63.802,87.933h103.366
	c0,0-34.574-41.386-52.04-93.352c0,0,45.624-45.194,64.515-51.966c0,0,30.653,5.703,36.356,14.97l-3.564-56.673
	C679.614,851.416,451.668,799.495,418.968,828.842z"/>
<path fill="none" stroke="#000000" stroke-width="3" stroke-linecap="round" stroke-miterlimit="10" d="M541.741,912.804
	c0,0,41.635,110.2,60.883,125.633"/>
<path fill="#FFFFFF" d="M731.297,865.317l-4.99-30.654l-1.426-8.554l-32.079-83.406l3.921-1.782l2.139-83.762l-227.762-6.059
	L281,857c0,0-18.772,18.653-18.772,25.069l67.058-42.424l0.131-0.348l10.515-8.376c0,0-1.604,15.505,3.03,11.049l10.337-11.941
	l3.386,3.743c0,0,1.782,1.604,3.208-0.891l2.495-4.99l7.129,8.911c0,0,2.673,2.673,4.277-0.535l5.881-12.119l3.743,4.99
	c0,0,1.782,3.386,4.099-0.535l4.277-4.455l7.485,9.313c0,0,2.852,3.788,4.277,0c0,0,6.951-10.026,7.485-10.204
	s4.634,5.347,4.634,5.347s1.069,4.625,8.376-5.351l2.139,18.361c0,0,13.901-0.891,17.287-4.99v10.871l11.584-2.139
	c0,0-1.426,16.04,0,19.247c0,0,12.654-1.96,14.614-4.099v8.733c0,0,6.951,0.713,8.911-1.604c0,0,1.782,13.01,8.911,17.109
	c0,0,8.376-7.307,8.376-16.931c0,0,5.881,1.069,7.842,1.782l0.891-10.337l11.762,1.426c0,0-0.806-11.941-2.898-15.683l4.146,1.96
	l1.782-6.238l4.277,5.168l1.638,0.966c-3.768,9.936,3.959,87.273,3.959,87.273l1.71,16.375l4.83-16.596
	c-0.635-16.477,28.675-63.959,28.675-63.959l4.455-2.139c0,0,3.921,10.158,9.267,14.97c0,0,9.624-9.089,10.693-14.792l3.564,6.059
	l6.238-7.129c0,0,3.743,14.614,5.881,16.931c0,0,10.515-3.03,13.366-6.772l2.673,8.376l4.812-4.455c0,0,8.554,11.406,13.723,10.871
	c0,0,6.594-15.327,7.129-20.495l6.951,2.852l1.248-10.515c0,0,9.98,10.515,17.822,9.446c0,0,5.168-1.069,5.346-18.891
	c0,0,6.594,8.554,8.555,5.703l3.921-7.663c0,0,5.703,15.148,11.406,19.069c0,0,8.911-4.099,11.584-9.446c0,0,1.426,6.772,3.03,8.02
	c0,0,6.238-1.96,6.772-4.277c0,0,5.581,19.826,8.152,21.913l2.719-3.021C733.792,884.564,735.931,870.663,731.297,865.317z"/>
<path fill="#4F444F" d="M657.74,545.963c3.157-1.211,5.218-2.24,5.218-2.24c-12-2.043-12-9.702-12-9.702
	c-1.277-7.66,6.766-6.511,6.766-6.511c11.106,5.362,20.298,3.83,20.298,3.83c16.468,0.766,13.038-12.638,13.038-12.638
	l-2.698-45.957c-0.766-13.404,5.745-20.681,5.745-20.681c21.447-13.404,32.291-28.991,32.291-28.991
	c11.036-7.083-6.434-13.242-6.434-13.242L629,354.213c-36.766-9-52.468,38.489-52.468,38.489
	c-6.511,19.915-24.128,49.787-24.128,49.787c-6.128,4.213-14.92,16.468-14.92,16.468c26.952-8.936,35.601,0.511,35.601,0.511
	c30.638,17.617,40.34,55.66,40.34,55.66c2.326,7.626,4.423,13.299,6.258,17.529l-0.001,0l-19.534,26.897v22.979
	c0,0-4.34,1.277-5.872,14.298l-6.638,7.404c0,0-11.489,6.894-18.128,5.362l-39.83,4.851c0,0-57.957,2.043-90.638,30.638
	c0,0-49.532,41.106-59.489,62.809c0,0-37.787,69.702-53.106,92.936c0,0-23.234,38.553-45.447,56.17l-6.894,10.468
	c0,0,48.511-25.021,51.319-30.894l6.128-4.851c0,0,41.106-33.447,56.426-65.106c0,0,25.532-39.663,54.638-66.555
	c0,0,37.787-34.807,53.617-43.488c0,0,4.596,7.404,10.723,40.851c0,0,11.489,46.213,14.043,52.34c0,0,12,49.532,9.447,96.255
	c0,0-3.83,37.021,3.574,70.979c0,0,2.808-12.766,36.255-66.128c0,0,28.851-35.745,33.702-54.128l21.192-45.957l12.511-17.362
	l55.404-60.766l2.553,66.383c0,0,1.532-17.362,11.489-28.085c0,0-1.787-11.489,6.383-15.575v-20.681
	c0,0,35.745-61.532,39.319-95.489L657.74,545.963z"/>
<path fill="#312C32" d="M274.465,867.099c0,0,4.04-9.98,18.059-20.436c0,0,24.475-26.376,29.703-39.921
	c0,0,35.644-57.505,40.871-69.148c0,0,18.772-45.386,54.178-74.139c0,0,33.743-41.584,98.852-47.525l57.743-6.416
	c0,0,15.683-3.327,19.485-11.406l2.376-9.743l3.564-4.752v-28.99l18.535-19.01c0,0,5.601,16.415,24.713,15.683
	c19.112-0.732,25.426-9.616,25.426-9.616l4.99-8.134l12.222,1.354l36.828,32.262c0,0-37.644,3.856-41.683-4.936l-10.931-8.792
	c0,0-30.178,32.317-43.248,34.931c0,0,26.32-2.072,40.871-13.307c0,0-19.01,14.97-24.713,15.208c0,0,15.921,4.515,18.059,6.416
	c0,0-12.832,6.178-19.01,5.703l20.436,7.129l-21.148-3.089l0.475,4.841l-2.614,2.05c0,0,17.584,0.238,21.386,12.594l-13.069-9.03
	l10.455,11.168c0,0-10.931,1.901-20.198-10.455c0,0-17.983-10.127-39.921-9.267l18.8,9.743c0,0-49.454-8.079-84.385,7.129
	c0,0-38.02,11.644-56.554,33.505c0,0-48.713,48.475-52.04,55.842c0,0-1.188-3.327-40.871,59.881c0,0-29.511,49.659-67.151,68.673
	C314.957,843.099,280.168,866.624,274.465,867.099z"/>
<path fill="#312C32" d="M561.515,707.178c0,0,45.861,17.822,51.564,22.099c0,0,14.928,6.636,35.406-8.079V725
	c0,0-13.069,15.446-14.02,15.921c-0.951,0.475-14.495,20.673-14.495,20.673s-16.634,12.356-21.386,0
	C598.584,761.594,566.98,710.505,561.515,707.178z"/>
<path fill="#312C32" d="M640.168,643.257c0,0,7.842,23.287,8.317,30.416l-2.139-24l-6.178-10.693V643.257z"/>
<path fill="#312C32" d="M624.901,354.01c0,0-27.624,1.248-30.297,27.802l10.871-12.653c0,0-10.515,39.743-20.851,42.059
	c0,0-36.037,54.739-32.97,47.406c0.356-0.852,15.327,3.208,15.327,3.208l-7.842,42.95l-17.465,11.406l-13.723-43.307
	c0,0,9.267-17.109,15.327-21.208c0,0,14.079-13.545,19.604-27.98c0,0,19.96-45.446,22.455-47.941
	C585.337,375.752,597.812,350.446,624.901,354.01z"/>
<path fill="#312C32" d="M627.396,485.535c0,0,21.564-54.436,21.743-64.109v33.168c0,0,3.03-46.762,8.02-52.999
	c0,0-11.726,102.845-4.277,131.953l12.654,8.134l-2.317,4.983c0,0-40.634,20.495-49.188-21.921l24.594-52.04l-6.102,73.604
	l3.25-8.733l5.168-11.941l0.891-21.743l-5.525,25.063l6.059-70.152L627.396,485.535z"/>
<path fill="#312C32" d="M654.663,454.593c0,0,2.02,59.956,18.297,78.954c0,0,27.941,10.8,18.099-37.854l1.029-38.495
	c0,0-20.315,4.277-18.177,11.228l15.854,20.851c0,0,5.531,5.881-8.37,12.119c0,0-5.703,2.852-10.515-8.376
	C670.881,493.02,660.69,484.303,654.663,454.593z"/>
<path fill="#52506E" d="M794.447,330.021c0,0-14.298-32.426-17.362-72.255c0,0,4.836,14.257,6.383,29.362
	c0,0,1.277-20.426-0.511-30.638c0,0,7.149,8.681,7.66,39.575c0,0,17.872-47.489-20.681-105.447c0,0,33.192,25.021,37.277,64.085
	c0,0,6.638-67.149-97.787-117.702c0,0-6.128-4.085-12,4.596c0,0-29.106-18.383-89.617,5.617c0,0-10.468-18.31-17.362-12.347
	c0,0-10.213-37.696-36-56.334L537.34,73.17c0,0-9.702,2.298-30.383,26.298c0,0-26.553-10.468-38.298-11.234
	c0,0-11.745,2.043-13.021,4.085c0,0-73.787,75.574-135.574,200.681c0,0-53.052,100.497-29.65,205.632
	c-0.823-3.923-17.895-90.153,44.458-216.355c0,0,54.638-115.404,129.702-185.362c0,0,26.553,3.574,36.255,8.17
	c0,0-95.489,122.553-92.426,235.915c0,0,3.064,64.851,20.426,89.362c0,0-44.426,109.787-147.064,198.128
	c0,0-58.723,61.277-71.489,110.809c0,0-31.149,105.702-13.787,164.426c0,0,16.34,79.981,124.596,134.714h77.617
	c0,0-78.638-21.863-128.681-110.203c0,0-34.213-52.596-7.149-149.617c0,0,6.128-63.83,60.255-118.468
	c0,0,47.489-56.17,72.511-73.021c0,0,58.723-58.723,69.957-80.17l83.234-149.106c0,0,18.383-40.34,21.447-59.234
	c0,0,27.574,28.085,56.17,41.362c0,0,30.638,40.851,53.617,61.277c0,0,25.158,29.067,33.09,44.411
	c-4.235-9.141-15.893-33.241-24.92-41.858c0,0,40.851,28.085,52.34,76.596c0,0-0.255-60.511-52.34-113.617
	c0,0,20.425,11.234,23.745,12.511c0,0-34.213-21.957-53.362-50.043l10.723,7.915c0,0-24-24.766-25.787-86.043
	c0,0,6.638,31.404,10.979,36.511c0,0-1.532-42.638,2.298-51.83c0,0,3.064,40.596,6.894,48c0,0,6.638-38.553,6.128-48
	c0,0,3.319,16.085,4.085,37.532c0,0,4.596-15.064,4.085-47.745c0,0,7.915,26.298,6.894,51.319c0,0,7.404-6.128,7.149-50.043
	c0,0,6.128,22.723,4.085,55.149c0,0,17.617-24.511,13.277-76.085c0,0,14.298,25.787,4.851,63.064c0,0,7.66-2.298,8.681-47.745
	c0,0,18.638,25.277,13.532,59.489c0,0,7.404-19.915,6.128-37.021c0,0,4.596,3.574,5.617,36.255c0,0,3.064,10.468-1.277,21.702
	c0,0,21.957,23.489,22.979,88.851l5.362,5.617V348.66c0,0,30.638,63.064,23.745,109.532
	C799.043,458.191,823.809,416.064,794.447,330.021z M296.574,974.702l18.383,19.404c0,0-31.149-21.447-42.894-39.319
	c0,0-13.277-25.532-18.894-58.723C253.17,896.064,269.511,946.106,296.574,974.702z M537.085,150.532
	c0,0-28.085,49.532-60.255,152.681c0,0-32.17,102.638-45.957,124.085c0,0-34.213-58.213-6.128-151.149c0,0,17.362-87.319,85.787-168
	c0,0,32.681,13.277,46.468,29.106C557,137.255,543.723,144.915,537.085,150.532z M714.787,449.255c0,0-0.598-1.354-1.633-3.589
	C713.826,446.966,714.389,448.179,714.787,449.255z M290.447,498.787c0,0-0.013-0.063-0.033-0.155
	C290.425,498.684,290.435,498.735,290.447,498.787z"/>
<path fill="#B4ABC0" d="M565.242,464.031l-11.561,37.055c0,0-1.787,7.66-5.872,7.915L545,489.34c0,0,2.809-3.78-6.383-7.38
	c0,0,4.596-3.854-9.447-24.535c0,0-1.532-5.631-1.532-9.964l-11.489-13.27l-3.574,3.83c0,0-10.979,22.723-43.66,24.511
	c0,0-16.34,6.638,0-19.915l4.085-6.894l0.255-4.085c0,0-18.128,29.106-16.596,34.979c0,0-0.255,3.319,9.191,12.766
	c0,0,4.085,6.894,0,25.277c0,0,8.681,5.362,14.553,6.894v16.851c0,0,2.809,5.872,7.404,9.702c0,0,13.277,31.149,18.383,52.596
	c0,0,26.809,33.447,47.745,32.426c0,0,7.915,1.021,22.723-26.553l2.553-1.277l19.915-15.83l1.277-15.574l2.298,0.511
	c0,0,8.643-20.202,13.257-25.292l-21.682-55.9l-21.447-19.149L565.242,464.031z"/>
<path fill="#F7F7FB" d="M493.82,456.396l13.754-7.515c0,0,12.502-7.421,19.01,4.752l-4.753,35.406c0,0,13.307-14.257,13.069-16.634
	c0,0,3.564,2.139,1.663,7.129c0,0-11.406,22.574-19.96,29.228l9.505-5.703c0,0-1.607,32.792-32.289,25.426
	c0,0,13.516,4.99,15.417,6.178c0,0,5.465,1.426,9.743-6.654c0,0,14.495-32.317,23.762-41.584c0,0,2.852-0.713,1.663,11.168
	c0,0-0.238,12.18-7.366,20.347c0,0-12.594,16.465-13.782,22.059c0,0,20.777-15.079,21.438-17.693
	c0.661-2.614,0.661,23.525,4.701,37.545c0,0,3.564,23.049,3.802,32.079c0,0,6.883-45.398-4.04-72.645l-0.238-7.91l8.079,9.98
	c0,0,29.703,1.188,33.743-9.505c0,0,2.852-3.802,6.416,1.663c0,0,9.505,8.317,6.416,9.267c0,0-6.891,15.208-9.98,15.683
	c0,0-13.307,1.168-14.257,1.535c0,0,18.772,10.347,14.495,22.941l-3.564,4.04c0,0-9.743-22.832-14.495-26.98
	c0,0,10.218,34.822-5.941,58.822l-8.099,11.721l-5.939,0.723c0,0-6.873-14.821-12.101-14.583l-22.574-6.891
	c0,0-10.931-28.277-9.743-39.445c0,0-1.663-7.842-6.891-9.267c0,0-19.96-10.218-17.109-17.347c0,0,4.277-9.03,10.931-8.554
	l7.604-2.614c0,0-25.426-2.376-28.99-8.317c0,0,27.802-19.485,28.99-39.921c0,0-11.266,10.429-22.148,10.086l-2.327-8.185
	L493.82,456.396z"/>
<path fill="#B4ABC0" d="M475.468,431.356c0,0-17.021,20.112-15.149,31.175c1.872,11.064,25.018-1.955,25.018-1.955L475.468,431.356z
	"/>
<path fill="#FDE3D7" d="M543.099,374.861l-8.02-4.634c-2.317-2.139-7.129-3.208-7.129-3.208l-9.446-1.247
	c-9.267-0.356-11.941,3.208-11.941,3.208c-7.307,7.842-15.861,10.158-15.861,10.158c-7.485,5.881-7.842,13.188-7.842,13.188
	c-1.247,8.198-6.772,24.416-6.772,24.416c-9.446,21.921,5.663,43.834,5.663,43.834c14.752-2.503,28.469-16.923,28.469-16.923
	c2.41-6.951,6.145-6.772,6.145-6.772c2.317,7.663,12.653,11.049,12.653,11.049c5.347,1.248,0.713-7.129,0.713-7.129
	c-3.386-3.564-3.386-6.951-3.386-6.951c5.346,7.663,5.703-2.213,5.703-2.213c1.782-7.738-1.603-15.787-1.603-15.787l1.781-4.99
	c0.713,0.891,2.852-0.535,2.852-0.535l-1.426-16.574c-0.356-3.386-11.406-15.861-11.406-15.861l-0.356-1.782l6.059,1.069
	c5.525,4.455,17.644,3.208,17.644,3.208C550.941,378.96,543.099,374.861,543.099,374.861z M525.099,395.535
	c0,0,0.713,6.95,1.96,7.663l-2.495,1.604c0,0-11.228-6.238-21.208-8.554c0,0,3.03-4.634,4.455-4.99c0,0,9.089-3.208,10.158-4.99
	C517.97,386.267,521.891,394.644,525.099,395.535z"/>
<path fill="#DBA89E" d="M477.337,450.588c0,0,21.03,21.793,9.802-24.88c0,0,2.852-4.903,13.723-1.998c0,0,14.52,5.993,12.607,12.894
	c0,0-4.765,11.441-8.151,12.349c0,0-16.396,10.896-24.416,11.623L477.337,450.588z"/>
<path fill="#DBA89E" d="M504.782,412.644c0,0-3.208-1.604,0-2.317c0,0,22.099,1.426,19.604,21.03c0,0-4.812-6.084-4.99-8.567
	C519.396,422.79,519.753,420.307,504.782,412.644z"/>
<path fill="#DBA89E" d="M497.832,382.347c0,0,12.653-9.267,17.109-9.267c0,0,6.594,0.713,7.842,3.03c0,0-6.219-2.495-8.813,0.178
	C513.969,376.287,499.792,386.089,497.832,382.347z"/>
<path fill="#C87039" d="M551.928,208.406c0,0-28.851,9.98-33.063,18.535l-22.033,33.505
	C496.832,260.446,545.718,218.03,551.928,208.406z"/>
<path fill="#E4E5E6" d="M719.003,408.063c0,0,26.322,7.49-5.032,28.937l-21.651,17.593c0,0-3.83,5.896-3.83,12.024l2.57,51.324
	c0,0,1.259,8.42-4.868,10.463c0,0-9.957,6.638-21.447,1.532c0,0-9.957-5.841-14.043,1.931c0,0-1.532,9.814,12,12.112
	c0,0-16.596,8.17-30.383,4.085c0,0-5.872,1.021-14.553-20.426c0,0-11.745-39.064-30.638-58.468c0,0-19.66-21.191-50.809-9.957
	l-5.872,12c0,0,7.149-8.936,28.34-9.191c0,0,27.83,4.34,42.383,43.149c0,0,14.043,39.83,24.766,47.234
	c0,0,7.404,10.723,45.192-5.617v-8.426c0,0,25.876,1.787,25.959-15.574l36.156-99.256
	C733.243,423.531,741.09,415.126,719.003,408.063z"/>
<path fill="#F7F7FB" d="M734.721,421.426l21.633,8.17c0,0,12.725,9.191,18.579,12.255c0,0,40.976,26.298,44.539,55.66
	c0,0,5.599,29.617-7.635,44.17l-118.092-50.298c0,0-2.8-34.468,5.345-38.043C699.09,453.34,733.006,426.119,734.721,421.426z"/>
<polygon fill="#322D33" points="810.745,543.182 815.638,560.064 796.489,549.784 "/>
<path fill="#E4E5E6" d="M685.182,536.767c0,0,45.69,35.552,58.456,51.637l-4.34,35.489c0,0,9.192-33.957,7.915-36.511l-1.787-2.809
	c0,0,5.362,0.766,6.894-2.043v3.064c0,0,9.702-0.187,14.553-4.306c0,0,3.575-2.587,14.298-3.353c0,0,28.851,3.064,33.447-5.362
	c0,0,6.638-7.9-2.043-16.716l-14.553-5.497L693.28,533.547L685.182,536.767z"/>
<path fill="#322D33" d="M799.048,554.859c0,0-2.814,4.694,12.505,8.78c0,0,2.298,7.915-8.17,7.404l-27.574,0.024
	c0,0-14.298,5.083-14.809,7.125l-8.426,1.277l-4.34-12.305l22.468-11.305L799.048,554.859z"/>
<path fill="#95919D" d="M697.087,454.593c0,0-5.534,1.556-3.491,32.96l3.491,35.234c0,0,1.36,9.191-7.321,13.021
	c0,0,44.936,34.979,52.596,45.191c0,0,8.17,1.277,10.213-1.532l1.021-4.851c0,0,10.468-6.383,6.128-9.702
	c0,0,44.681,5.106,58.468-36.766c0,0,7.149-18.638-29.872-16.596c0,0,4.34-15.83-2.043-32.426c0,0,0.255,21.957-2.809,28.596
	c0,0-16.851-39.574-73.277-26.043l-11.234-8.936C698.957,472.745,695.727,473.208,697.087,454.593z"/>
<path fill="#FAA654" d="M570.787,298.298v34.277c-16.277-12.255-32.936,0-32.936,0c-2.872-32.745,12.064-84.83,12.064-84.83
	C547.809,263.447,570.787,298.298,570.787,298.298z M557.383,192.021c-40.787,18.957-82.532,67.596-82.532,67.596
	C474.468,279.915,485.766,296,485.766,296c10.723-8.809,64.723-72.766,64.723-72.766
	C549.34,212.894,557.383,192.021,557.383,192.021z"/>
<path fill="#C87039" d="M552.928,256.168c0,0,0.151,10.693,6.923,23.168l-6.923,24.594V256.168z"/>
<path fill="#64203F" d="M347.891,824.089c0,0,41.822-48.238,45.624-56.079c0,0,34.455-49.663,49.426-60.356
	c0,0,39.208-36.356,51.564-42.059c0,0,10.693,32.554,13.307,52.753l9.743,35.881c0,0,9.03,25.901,7.604,76.99l-14.733-6.654
	c0,0-17.822,34.693-20.911,38.02c0,0-13.545-7.842-55.842-45.861C433.673,816.723,397.586,808.228,347.891,824.089z"/>
<path fill="#AD3164" d="M392.548,815.104c0,0,56.333-80.124,59.66-82.025l-8.792,36.832l28.99-58.931l-2.376,22.812l15.921-54.653
	l-6.653,69.386l11.644-29.465c0,0-5.308,113.431-12.04,135.963c0,0-40.712-35.686-50.93-40.676
	C427.97,814.347,396.809,813.961,392.548,815.104z"/>
<path fill="#AD3164" d="M499.97,702.663c0,0,3.089,70.574,10.455,121.663l9.505,4.515c0,0,3.564-49.901-5.228-77.465
	C514.703,751.376,499.495,706.228,499.97,702.663z"/>
<path fill="#AD3164" d="M605.713,855.455l22.812,15.921l28.515-29.703l9.03,3.564c0,0,37.782-16.158,65.346,19.96
	c0,0-5.228-42.059-10.931-54.178c0,0-8.317-32.554-24.713-66.059l-5.941-19.723l-3.564-32.317l-35.168,36.119l-10.693,41.109
	l-7.96-18.059l-29.822,80.554L605.713,855.455z"/>
<path fill="#64203F" d="M630.426,869.951c0,0,7.604-97.426,1.901-112.871c0,0-18.059,82.218-26.614,98.376
	c0,0-14.257,1.426-18.535,3.564c0,0-4.99,2.614-16.396,1.901c0,0,37.069-47.762,41.109-66.059c0,0,15.921-38.733,17.584-41.347
	c0,0,0.713-5.465,10.693-15.683c0,0,48-51.802,49.663-55.129c0,0,0,46.337,4.277,58.218c0,0-9.505-19.01-10.218-41.822
	l-29.941,28.99c0,0-2.852,4.99,12.119,61.545l-19.723-22.574c0,0,19.01,52.04,19.723,78.178
	C666.069,845.238,648.01,854.505,630.426,869.951z"/>
<path fill="#AD9AA8" d="M370.465,799.614c0,0,27.327-6.654,37.069-7.129l4.752-6.178c0,0-34.218,4.515-36.356,5.465
	C375.931,791.772,370.465,797,370.465,799.614z"/>
<path fill="#FFFFFF" d="M407.535,792.485h46.099l30.653,23.762l1.426-7.366l-26.851-21.386c0,0-6.416-1.663-10.693-1.188
	c0,0-24.957-1.477-35.881,0L407.535,792.485z"/>
<path fill="#AD9AA8" d="M485.713,808.881l4.99,4.753c0,0,14.02-23.287,16.158-23.525l1.188,7.842c0,0-15.683,17.347-17.347,25.426
	l-6.416-7.129L485.713,808.881z"/>
<polygon fill="#FFFFFF" points="508.049,797.951 524.208,805.317 524.208,797.951 506.861,790.109 "/>
<polygon fill="#AD9AA8" points="591.218,831.931 615.455,826.941 617.832,819.812 595.495,825.871 "/>
<polygon fill="#FFFFFF" points="615.455,826.941 632.802,842.861 632.802,834.901 617.832,819.812 "/>
<polygon fill="#AD9AA8" points="632.802,834.901 662.03,816.247 664.168,823.376 632.802,842.861 "/>
<path fill="#FFFFFF" d="M664.168,823.376c0,0,13.545-8.554,23.287-7.129c0,0,24.673,6.416,34.554,15.683l-0.605-7.922
	c0,0-23.019-15.603-41.078-15.365l-18.297,7.604L664.168,823.376z"/>
<path fill="#FFFFFF" d="M597.634,590.148c0,0,24.416,7.663,36.535,3.564c0,0,3.03,3.741,6.951,17.553l-14.079,8.823l-5.703-7.307
	l-26.911-7.663l21.533-3.208L597.634,590.148z"/>
<path fill="#312C32" d="M597.812,592.465l24.416,4.634c0,0,9.446,0.535,11.049-0.891l4.812,12.653c0,0-1.96,3.386-10.337,8.733
	l-4.099-6.328l-27.98-7.395L597.812,592.465z"/>
<ellipse transform="matrix(0.1387 -0.9903 0.9903 0.1387 -77.2408 1106.5718)" fill="#FFFFFF" cx="597.568" cy="597.693" rx="3.564" ry="1.158"/>
<ellipse transform="matrix(0.1387 -0.9903 0.9903 0.1387 -59.807 1141.4692)" fill="#FFFFFF" cx="626.348" cy="605.119" rx="4.396" ry="3.653"/>
<path fill="#FFFFFF" d="M711.693,628.168l2.852-2.733c0,0,2.852,24.356-1.426,43.129
	C713.119,668.564,714.782,635.416,711.693,628.168z"/>
<ellipse transform="matrix(0.0876 -0.9962 0.9962 0.0876 84.5352 1277.4613)" fill="#FFFFFF" cx="739.614" cy="592.584" rx="4.455" ry="2.139"/>
<ellipse transform="matrix(0.1478 -0.989 0.989 0.1478 8.7941 1259.7701)" fill="#FFFFFF" cx="735.396" cy="624.782" rx="4.099" ry="2.198"/>
<path fill="#FFFFFF" d="M561.515,386.267c2.376-0.594,0-5.821,0-5.821l-36.932-65.11c-2.477-5.465-7.266-2.376-7.266-2.376
	l-39.98,18.059c0,0-6.594,2.376-1.842,7.366l39.713,71.941L561.515,386.267z"/>
<polygon points="490.465,340.762 488.327,337.911 490.465,335.535 493.317,335.535 494.267,338.149 497.832,339.099 
	497.832,342.426 495.489,343.376 497.832,346.822 495.489,347.093 493.079,343.139 490.941,345.04 488.327,344.327 488.327,341.314 
	"/>
<polygon points="483.481,345.995 482.446,344.614 483.481,343.463 484.863,343.463 485.323,344.729 487.049,345.189 487.049,346.8 
	485.915,347.261 487.049,348.93 485.915,349.061 484.748,347.146 483.712,348.067 482.446,347.721 482.446,346.262 "/>
<polygon points="546.989,379.888 549.012,382.822 546.781,385.111 543.932,384.998 543.086,382.348 539.562,381.257 
	539.694,377.933 542.073,377.076 539.869,373.54 542.22,373.362 544.471,377.409 546.684,375.595 549.267,376.411 549.148,379.422 
	"/>
<polygon points="554.175,374.937 555.155,376.358 554.074,377.467 552.694,377.412 552.285,376.129 550.578,375.6 550.642,373.99 
	551.794,373.575 550.726,371.862 551.865,371.776 552.956,373.736 554.027,372.857 555.279,373.253 555.221,374.711 "/>
<path fill="#C1A146" d="M503.356,344.564l8.495-1.663l4.515-4.04l1.57-1.188l-8.964-10.547l10.246-4.661l5.365,7.842l-5.365,4.752
	l7.842,4.515l-4.277,12.356l5.168-2.376l2.496-1.188l3.979,1.188l2.376,3.524l-4.515,2.892l-1.84,3.564v4.99h-4.576l-3.089-6.891
	v-2.852l-7.574,1.901l-1.238,3.564l1.238,3.522l-1.069,4.082l-5.614,3.327c0,0-5.822-3.802-5.168-4.515
	c0.653-0.713,3.267-4.752,3.267-4.752l2.139-7.129l-0.951-6.653l-4.04-0.204L503.356,344.564z"/>
<polygon fill="#8B3531" points="503.356,349.317 499.733,345.277 499.733,334.584 497.832,330.545 510.222,326.743 519.218,335.059 
	527.059,335.535 530.447,341.238 524.583,347.093 524.583,353.666 519.931,354.782 518.98,347.093 521.119,339.337 515.208,336.248 
	508.287,329.119 500.683,332.921 505.911,340.762 "/>
<path fill="#C1A146" d="M537.115,365.941l-7.915,3.505l-3.507,4.94l-1.267,1.507l11.079,8.298l-8.958,6.816l-6.97-6.457l4.178-5.823
	l-8.647-2.664l1.432-12.997l-4.513,3.463l-2.171,1.712l-4.143-0.277l-3.098-2.909l3.761-3.821l1.004-3.884l-1.106-4.866l4.462-1.014
	l4.54,6.035l0.632,2.781l6.964-3.533l0.417-3.75l-1.988-3.16l0.137-4.217l4.737-4.489c0,0,6.52,2.417,6.041,3.257
	c-0.479,0.84-2.132,5.359-2.132,5.359l-0.505,7.425l2.402,6.277l3.984-0.696L537.115,365.941z"/>
<polygon fill="#8B3531" points="536.062,361.306 540.491,364.442 542.862,374.869 545.611,378.387 534.372,384.841 523.756,378.725 
	516.004,380 511.437,375.19 515.857,368.18 514.4,361.771 518.688,359.651 521.32,366.938 520.954,374.976 527.403,376.678 
	535.731,382.095 542.303,376.702 535.467,370.214 "/>
<g>
</g>
<g>
</g>
<g>
</g>
<g>
</g>
<g>
</g>
<g>
</g>
</svg>
