<?xml version="1.0" encoding="iso-8859-1"?>
<!-- Generator: Adobe Illustrator 25.0.1, SVG Export Plug-In . SVG Version: 6.00 Build 0)  -->
<svg version="1.1" id="Layer_1" xmlns="http://www.w3.org/2000/svg" xmlns:xlink="http://www.w3.org/1999/xlink" x="0px" y="0px"
	 width="1080px" height="1080px" viewBox="0 0 1080 1080" enable-background="new 0 0 1080 1080" xml:space="preserve">
<rect x="0.697" y="0" fill="#231F20" width="1080" height="1080"/>
<g id="Layer_1_1_">
	
		<image display="none" overflow="visible" enable-background="new    " width="999" height="1372" xlink:href="64048C5C.jpg"  transform="matrix(0.7872 0 0 0.7872 144.775 -0.0192)">
	</image>
	<path fill="#621512" enable-background="new    " d="M712.38,435.471l120.365,29.177l137.119,427.076L890,973.099
		c0,0,1.907-36.544-38.015-75.236l-375.051-20.715c0,0-46.317,22.619-51.296,48.278c0,0-14.553,53.234-21.83,62.426
		c0,0-18.766,33.319-60.511,42.894c0,0-66.839,17.278-76.887,23.767l106.688-556.061L712.38,435.471z"/>
	<path fill="#E6B5B1" enable-background="new    " d="M832.745,919.298c0,0-22.979,107.489-32.17,115.66l-256.851-12.255
		c0,0-27.574-75.574-25.532-87.574c2.043-12,46.468-24.255,46.468-24.255s113.362,19.404,169.021-19.149
		C733.681,891.723,818.957,900.149,832.745,919.298z"/>
	<path fill="#413F3D" enable-background="new    " d="M571.012,923.148l8.966,64.32c0,0-25.532,33.702-36.766,33.191
		c0,0,13.787,42.557,22.468,59.321h217.567c0,0,14.263-25.109,17.327-45.023c0,0-4.526,3.574-17.327-7.149
		c0,0-61.822-49.532-66.928-58.213c0,0,11.618-61.41,15.256-65.173l-18.831-3.252c0,0-12.255,60.766-12.255,68.426
		c0,0-38.809,30.638-54.638,33.191l-3.524,4.596c0,0-34.774-14.298-42.944-24l-9.164-58.945l-19.206-5.396V923.148z"/>
	<path fill="#D7CECA" d="M515.287,706.621c0,0-2.43,3.83-2.43,9.19l-1.53,17.36l-11.49,36.77l-13.28,80.94v54.38l5.11,23.23
		l-0.26,23.23l12.26-14.55l2.81-24.77l7.66-107.74l43.4,19.66c0,0,37.53,26.3,39.83,26.81c0,0,25.79-34.21,60.77-4.09
		c0,0,30.38-28.85,34.21-36l61.02-50.3l15.57,30.13l19.91,43.15l15.83,30.38l46.98,11.74l-8.94-28.34c0,0-27.57-54.13-28.09-54.89
		c-0.51-0.77-39.83-41.62-39.83-41.62l-7.91-52.34l-30.38-25.53l-1.02-7.4c0,0-5.62-9.7-6.13-17.11c0,0-11.74-7.66-23.74-4.09
		L515.287,706.621z"/>
	<path fill="#433D3A" d="M433.967,389.001c0,0,60.89-59.74,106.72-31.79l222.77,54.77l-49.79-78.51l-31.02-3.06
		c0,0-18,8.43-37.53-7.28c0,0-10.34-8.81-48.64-14.17l-9.96-5.74c0,0,9.96-8.81,22.98-7.09c0,0,20.68,6.7,23.55,6.51l5.36,0.19
		c0,0,3.26-5.36-6.7-15.7c0,0-21.06-15.51-24.89-15.89l-15.32-11.11c0,0-16.47-13.6-11.49-27c0,0,6.7-0.19,9.77,4.79
		c0,0,38.11,26.62,40.79,27c0,0-36.38-41.94-22.6-58.02c0,0,5.17,1.72,13.02,14.17c0,0,27.38,38.49,30.45,40.21l1.53-9.96
		c0,0,0.96-4.79,9.96-0.96c0,0,11.11,7.28,12.26,8.81h1.15c0,0,21.45,0.96,26.43,10.91l10.34,14.94c0,0,2.11,4.21,4.21,5.17
		l6.51,19.24l45,41.07l48.45,18.57c0,0,31.6,35.62,28.15,45.19l0.26,31.02c0,0-0.65,9.77-15.2,11.68l-12.06,5.36l-14.94,1.15
		l-30.64,7.09c0,0-16.85,9.19-27.77,4.21l-48.26,11.87l-36.77,80.62l5.74,19.53l7.47,5.17c0,0,4.6,2.49,1.72,13.6
		c0,0,5.94,21.64,28.15,39.45c0,0,16.09,9,18.38,16.66v23.17l-97.85,90.77l-45.96-25.09l-22.21-4.21l-31.6-24.89l-9-19.53
		c0,0-32.36-21.26-49.98-24.89l-20.11-29.11v-6.7l-11.87-25.28l1.34-7.47l-10.13-16.46l-2.68-189.38L433.967,389.001z"/>
	<path fill="#261D1B" d="M433.077,570.921c0,0,43.45,82.47,59.11,88.15l23.1,43.59c0,0-20.75-14.02-27.41-17.06l-9.4-3.03
		l-15.27-5.31l-8.22-10.99l-11.75-19.33l0.39-5.69l-10.55-23.12v-10.61l-11.62-14.9
		C421.457,592.621,431.427,573.891,433.077,570.921"/>
	<path fill="#DBCBCD" d="M439.077,414.203l13.02,9.618c0,0-8.43,2.312-13.02,2.312l11.11,16.935h-11.11l-2.68,1.92l5.74,24.634
		l-14.17-7.307v11.166l-7.28-10.392l-76.98-4.231c0,0-4.98-6.543-4.98-9.236c0,0-11.87,18.091-14.17,18.091
		c0,0,1.53-6.674-3.19-12.322c0,0-1.28-10.392-0.64-12.322l-5.36,5.769c0,0-1.15-27.197,0.77-28.744c0,0-9.96,12.834-20.94,16.935
		l-7.02,5.256c0,0,5.04-27.94,4.98-28.101l-12.38,4.895l3.32-6.804c0,0-16.21,8.985-21.32,4.623c0,0,7.66-9.749,7.4-16.292
		l4.85-10.774c0,0-31.91-0.643-32.3-3.588l21.32-11.93c0,0-29.74-10.523-31.53-14.623c0,0,15.32-10.905,16.6-15.779
		c0,0,9.57-10.654,14.04-11.035c0,0-25.28-7.699-28.72-14.372c0,0,17.49-4.744,18.89-6.161c0,0,8.3-5.005,14.55-4.744
		c0,0-16.72-7.95-17.36-9.618l20.81,0.513l18.89-7.437c0,0-16.59-0.191-17.17-2.563c0,0,19.21-2.563,20.62-5.518l7.02-3.849
		l296.68-71.851c0,0,2.17-3.588,18.38-5.9h4.85c0,0-4.6,8.473-6.26,8.985l0.51,1.025c0,0,20.43-1.286,29.87-10.523
		c0,0,2.04,5.9-4.85,15.91c0,0,22.98,7.317,32.17,6.161c0,0-0.64,5.256-11.62,8.081l14.94,7.055l5.74,2.442l14.81,0.131
		c0,0-7.66,8.211-15.32,8.593c0,0,12.13,7.568,13.15,8.985c0,0,7.15,3.849,10.09,2.312l-4.98,4.744l-4.47,75.7
		c0,0-8.04,5.518-19.28,5.518l14.17,8.342c0,0,13.02,2.181,12,4.362c0,0-19.4,9.367-19.4,12.191l-15.19,0.131l16.6,5.136
		c0,0-20.17,7.437-23.49,11.799l8.04,5.518c0,0-9.45,4.875-18.64,3.467l8.43,9.498c0,0-10.72-1.025-17.62-0.513l9.7,15.015
		l-12.51-7.186l9.06,16.804l-11.11-7.95l3.45,5.256c0,0-21.45-4.493-25.66-9.498c0,0,12.77,15.397,16.47,17.96
		c0,0-18.13-4.874-19.91-8.473c0,0,6.13,21.679,4.09,34.644c0,0-13.15-11.417-16.47-11.93c0,0-4.98-5.005-5.62-7.829
		c0,0,1.02,17.317,1.91,19.629c0,0-10.72-17.578-11.11-20.402l-6.38,31.046c0,0-12.64-3.467-16.6-30.021c0,0-5.49,23.86-4.85,26.172
		c0,0-4.21-9.106-4.6-15.91c0,0-10.09,13.98-12.77,14.111c0,0,1.57-11.679,0.85-14.885c0,0-11.57,1.799-12.34,4.875
		c0,0,8.94-10.523,8.94-15.91l6-12.443c0,0-20.81,8.081-24.26,5.648c0,0,12.38-10.523,14.04-18.091c0,0,3.7-8.854,6.51-9.88
		c0,0-18.26,1.156-19.79-1.668l20.04-10.141c0,0-14.68,0.131-16.34,1.538c0,0,9.7-7.568,10.6-9.498l4.85-3.206
		c0,0-14.3,0.513-16.21-1.538c0,0,15.32-7.437,16.21-9.367l4.6-13.468c0,0,2.17-6.161-20.17-8.473l-79.91,53.117L439.077,414.203z"
		/>
	<path fill="#D4D4D1" d="M799.077,464.581l17.87-3.06l28.09-12.77c0,0,80.85,100.09,86.13,118.47v512.76h-147.92
		c0,0,98.04-105.28,101.11-123.66c0,0,36.77-55.66,30.64-114.38c0,0-1.02-46.98-8.17-66.89c0,0-32.17-128.17-40.85-146.55
		c0,0-25.53-81.19-34.21-96c0,0-17.87-37.79-16.85-42.38L799.077,464.581z"/>
	<path fill="#D4D4D1" d="M931.157,567.211c0,0,174.18,384.46,0,512.77V567.211z"/>
	<path fill="#D4D4D1" d="M273.507,392.241c0,0-22.27,5.4-28.22,11.6c0,0,12.06,38.97,33.89,66.36c0,0,23.36,31.21,28.91,34.85
		c0,0,10.34,11.87,2.11,19.91c0,0-8.81,10.91-11.87,10.53c0,0,2.61,24.7-18.99,46.91c0,0-1.11,14.74-8.97,23.55
		c0,0-15.32,10.91-17.62,10.91c0,0-1.91,26.62-21.83,43.85c0,0-27.57,23.17-31.21,34.28c0,0-8.81,20.68-11.49,23.17
		c0,0-12.64,33.57-19.91,35.17l-23.53,23.81v302.84h113.92c0,0,14.55-52.74,24.51-65.19c0,0,43.85-80.04,46.91-93.83
		c0,0,30.45-68.36,34.85-99.57c0,0,4.79-55.72,4.02-72c0,0,12.06-74.3,26.81-103.4c0,0,6.51-16.09,8.23-16.09
		c0,0,33.32-66.26,34.85-67.4c0,0,15.89-37.91,6.51-68.94c0,0-9.82-26.69-12.09-29.82L273.507,392.241z"/>
	<polygon fill="#433D3A" points="502.397,927.34 562.197,916.234 660.787,916.234 753.085,891.723 850.388,910.873 853.889,882.357 
		753.468,744.66 642.327,825.526 	"/>
	<polyline fill="#433D3A" points="523.298,812.064 639.628,827.491 502.397,927.34 515.287,814.362 	"/>
	<path fill="#D4D4D1" d="M743.417,385.383l-3.32-1.045l-20.94,10.985c0,0-4.09,5.759-18.89,0c0,0,13.28-31.398,12.77-43.428
		l-12.77-16.488h-5.11l-1.53-1.045l-27.83,2.357l-122.3,104.655l-2.81,20.146c0,0,2.81,42.127,10.98,44.217
		c0,0,21.96,29.307,83.49,54.946c0,0,9.45,6.282,30.38,6.538c0,0,13.79-1.312,34.72-25.905c0,0,29.62-29.072,43.15-68.565
		c0,0,26.04-46.553,20.43-64.086l-7.4-1.834l-3.83-13.342l-3.83-1.045L743.417,385.383z"/>
	<path fill="#DBCBCD" d="M437.157,399.211c0,0,9.96,8.43,9.83,21.57l-13.02-2.93L437.157,399.211z"/>
	<path fill="#433D3A" d="M448.357,424.751c0,0-7.46-29.26-13.48-32.5c0,0-1.23-6.17,8.38-11.09c0,0,50.97-49.34,97.44-24.83
		l-2.73,49.01l-38.77,30.13l-47.36-2.55L448.357,424.751z"/>
	<path fill="#FEEDE5" d="M381.777,342.281c0,0,4.61,17.62,48.44,34.85l32.29,9.96c0,0,10.38,5.36,21.14-4.6
		c0,0,44.21-37.15,47.67-50.94c0,0,9.61-6.51,5.38-32.55l11.53-73.53l-63.04-42.89c0,0-121.09,14.55-123.01,14.55
		s-19.6,83.49-19.6,83.49l18.45,60.51L381.777,342.281z"/>
	<path fill="#F6A5B4" d="M310.907,176.071c0,0,14.3-56.68,64.85-81.19c0,0,18.89-8.68,29.62-8.68c0,0,51.06-18.89,92.43,2.55
		c0,0,30.13,12.26,37.79,24l28.09,24c0,0,33.19,29.62,60.77,36.77c0,0-36.26-5.11-42.89-10.72c0,0,21.45,31.15,50.04,38.81
		c0,0-15.83-1.02-28.09-4.6l-9.7,7.15l48.51,55.66l-10.21,4.6l-13.79-6.64l6.64,24.51l12.26,15.32l-18.89-12.26
		c0,0,2.55,65.87,4.6,70.47l-9.7-16.34l-0.51,26.04c0,0-9.7-21.96-9.7-30.13c0,0-5.11,32.17-3.06,44.43c0,0-15.32-19.91-20.94-50.55
		c0,0-2.55,48,0.51,55.15c0,0-9.7-3.06-16.34-60.77c0,0-16.34,45.96-11.74,60.77c0,0-10.72-3.06-4.6-53.62
		c0,0-16.34,26.04-21.96,26.55c0,0,15.49-39.32,13.11-44.94c0,0-11.57,10.21-15.15,9.7c0,0,19.4-17.87,5.62-66.89
		c0,0-65.87-51.57-73.02-65.36c0,0,21.96,44.43,24,68.94l-31.66-50.55l6.64,55.15l9.19,32.17c0,0-36.26-28.09-43.4-43.4l16.85,32.17
		c0,0-42.89-58.72-48.51-75.06c0,0-4.6,22.98,13.28,72.51c0,0-19.4-11.74-34.72-66.89c0,0-33.19,115.91,39.32,126.64
		c0,0-9.7,6.64-22.98,0l55.66,37.79l0.51,22.47c0,0-2.55,43.91-18.89,52.6c0,0,1.02,44.94-17.36,59.74c0,0,0.51,28.6-3.57,32.17
		l-10.21,11.23l1.02,32.17c0,0-9.19,24-16.85,27.57c0,0,8.68,38.81-4.09,43.91l-12.77,14.3c0,0,3.57,37.28-6.13,36.77l-25.53,30.64
		l2.55,52.6c0,0,1.53,24.51-2.55,31.66c0,0-0.51,18.38,5.11,25.02c0,0-9.19-3.57-13.79-26.55c0,0-5.11,7.15-5.62,31.15
		c0,0-2.55,12.26-6.13,14.81c0,0-1.02-13.79-24.51-34.72c0,0-10.21-6.64-12.77-13.28c0,0,5.02,21.85,17.87,27.57
		c0,0-54.64-26.55-17.87-74.55l32.68-47.49c0,0-12.77-56.17,1.53-60.26l8.68-5.62c0,0-4.6-42.89,4.6-43.4l9.7-10.21l-2.55-26.04
		c0,0-4.09-9.19,17.36-30.13l-5.67-21.48c0,0-2.55-16.85,9.19-36.77l-1.02-16.85c0,0-3.57-7.15,9.19-43.4
		c0,0-10.72-35.74-11.23-53.11l-15.32-34.21c0,0-7.15,44.43-12.77,48c0,0,1.53-74.55-2.55-85.79c0,0-13.28,27.06-17.87,29.62
		c0,0,14.3-55.66,9.19-67.4l-13.79,11.74l10.72-20.94C297.627,262.871,302.227,186.281,310.907,176.071z"/>
	<path fill="#FCF2E8" d="M406.517,128.581l14.94-22.98c0,0,4.6-16.09,33.7,0s60.13,39.45,60.13,39.45s29.87,14.55,51.7,16.09
		c0,0-18,1.53-41.36-4.98c0,0,28.34,29.49,29.87,35.62c0,0,28.34,30.64,36.38,32.55c0,0-34.09-14.55-42.13-21.45
		c0,0,28.72,45.96,26.04,60.89c0,0-58.21-96.51-84.64-117.96c0,0-41.26-37.02-50.55-42.13
		C440.607,103.681,430.647,98.321,406.517,128.581z"/>
	<path fill="#472F32" d="M496.517,129.721c0,0,19.53-9.57,36,0c0,0-0.21-6.98,5.45-4.26c0,0-6.6-9.15,7.57-27.15
		c0,0,3.45-7.66,11.11,9.57l4.6,8.81c0,0,12.64,4.6,14.55,7.28l2.68,3.06l-8.81,8.43c0,0-16.85,3.83-19.91,2.3
		c0,0,27.96,5.7,28.72,0.36c0,0,13.41-8.7,26.12-6.68c0.87,0.14,1.74,0.33,2.6,0.57c13.4,3.83,17.62,5.74,17.62,5.74
		s14.94,14.55,0,31.02c0,0-8.43-26.04-31.4-24.89l-25.66,10.72c0,0-9.19,0.38-24.51-14.94c0,0,0.89,13.02,20.74,25.28l23.68,13.4
		c0,0,16.47-9.19,24.51-8.04c0,0-6.89,8.43-1.91,19.53l-9.96,13.02l-22.98,2.3c0,0-39.28-44.21-39.36-54.27c0,0-2,11.38-4.3,12.53
		l-13.79,3.06L496.517,129.721z"/>
	<path fill="#472F32" d="M317.667,210.921c0,0-36.38,31.98-45.96,32.17c0,0-8.04-0.38-11.3-4.98l-18.19-12.45
		c0,0-13.4,0.38-13.79,4.4c0,0,10.34,1.72,18,18.38c0,0,0.96,2.87,6.7,1.34l10.15-0.38c0,0,4.21,4.98,5.17,4.98
		c0.96,0,10.72,3.45,19.53-3.06c0,0-4.79,8.81-17.62,6.7c0,0-22.21-7.09-29.3-5.94l10.91,14.17l1.15,20.87l20.68-1.58
		c0,0,16.85-17.38,22.4-17.76l2.11-4.6l1.72-35.81c0,0,9,3.45,11.87,1.72L317.667,210.921z"/>
	<path fill="#472F32" d="M318.817,195.411c0,0,9.77-19.53-6.51-19.53c0,0-25.66,2.68-18.19,15.32c0,0-19.72-2.68-25.66,3.06
		c0,0,6.7,13.4,12.64,16.28c0,0,2.11,5.17-0.96,9.19c0,0-4.4,15.13,8.62,10.34C288.757,230.071,313.647,214.361,318.817,195.411z"/>
	<path fill="#472F32" d="M250.137,782.191c0,0,49.53-20.17,52.09-28.34c0,0,5.11,4.34,7.15,2.04l3.06,5.62
		c0,0,6.89,26.55,13.53,30.89c0,0,8.94,12.51,9.7,15.57c0,0,11.23-19.4,13.79-18.38l11.49-23.74l-11.74-3.83
		c0,0,2.55-13.02,5.87-14.55l5.87-17.11c0,0-30.38-8.17-44.94,5.11c0,0-5.11-4.6-12.51-3.06c0,0-6.13-5.87-7.4-17.87
		c0,0-2.55-10.47-21.96-15.83c0,0-7.91,14.81-6.13,32.68l-5.62,8.68l-18.13-1.02c0,0,6.38,18.64,0,21.7c0,0-4.34,9.96,2.3,14.04
		C246.567,774.791,250.647,778.111,250.137,782.191z"/>
	<path fill="#F6A5B4" d="M303.257,218.531l-26.18,17.47c0,0,14.59-3.61,23.76-11.08
		C309.997,217.451,303.257,218.531,303.257,218.531z"/>
	<path fill="#D4D4D1" d="M144.777,777.151c0,0-148.83,198.46,0,302.83"/>
	<path fill="#433D3A" d="M763.457,411.981l-49.79-78.51l-31.02-3.06c0,0-18,8.43-37.53-7.28c0,0-10.34-8.81-48.64-14.17l-9.96-5.74
		c0,0,9.96-8.81,22.98-7.09c0,0,20.68,6.7,23.55,6.51l5.36,0.19c0,0,3.26-5.36-6.7-15.7c0,0-21.06-15.51-24.89-15.89l-15.32-11.11
		c0,0-16.47-13.6-11.49-27c0,0,6.7-0.19,9.77,4.79c0,0,38.11,26.62,40.79,27c0,0-36.38-41.94-22.6-58.02c0,0,5.17,1.72,13.02,14.17
		c0,0,27.38,38.49,30.45,40.21l1.53-9.96c0,0,0.96-4.79,9.96-0.96c0,0,11.11,7.28,12.26,8.81h1.15c0,0,21.45,0.96,26.43,10.91
		l10.34,14.94c0,0,2.11,4.21,4.21,5.17l6.51,19.24l45,41.07l48.45,18.57c0,0,31.6,35.62,28.15,45.19l0.26,31.02
		c0,0-0.65,9.77-15.2,11.68l-12.06,5.36l-14.94,1.15l-30.64,7.09c0,0-16.85,9.19-27.77,4.21L763.457,411.981z"/>
	<path fill="#B61E20" enable-background="new    " d="M736.234,662.191c0,0-18.766,26.154-23.362,28.514
		c0,0-7.085,3.146-8.425,7.866c0,0-47.982,42.457-52.906,42.664l-29.818,19.478c0,0-55.34-12.979-57.83-13.766
		c0,0-45.383-9.636-50.553-16.125c0,0-2.681-3.736-4.787,11.012l-2.106,13.765l6.319,8.259l13.213,4.72
		c0,0,16.851,11.209,41.936,14.159l-20.681,11.012l1.532,20.255l8.809,5.506l8.043,0.787l8.234-1.77l42.626-22.969l6.468-1.463
		c0,0,15.63,3.39,37.842,0.637c0,0,24.319,4.916,30.255,4.523l9.766-4.326l4.404-9.832l-2.489-10.619l-8.043-5.113l-13.979-3.54
		l-7.468-2.556c0,0,33.319-25.368,37.723-30.874l12.255-11.406l6.511,8.259h13.404v-3.343c0,0-9.575-8.653-11.298-11.602
		l8.617-9.832l8.617-27.924L736.234,662.191z"/>
	<path fill="#E9C05D" enable-background="new    " d="M520.234,946.617l-13.787-2.553l3.879-24.003c0,0,18.789-20.089,55.965-17.447
		c37.177,2.642,35.827,3.695,35.827,3.695s31.45,11.713,75.506-7.947l23.868-8.035c0,0,81.976-28.221,148.87,14.928
		c0,0,2.553,32.936-19.915,29.362l2.298-15.319c0,0-55.149-36.758-132.511-5.358c0,0-59.234,23.486-84.255,15.315
		c0,0-60.255-17.106-97.787,5.872L520.234,946.617z"/>
	<path fill="#FCEEF0" enable-background="new    " d="M576.723,755l23.553,1.149c0,0,1.723,9.574,7.468,10.532l2.106-0.766
		l-0.957-3.447h-4.404l2.298-4.787l-3.638-0.383c0,0-0.191-6.511,4.596-7.468l-1.149-4.404c0,0-8.617,0.766-9.383-3.447h6.894
		c0,0-1.149-9.766,2.489-10.34c0,0,4.213,1.723,4.021,7.851l7.66,0.191c0,0,2.13,4.19-6.128,4.979l-0.383,3.064
		c0,0,6.812,0,6.757,5.745l0,2.681l1.668,1.149l-1.532,3.255c0,0,5.362,0.957,5.17-4.596l3.638-1.915v-4.883l23.362-13.691
		c0,0,1.149,4.404-2.298,6.702c0,0,4.021,2.298,12.255,2.298c0,0-3.447,6.511-10.34,6.702l4.213,0.766c0,0-4.787,5.17-6.894,5.17
		l1.532,1.532c0,0-2.452,4.213-6.971,4.596l3.715,1.723l-2.681,3.255h-3.255l-6.894,2.681c0,0,7.085,17.426-10.149,14.553
		l2.872,6.511l-2.489,1.532l-3.638,9.383l-4.596-9.191l-3.255-0.957l1.723-5.936c0,0-9.574,5.362-13.787-8.809l-4.787,0.192
		l2.298-3.255l-11.298,0.383l4.787-3.83c0,0-7.66,2.872-9.957-1.915l3.255-2.298c0,0-9.766,0.766-9.383-3.83l8.617-3.064
		C583.426,760.362,579.213,759.213,576.723,755z"/>
	<path fill="#E7C283" enable-background="new    " d="M508.553,741.953c0,0-2.298-3.283-5.745,10.042c0,0,2.489,7.724,2.872,14.87
		c0,0,1.34,10.235-18.957,8.304c0,0-3.638,5.793-4.596,19.504l3.255,5.6c0,0,23.745,6.952,34.66,33.988
		c0,0,15.319,20.47,23.936,40.94c0,0,21.447,31.091,35.426,37.85c0,0,26.809,12.938,34.085,14.29v-3.476
		c0,0-4.787,0.386-15.128-26.843l-41.745-75.12c0,0,7.851,2.51,17.043-4.055l-2.872-5.793l-1.532,0.772l0.957,1.738l-7.277,3.476
		l-1.915-3.862l-3.83,1.738l-9.383-16.801l5.362,0.193l0.191-4.635c0,0,5.745-2.317,6.319-2.317s1.723,1.159,1.723,1.159l-2.106-5.6
		l-11.489,5.986l-2.872,5.986l-27.191-44.223c0,0-2.298-4.248-6.128,4.055C511.617,759.72,505.681,748.519,508.553,741.953z"/>
	<path fill="#E7C283" enable-background="new    " d="M715.553,719.894c0,0-15.83,45.957-15.319,49.532h-11.489v3.83h2.043v-1.277
		l5.872,1.277l-0.255,3.574h5.745v13.787h-4.723l-2.043,5.106h-5.362l-1.277-2.043v5.872l6.128,1.532
		c0,0-21.191,99.319-16.596,115.149c0,0,45.191-44.426,48.766-72.255c0,0,6.638-77.872,39.064-87.83l-5.617-7.66l-8.936-30.638
		l2.043-35.745l16.596,12.511v10.723c0,0,3.83,0,3.83-1.532s0-10.723,0-10.723s-16.085-19.149-25.532-21.957
		c0,0-9.702,43.66-8.17,53.362l4.085,5.106C744.404,729.596,728.574,732.149,715.553,719.894z"/>
	<path fill="#B61E20" enable-background="new    " d="M490.745,803.255c0,0-13.991,46.815-14.081,82.45l7.909,5.103l-4.424,32.064
		l8.025,4.072c0,0-2.078,21.588-2.025,31.8c0.053,10.212,6.802-11.676,6.802-11.676l1.652-28.341l-7.12-6.382
		c0,0,2.719-24.536,1.778-27.813l-1.44-12.324c0,0,4.767-65.351,6.782-67.663"/>
	<path fill="#E7C283" enable-background="new    " d="M508.57,815.889c0,0-4.421,41.367-4.165,42.133
		c0,0-27.319,20.681-28.851,30.894v16.851c0,0,14.809-28.851,26.553-31.404l-1.532,23.362c0,0-19.277,20.298-20.426,25.149
		l-1.66,17.489c0,0,19.66-28.468,24-29.234l-0.128,22.468c0,0-16.34,22.596-16.213,25.149l0.128,24.638
		c0,0,8.17-30.766,23.745-44.17l1.149-72.255l2.426-2.553l2.272-38.613C515.868,825.791,514.14,816.65,508.57,815.889z"/>
	<polygon fill="#B61E20" enable-background="new    " points="773.191,735.66 803.83,768.021 828.34,813.404 840.964,832.695 
		863.957,875.255 846.635,870.408 832.885,843.166 811.657,803.945 801.868,790.99 800.574,786.596 757.872,746.957 	"/>
	<path fill="#E7C283" enable-background="new    " d="M750.814,767.507l12.037,30.578h4.404c0,0,9.766,31.979,11.681,34.851
		l4.311,0.766l16.37,34.66c0,0,65.681,16.085,70.277,19.149l-5.936-12.255c0,0-46.34-13.404-56.106-13.787l-11.872-25.085
		c0,0,33.702,8.426,52.085,7.468s1.149-0.192,1.149-0.192l-5.936-10.723c0,0-43.003-4.239-56.681-10.532l-8.617-22.213
		c0,0,20.489,2.106,23.553,1.723c0,0,19.34,3.83,21.255,4.404c0,0-3.064-11.872-16.085-14.745c0,0-33.319-3.83-36.383-6.319
		c0,0-9.08-16.858-10.668-26.046C758.064,750.021,750.814,767.507,750.814,767.507z"/>
	<polygon fill="#EAD6CF" enable-background="new    " points="874.211,795.082 914.312,875.296 902.191,941.255 896.759,933.289 
		836.064,825.596 846.433,784.143 	"/>
	<polygon fill="#B61E20" enable-background="new    " points="789.085,751.809 807.723,773.511 829.17,814.362 844.234,784.489 
		869.894,787.043 845.691,738.532 838.872,721.681 824.064,713 792.66,726.277 	"/>
	<path fill="#F8F4AE" enable-background="new    " d="M787.809,750.532c0,0,9.702,4.596,6.383-21.702l30.383,17.617
		c0,0,3.064-21.702,2.043-26.809c-1.021-5.106,5.106,5.106,13.277,6.383l-3.574-25.532l41.362-27.574l-44.936-4.851l-83.681,51.319
		c0,0-23.553,44.936-25.596,54.894c0,0,40.596-30.064,48-33.032c0,0,9.516,8.521,11.779,5.202L787.809,750.532z"/>
	<path fill="#F8F4AE" enable-background="new    " d="M827.128,813.34c0,0,0,9.319,3.064,6.957c0,0,0.511,5.553,5.872,5.298
		l11.234-37.787l28.34,7.66c0,0,3.574-1.532,0-4.851c0,0,0.766-4.596-5.745-5.617l-20.553-5.362c0,0,0.567-9.447,2.837-10.213
		c0,0,0.482-5.362-2.326-7.149l-4.16,2.089l-8.606-16.387c0,0-0.511-4.596,1.021-4.596c0,0-15.319-4.851-22.468,10.979
		c0,0,7.915-0.766,13.787,17.106L823.043,773l2.553,4.596l10.468,4.596c0,0,6.128,2.043,2.298,6.638l-6.894,25.021
		C831.468,813.851,830.702,817.681,827.128,813.34z"/>
	<path fill="#D28F60" enable-background="new    " d="M562.197,831.943c0,0,58.378,47.559,69.484,50.415l56.516-47.889
		l-2.339,12.618l-52.284,44.638c0,0-59.38-38.191-63.517-45.637L562.197,831.943z"/>
	<polygon fill="#1A1010" enable-background="new    " points="784.138,697.873 738.532,614.702 755.128,607.043 800.574,687.793 	
		"/>
	<path fill="#FFF2AE" enable-background="new    " d="M738.532,614.447c0,0,11.489-0.511,17.617-6.383c0,0-4.596-12-2.808-21.192
		c0,0-18.78-9.447-27.518,9.447v4.34C725.823,600.66,737.255,610.362,738.532,614.447z"/>
	<path fill="#252322" d="M450.602,559.681l9.887,5.362c0,0,9.957,15.702,9.957,16.851s13.787,25.149,13.787,25.149l8.936,20.043
		l10.979,25.373l11.138,22.117l11.33,21.447l11.364,29.489l-15.577-9.191l2.106,6.511c0,0,12.957,6.128,32.489,8.809l26.809,4.473
		l-33.319-7.536l-21.744-48.638l-16.937-27.478l-15.319-30.734l-9.574-22.245l-11.489-25.245l-4.596-11.106L462.404,557
		l-11.802-4.843l-2.252,6.777L450.602,559.681z"/>
	<path fill="#252322" d="M523.298,568.301l7.277-2.11l7.407,21.83l5.231,11.457l13.404,14.968L568.489,647l6.308,21.064
		l7.096,24.894l9.574,14.936l4.213,17.234l6.511,8.425l1.746,4.977l0.169,3.448h-6.894c0,0-1.532-4.34-2.043-4.979
		c-0.511-0.638-6.766-7.277-6.766-7.277l-3.83-16.468l-7.149-10.34l-9.574-36l-14.809-38.426L551,621.34l-18.511-25.404
		L523.298,568.301z"/>
	<path fill="#252322" d="M585.973,534.915l-2.165,9.191l26.298,58.851l3.383,16.34l11.707,13.277l23.207,38.553l8.681,23.745
		l7.149,14.809l-29.617,17.872c0,0,11.745,3.064,40.34-18.894l-17.362-32.681l-4.938-16.851l-20.594-31.149l-14.271-20.936
		l-21.473-62.936l0.891-2.205L585.973,534.915z"/>
	<path fill="#D7CECA" d="M516.079,706.362c0,0-4.654,10.623-2.739,24.461c0,0,9.574,9.242,86.936,25.327l-14.553-20.038
		c0,0-54.638-5.239-61.213-13.281l-2.106-6.511L516.079,706.362z"/>
	<path fill="#D7CECA" d="M623.83,755.957l5.553-24.319c0,0,65.872-18.255,91.149-69.447c0,0-3.83-11.745-13.404-14.043l-0.766-4.015
		c0,0,19.532-0.198,21.064,4.781c0,0,5.28,13.418,7.044,15.709c0,0-44.193,62.036-85.938,77.546c0,0,3.447-2.489,2.298-6.702
		l-23.362,13.691v4.883L623.83,755.957z"/>
	<path fill="#AD1015" enable-background="new    " d="M439.809,561.913l7.149,2.188l10.979-41.452l40.34,8.754l8.17,20.082
		c0,0,3.319,1.03,3.319,1.545c0,0.515,2.809,11.843,6.638,16.735c0,0,11.489-1.802,15.83-5.149c0,0,1.787-5.535-3.575-16.091
		c0,0,0.766-13.517-3.957-21.627l27.702-18.151c0,0-7.66-5.407-10.085-22.142l-1.622-24.073l-4.506,5.793l0.128-4.892
		c0,0-30.511,18.28-36.638,18.795c0,0-59.234-0.257-65.745-17.894l9.319,21.37c0,0,5.872,19.052,5.872,25.618
		c0,0,0,14.289-2.553,22.528L439.809,561.913z"/>
	<path fill="#F8CA8A" enable-background="new    " d="M447.213,533.638l7.071,1.277l6.205-12.128l-11.734-4.34
		C448.755,518.447,447.213,532.617,447.213,533.638z"/>
	<polygon fill="#AD1015" enable-background="new    " points="448.577,523.17 453.596,524.191 452.064,529.553 447.609,528.777 	"/>
	<path fill="#F8CA8A" d="M443.128,549.723c0,0,2.936,0,2.17,2.426s-1.66,2.681-3.447,2.298"/>
	<path fill="#F8CA8A" enable-background="new    " d="M498.66,533.128l25.404-6.447l4.468,12.574c0,0,1.021,3.192-1.404,4.213
		l-17.489,4.596c0,0-5.489,0.638-5.872-3.957L498.66,533.128z"/>
	<path fill="#AD1015" enable-background="new    " d="M504.149,535.936c0,0,6-2.426,6.255-1.787c0.255,0.638,2.426,4.34,2.426,4.34
		l1.404-1.149v-4.596l7.149-2.17l1.915,9.426l-15.702,4.106L504.149,535.936z"/>
	<ellipse fill="#F8CA8A" enable-background="new    " cx="524.511" cy="561.404" rx="2.106" ry="1.723"/>
	<path fill="#F8CA8A" enable-background="new    " d="M415.043,497.766c0,0,3.319,2.681,0,8.553l7.404,7.277l6-6.766l-3.064-4.851
		c0,0,0.638-6.255,4.468-6.511l7.404,2.17l3.191-4.851c0,0,3.702,1.532,5.362,0c0,0,20.17,18.638,49.021,15.83l6.128-0.383v2.298
		l-2.298,0.766l0.894,4.34h-3.447c0,0-0.894,3.191,2.553,2.809l5.489,0.032V515c0,0,2.553-0.255,6.128-1.66l2.298,0.255v2.298
		l-2.426,0.383l-0.766,3.574l3.191-1.404l3.702-1.149v-6.128l-2.574-0.128l0.021-3.83c0,0,3.574-3.191,4.213-4.851
		c0,0,21.192-11.872,24.638-15.957c0,0,5.234-0.255,6-4.085l7.66,3.191c0,0,12.383-9.447,8.681,4.723l8.426,5.362l4.851-7.404
		c0,0-10.723-12.383,7.404-9.702l4.085-7.149l-7.149-5.745l-6.255,5.106l-1.149,3.702l-13.532-18l-1.532,6.894
		c0,0,10.085,12.128-7.021,9.83l-5.489,6.255c0,0-6.609-2.556-6.856,3.191c0,0-17.144,12.766-21.995,13.532c0,0-2.553-5.489-4.085-6
		c0,0-0.128-7.532-2.043-8.426c0,0-1.915,7.021-2.809,7.021c0,0-1.024,5.53,3.319,5.234c0,0,1.404,2.17,1.532,3.191l-6,1.787v-3.702
		l-4.468-4.468l-2.681-5.872l-2.809-0.255l-7.021,5.489l0.383,2.809c0,0,7.404,0.128,4.085,3.447l-1.021,2.426l-9.191-4.596
		c0,0-1.149,2.043,1.532,3.064c0,0-0.894,1.66,2.298,1.66l4.34,1.915l0.128,1.404c0,0-19.66,1.021-25.149-1.787
		c0,0-19.787-6.638-21.83-10.468c0,0-2.936-6.894-7.532-1.851l-4.34-4.149c0,0-14.298,10.979-9.957-6.638l-4.213-4.979
		C421.17,472.362,416.957,496.745,415.043,497.766z"/>
	<path fill="#433D3A" d="M763.074,411.789l-49.79-78.51l-31.02-3.06c0,0-18,8.43-37.53-7.28c0,0-10.34-8.81-48.64-14.17l-9.96-5.74
		c0,0,9.96-8.81,22.98-7.09c0,0,20.68,6.7,23.55,6.51l5.36,0.19c0,0,3.26-5.36-6.7-15.7c0,0-21.06-15.51-24.89-15.89l-15.32-11.11
		c0,0-16.47-13.6-11.49-27c0,0,6.7-0.19,9.77,4.79c0,0,38.11,26.62,40.79,27c0,0-36.38-41.94-22.6-58.02c0,0,5.17,1.72,13.02,14.17
		c0,0,27.38,38.49,30.45,40.21l1.53-9.96c0,0,0.96-4.79,9.96-0.96c0,0,11.11,7.28,12.26,8.81h1.15c0,0,21.45,0.96,26.43,10.91
		l10.34,14.94c0,0,2.11,4.21,4.21,5.17l6.51,19.24l45,41.07l48.45,18.57L763.074,411.789z"/>
	<path fill="#CEBAC0" enable-background="new    " d="M585.851,235.298c0,0,35.553,27.074,45.606,28.473l3.926,5.229
		C635.383,269,593.255,249.851,585.851,235.298z"/>
	<path fill="#CEBAC0" enable-background="new    " d="M610.617,207.979c0,0,35.827,49.532,42.041,53.106c0,0-1.445-14.553,8.001-12
		l14.809,10.468c0,0,5.106-1.021,7.404,0c0,0,17.362,4.851,18.638,9.447l-14.298-4.085c0,0-3.83,16.34-5.106,18.383l-1.532,12.766
		c0,0-7.149,8.681-8.17,4.851l-2.043-15.359l3.319-23.96l-7.404-6.661l-3.064,27.597c0,0,6.638,11.398,2.809,19.359
		c0,0-5.872-2.508-15.064-14.508l1.701-20.681C652.658,266.702,618.021,232.489,610.617,207.979z"/>
	<path fill="#FFFFFC" enable-background="new    " d="M700.129,340.975l31.382,35.769l9.702,7.021l4.468,5.362l7.404,7.915
		l1.277,5.617l6.511,3.574c0,0,21.064,2.17,32.298-8.681c11.234-10.851,20.043-23.86,20.043-23.86l-4.085-18.395l-9.447-4.596
		l-8.043-6.766L785,340.975l-10.723-10.061l-39.596-24.128L700.129,340.975z"/>
	<path fill="#FCD155" enable-background="new    " d="M683.638,330.277c0,0,44.426,0.511,34.213-38.298l16.723,12.383
		c0,0,1.787,17.745-9.319,25.021c0,0-18.128,11.617-28.851,12.128L683.638,330.277z"/>
	<path fill="#FCD155" enable-background="new    " d="M774.66,331.426c0,0,18.128,46.34-42,45.957l4.085,6.255
		c0,0,31.811,2.043,40.48-13.915c0,0,13.392-12.255,5.605-34.34L774.66,331.426z"/>
	<path fill="#FCD155" enable-background="new    " d="M791.74,343.489l6.59,2.853c0,0,8.831,26.58-7.645,35.786
		c0,0-15.553,16.596-42.574,15.041l-4.218-7.52c0,0,21.88,1.037,37.565-11.28C781.459,378.368,797.012,366.05,791.74,343.489z"/>
	<path fill="#B4B3B2" enable-background="new    " d="M734.574,304.362l40.085,27.064c0,0,19.149,46.723-42,45.957l-32.808-36.506
		C699.851,340.877,736.362,332.447,734.574,304.362z"/>
	<path fill="#B4B3B2" enable-background="new    " d="M784.517,340.877l7.416,3.442c0,0,12.468,44.426-50.852,45.447l-4.273-6.057
		C736.809,383.709,785.576,385.945,784.517,340.877z"/>
	<path fill="#FCD155" enable-background="new    " d="M809.383,355.553c0,0-5.936,45.957-54.383,47.681l1.34,7.468
		c0,0,58.021,4.979,60.511-50.936L809.383,355.553z"/>
	<path fill="#B4B3B2" enable-background="new    " d="M799.374,350.289l9.435,5.072c0,0,7.468,47.298-54.383,47.872l-1.532-5.962
		C752.894,397.272,809.088,390.983,799.374,350.289z"/>
	<path fill="#F8CA8A" d="M444.926,419.589l1.473,4.002l-9.978,0.252l11.945,16.988h-11.945l-2.882,1.926l6.172,24.71l-9.505-4.567
		c0,0,2.608,21.69,71.375,19.374c0,0,19.633-2.768,40.219-16.571c0,0,1.83-9.366,0.914-14.931c0,0-5.031-2.16-13.268,4.89
		c0,0,9.069-9.881,9.612-15.959l6.451-12.481c0,0-17.162,5.701-26.084,5.666c0,0,16.604-11.806,15.096-18.147
		c0,0,5.774-9.104,7-9.91C541.522,404.83,478.999,425.117,444.926,419.589z"/>
</g>
<g>
</g>
<g>
</g>
<g>
</g>
<g>
</g>
<g>
</g>
<g>
</g>
</svg>
