<?xml version="1.0" encoding="iso-8859-1"?>
<!-- Generator: Adobe Illustrator 25.0.1, SVG Export Plug-In . SVG Version: 6.00 Build 0)  -->
<svg version="1.1" id="Layer_1" xmlns="http://www.w3.org/2000/svg" xmlns:xlink="http://www.w3.org/1999/xlink" x="0px" y="0px"
	 width="612px" height="864px" viewBox="0 0 612 864" enable-background="new 0 0 612 864" xml:space="preserve">
<image display="none" overflow="visible" width="1200" height="800" xlink:href="../../../Anime/wkVM3lSshy9nE6lBqtmMUNoosEHelsol-QGNsfsX_XY.png"  transform="matrix(0 0.8141 -0.8141 0 631.353 -56.8824)">
</image>
<path fill="#563F46" d="M91.6,533.865c0,0-16.34,88.851,35.234,119.489c0,0,18.894,15.83,41.362,4.596l-6.638,33.191l8.681,140.426
	l118.979-233.362c0,0,4.596,12.255,8.681,3.064l19.915-14.298l5.617,0.511v-2.553l3.064-0.511c0,0,4.596,4.596,5.106-5.617
	c0,0,53.106-9.192,86.298-8.17l15.319-3.574l-36.766,44.426c0,0-7.66,3.574-16.851-10.723l-21.447,5.106l4.596,3.574l-41.872,2.043
	c0,0,18.894,16.851,36.766,17.872l-14.809,9.191c0,0,21.447,7.66,38.809-1.532l14.298-21.447l67.404-3.574
	c0,0,80.681-37.277,92.936-56.681c0,0-38.808-133.787-42.383-140.936c0,0-95.489-97.532-140.936-118.979l-2.043-17.362
	c0,0-3.894-2.426-6.191,0l-19.532-13.66c0,0-9.191-33.702-11.298-35.617c0,0,8.234-37.532-2.298-89.043
	c0,0-65.489-7.277-91.149,6.702l-4.787-0.383c0,0-45.191-74.106-46.532-80.617c0,0-7.851,17.809-10.34,44.426
	c0,0-6.128,37.532-8.426,40.021l2.489,7.851c0,0-10.34,6.319-11.489,8.426c0,0-24.894-26.043-39.255-5.17
	c0,0-21.638,25.085-11.106,60.128c0,0,0,12.064,13.596,7.66c0,0-14.745,50.17,3.83,102.638c0,0-24.511-22.979-28.915,18
	c0,0-6.319,54.574,21.638,69.319c0,0-16.085,9.957-9,98.426C112.153,517.141,93.928,509.593,91.6,533.865z"/>
<path fill="#C54E4F" d="M346.153,265.141l18,13.021h5.362l4.596,25.66l-4.596,2.681l1.915,31.787l6.511,7.277v36.383l-6.894,1.532
	l-11.106,32.936l2.106,5.362l-15.894,39.447l-4.596,1.532l-16.085,30.638l3.064,8.043l-8.426,30.255l-6.511,2.298l6.511,30.638
	h5.362l5.745,18.383l-3.83,3.064l-2.681-2.298l-2.298,3.83h-3.83l-21.447,12.255c0,0-2.298,11.106-6.894-1.532l-4.979-11.489
	l-5.362-1.532c0,0-14.553-45.574-13.404-60.128l6.511-7.277l9.957-30.255l-3.064-6.894l28.34-49.17l4.213-1.766
	c0,0,36.766,1.532,39.447,0c0,0,2.681-63.191-9.191-97.66C342.706,332.163,349.982,288.886,346.153,265.141z M465.642,407.992
	c0,0-0.255-30.383-30.128-35.489c0,0-19.149-1.021-20.17,22.979c0,0-2.809,26.298,19.149,34.723
	C434.493,430.205,460.025,443.992,465.642,407.992z M418.153,501.439c-24.511-13.787-39.574,1.532-39.574,1.532
	c-14.553,18.128-3.83,31.404-3.83,31.404c6.638,16.34,31.149,15.319,31.149,15.319c28.596-2.553,26.553-30.638,26.553-30.638
	C432.813,512.724,418.153,501.439,418.153,501.439z"/>
<path fill="#EDD679" d="M188.11,65.61l10.213,18.894c0,0-14.298,58.723-13.787,64.34l2.043,4.596l-13.277,5.106l-3.064-9.702
	C170.238,148.844,184.025,75.822,188.11,65.61z M256.536,418.461h-6.638l-22.979,24c-7.149,3.064-56.17,90.894-56.17,90.894
	c-10.723,10.723-10.723,21.447-14.809,30.128c-4.085,8.681,8.17,58.213,8.17,58.213c15.319,25.021-2.553,70.468-2.553,70.468
	l8.681,139.915l14.809-28.085c-5.106-10.213-11.234-96-11.234-96c0-8.17,10.213-59.745,10.213-59.745
	c1.532-3.064-16.851-80.17-16.851-80.17c32.681-76.085,100.596-146.553,100.596-146.553L256.536,418.461z M364.153,278.163
	l-19.149-13.021l19.149,19.532V278.163z M347.685,276.631l12.255,9.957l-12.255,9.574V276.631z M364.153,289.269l2.681,12.255
	l-2.681,1.915v13.404l-16.468-9.574v-4.213L364.153,289.269z M357.259,319.907l-14.17,5.745c0,0,2.681-6.511,4.596-13.787
	L357.259,319.907z M364.153,338.29l7.277,7.66v13.021l-28.34-27.191l21.064-9.957V338.29z M352.28,370.844l-4.596-24.511
	l16.468,12.638L352.28,370.844z M369.897,373.907l-3.064,2.298l-6.894,21.447l-7.66-13.021v-7.66l17.617-15.702V373.907z
	 M353.812,409.141v-8.426h3.447L353.812,409.141z M350.174,437.865l-5.17-6.277l7.277-1.766L350.174,437.865z M347.685,437.865
	l-4.596,16.085h-6.511l-10.723,19.915l-12.255-31.021L347.685,437.865z M315.897,437.865l3.447-8.043h21.447v4.021L315.897,437.865z
	 M291.77,473.865l16.085-30.638l12.255,28.723L291.77,473.865z M315.897,495.312l6.128,7.66l-6.128,10.34l-22.213-34.085
	l30.255-1.915L315.897,495.312z M277.982,521.737l13.787-34.851l14.17,24.511L277.982,521.737z M313.599,517.524v6.511l-7.66,7.277
	l2.872,20.681l-28.149-22.213L313.599,517.524z M303.642,554.29l-22.979,15.702l-6.511-37.915l29.489,19.915V554.29z
	 M308.812,554.673l7.085,15.319h4.213l3.83,12.255l-38.681-9.957L308.812,554.673z M315.897,587.227l-18.766,12.638l-5.362-17.617
	l-2.872-3.064L315.897,587.227z M455.685,389.865l-14.043,7.787l-15.83-15.447c0,0-5.617-2.043-2.809,2.553l14.553,14.553
	l-12.255,7.404c0,0-6.128,4.34,0,4.085l15.064-8.17l15.319,20.936c0,0,2.809,1.277,2.043-3.574l-14.043-19.277l14.175-9.064
	C457.86,391.652,458.786,388.145,455.685,389.865z M425.302,522.631c0,0,2.298-3.064,0-3.83c0,0-16.851,5.106-20.426,5.106
	l-6.128-17.872c0,0-2.553-4.34-4.085,0l5.617,17.872c0,0-4.851,1.021-18.894,0c0,0-4.596,2.553,0,4.085
	c0,0,18.383,1.787,20.426,1.021l3.319,14.808c0,0,2.809,2.809,3.83,0l-3.319-15.83C405.642,527.992,421.727,524.929,425.302,522.631
	z M392.493,612.12c0,0-11.362-9.192-13.149-12.255l-22.468,6.128l4.596,3.447l-41.362,2.681c0,0,31.787,18,36.191,18.383
	l-15.511,8.426c0,0,20.809,6.128,38.553,0c0,0,15.447-16.851,16.213-22.979L392.493,612.12z"/>
<g>
</g>
<g>
</g>
<g>
</g>
<g>
</g>
<g>
</g>
<g>
</g>
</svg>
