<?xml version="1.0" encoding="iso-8859-1"?>
<!-- Generator: Adobe Illustrator 25.0.1, SVG Export Plug-In . SVG Version: 6.00 Build 0)  -->
<svg version="1.1" id="Layer_1" xmlns="http://www.w3.org/2000/svg" xmlns:xlink="http://www.w3.org/1999/xlink" x="0px" y="0px"
	 width="864px" height="864px" viewBox="0 0 864 864" enable-background="new 0 0 864 864" xml:space="preserve">
<image display="none" overflow="visible" width="872" height="872" xlink:href="../../../Anime/yh442cmz3yh11.jpg"  transform="matrix(0.8385 0 0 0.8385 66.4355 132.871)">
</image>
<rect display="none" width="864" height="864"/>
<path d="M799.764,730.827c-1.052-0.691-2.362-0.846-3.538-0.428c-0.219-0.289-0.459-0.567-0.722-0.834
	c-3.811-3.873-11.124-3.758-13.315-3.622c-19.62-1.895-35.355-6.934-39.631-8.401c-24.927-36.814-28.34-124.253-28.372-125.14
	c-0.021-0.581-0.167-1.149-0.43-1.667c-3.498-8.531-24.146-149.544-37.192-242.404c-9.799-85.758-34.755-140.503-53.967-171.332
	c-21.017-33.723-39.625-46.871-40.407-47.414c-0.147-0.103-0.302-0.195-0.461-0.276c-7.234-3.698-14.421-7.163-21.562-10.406
	c-0.736-5.084-1.808-9.973-3.314-14.456c-0.271-0.805-1.021-1.352-1.869-1.363c-0.833-0.028-1.613,0.516-1.905,1.314
	c-0.956,2.617-2.201,5.984-3.626,9.789C511.97,98.255,475.907,88.71,441.881,85.75c-35.118-3.057-68.159,0.851-98.201,11.611
	c-42.751,15.313-66.848,39.823-74.294,48.36c-3.979-3.524-11.153-11.317-16.987-18.222c-0.805-0.952-2.011-1.483-3.251-1.414
	c-1.245,0.061-2.39,0.698-3.098,1.724c-6.574,9.534-2.625,44.247-1.232,54.846c-35.269,43.6-43.625,214.988-44.175,227.149
	c-4.407,17.96-3.104,154.195-2.94,169.819c0.001,0.069,0.003,0.139,0.008,0.207c2.044,32.714-13.87,125.287-16.449,139.993
	l-5.669,2.834c-21.829-8.465-34.172-3.477-36.691-2.236c-17.655,5.957-30.117,32.121-37.041,77.779
	c-5.049,33.292-5.27,65.457-5.271,65.778c-0.005,1.064,0.414,2.087,1.165,2.842c0.75,0.755,1.771,1.179,2.835,1.179h696.974
	c2.209,0,4-1.791,4-4V734.169C801.564,732.823,800.888,731.567,799.764,730.827z M261.949,206.716
	c3.859,6.034,16.541,24.359,19.561,9.688c0,0,11.083-29.334,11.063-42.962c0.319-0.013,0.638-0.079,0.927-0.249
	c61.928-36.322,122.318-35.24,162.072-27.935c43.166,7.931,72.041,24.702,72.328,24.87c0.364,0.215,0.771,0.294,1.168,0.262
	l3.675,47.29c0,0,1.532,9.957,5.617,4.085c0,0,15.573-21.361,16.602-33.34c28.403,18.686,44.998,58.39,51.516,77.089
	c-22.155-25.421-48.965-37.375-50.21-37.921c-0.993-0.436-2.178,0.055-2.639,1.038c-0.936,1.995-12.599,13.422-24.081,24.059
	l-15.852-45.875c-0.197-0.571-0.642-1.021-1.21-1.227c-63.063-22.836-117.166-20.359-151.446-14.259
	c-37.203,6.62-59.151,18.479-60.067,18.98c-0.608,0.333-1,0.957-1.037,1.649c-0.152,2.892-10.144,25.184-19.467,44.689
	c-0.025,0.052-0.048,0.105-0.068,0.16c-0.315,0.841-0.583,1.159-0.692,1.262c-2.388-0.528-8.374-11.853-12.915-24.472
	c-0.131-0.364-0.365-0.682-0.673-0.916c-1.234-0.938-2.802-1.302-4.531-1.056c-6.897,0.981-17.075,12.199-22.856,19.243
	C242.318,232.07,259.087,210.321,261.949,206.716z M346.842,104.727c41.013-14.573,107.617-22.205,199.777,16.968
	c-6.347,16.693-14.549,37.42-18.367,44.053c-6.823-3.694-33.912-17.411-71.804-24.396c-40.192-7.407-101.095-8.573-163.696,27.648
	l-18.385-16.772C279.561,146.096,303.395,120.166,346.842,104.727z M205.702,579.438c-0.448-42.641-0.825-155.622,2.758-167.906
	c0.09-0.308,0.143-0.625,0.156-0.945c0.079-1.795,8.046-175.59,40.882-220.895c2.306,4.831,5.858,11.808,8.696,15.317
	c-4.897,6.243-24.131,32.064-24.131,52.502c0,0.862,0.553,1.627,1.372,1.898c0.818,0.273,1.719-0.014,2.233-0.705
	c4.541-6.107,17.793-22.165,24.487-23.117c0.513-0.073,0.87-0.029,1.128,0.058c3.087,8.474,10.344,26.398,16.473,26.439
	c1.342-0.019,3.154-0.644,4.36-3.786c3.146-6.583,17.625-37.087,19.597-44.906c4.309-2.194,25.395-12.319,58.03-18.125
	c33.637-5.985,86.641-8.428,148.487,13.758l16.538,47.862c0.221,0.637,0.747,1.121,1.4,1.286c0.655,0.165,1.348-0.01,1.844-0.466
	c5.334-4.903,21.486-19.887,26.132-25.753c6.648,3.232,34.233,17.724,53.885,44.361c0.388,0.525,0.991,0.813,1.61,0.813
	c0.292,0,0.588-0.064,0.866-0.198c0.865-0.416,1.313-1.39,1.065-2.318c-0.7-2.622-17.437-63.923-56.394-89.538
	c1.178-6.273,5.672-32.375,3.964-56.91c5.474,2.548,11.028,5.249,16.672,8.13c2.013,1.484,19.256,14.712,38.312,45.449
	c18.657,30.094,42.91,83.591,52.495,167.547c0.004,0.035,0.009,0.069,0.014,0.103c5.378,38.28,31.815,225.281,37.579,243.856
	c0.239,5.935,2.306,49.485,12.603,87.676c-23.29-40.78-63.67-117.816-61.521-158.286c0.059-1.104-0.788-2.045-1.891-2.104
	c-1.091-0.055-2.045,0.788-2.104,1.891c-2.557,48.148,51.237,142.886,71.007,175.941c2.671,7.26,5.733,14.006,9.234,19.881
	c-1.686,0.45-3.014,1.228-3.999,2.011c-1.241,0.986-2.281,2.232-3.16,3.637c-3.152-0.492-8.539-2.24-11.963-3.514l-5.192-5.817
	c-0.108-1.2-1.054-2.162-2.266-2.267c-2.9-0.252-7.915-1.368-14.242-3.044c-7.345-12.661-32.776-69.898-33.041-70.497
	c-0.448-1.011-1.632-1.465-2.64-1.017c-1.01,0.448-1.465,1.63-1.017,2.64c1.008,2.269,22.245,50.067,31.344,67.41
	c-18.139-5.09-43.733-13.449-62.822-19.848c-4.327-9.439-18.26-45.455-21.299-53.333c1.95-49.51,5.273-118.734,7.978-127.694
	c0.029-0.096,0.041-0.195,0.058-0.293c9.819-10.069,21.883-43.721,22.41-45.205l0.081-0.228l0.024-0.241
	c2.741-26.946,0.481-41.923-6.906-45.786c-3.103-1.622-6.268-0.847-8.526,0.206c2.649-47.264,3.83-100.751-1.762-128.479
	c-0.272-1.354-1.592-2.229-2.944-1.957c-1.354,0.273-2.229,1.591-1.956,2.945c10.807,53.599-4.653,210.951-5.339,217.842
	c-4.073,14.817-8.68,143.313-8.963,151.315c-4.936,24.797-6.287,175.731-6.492,202.966h-7.615
	c-4.494-21.099-6.134-124.627-6.388-165.144c0-0.045-0.002-0.089-0.005-0.134c-1.681-28.115-3.276-158.122-3.357-164.814
	c8.553-44.051-1.735-225.382-2.178-233.094c-0.079-1.378-1.248-2.424-2.64-2.353c-1.378,0.08-2.432,1.261-2.353,2.64
	c0.029,0.503,0.805,14.166,1.766,34.751c-3.028-10.235-5.568-23.955-6.556-30.227c-0.172-1.091-1.203-1.838-2.286-1.665
	c-1.092,0.172-1.837,1.195-1.665,2.287c0.211,1.342,5.057,31.776,11.063,41.868c0.754,17.114,1.552,37.422,2.162,58.349
	c-9.316-17.95-49.276-96.702-58.621-144.318c-0.197-1.003-1.138-1.699-2.137-1.607c-1.019,0.089-1.806,0.932-1.826,1.954
	c-0.009,0.485-0.626,30.342-3.308,59.038l-0.533,5.404c-1.559,15.036-3.722,29.204-6.703,37.997
	c-1.161,0.035-2.329,0.104-3.505,0.209c1.617-13.339,8.007-68.843,5.269-92.12c-0.114-0.968-0.909-1.712-1.882-1.763
	c-0.967-0.055-1.842,0.607-2.056,1.558c-2.984,13.248-6.797,29.589-10.591,45.126c0,0.002-0.001,0.005-0.002,0.007
	c-6.253,25.604-12.457,49.02-14.829,52.799l-7.961,3.981c2.277-9.82,7.409-34.769,6.181-55.634c-0.059-1.005-0.855-1.81-1.86-1.878
	c-1.018-0.07-1.903,0.621-2.098,1.609c-2.847,14.439-11.229,52.8-16.529,60.931l-10.265,2.646
	c1.496-11.016,6.311-49.027,3.688-63.903l-1.528-60.104c-0.024-0.967-0.738-1.778-1.694-1.926c-0.962-0.151-1.881,0.411-2.196,1.326
	c-1.502,4.364-35.74,104.163-35.458,130.396h-6.343l-2.297-17.457c1.485-19.665,4.524-41.441,7.063-43.98
	c0.781-0.781,0.781-2.047,0-2.828c-0.78-0.781-2.048-0.781-2.828,0c-4.827,4.827-7.663,39.09-8.223,46.49
	c-0.439,1.46-2.74,9.563-2.19,17.497c-3.527,1.445-13.526,4.976-17.447,0.406l-8.546-45.749
	c1.592-31.002,6.024-91.906,11.496-102.068c0.524-0.973,0.16-2.186-0.813-2.709c-0.975-0.524-2.186-0.159-2.709,0.813
	c-7.279,13.518-11.792,100.307-11.981,103.995c0,0.01,0.002,0.019,0.001,0.028c0,0.01-0.003,0.019-0.003,0.029l-0.934,41.547
	c-5.858-4.231-18.185-12.221-26.813-11.569c-2.579-8.605-14.103-50.018-9.629-88.938c0.121-1.053-0.6-2.017-1.644-2.199
	c-1.043-0.186-2.049,0.481-2.291,1.513c-0.555,2.366-13.308,57.252-9.472,89.246l-3.538,0.708
	c-0.519-12.414-2.533-71.45,4.635-99.708l7.658-28.59c0.286-1.067-0.348-2.164-1.415-2.45c-1.069-0.287-2.164,0.348-2.45,1.415
	l-7.635,28.504c-15.452,40.878-42.103,111.254-52.888,139.344c3.897-47.458,15.157-118.998,15.281-119.785
	c0.172-1.091-0.572-2.115-1.664-2.288c-1.082-0.171-2.115,0.572-2.288,1.664c-0.137,0.865-13.705,87.061-16.234,133.224
	c0,0.007,0.001,0.013,0.001,0.02c0,0.006-0.002,0.012-0.003,0.018c-0.084,2.341-1.975,57.599,4.096,87.647
	c0.305,4.781,9.769,153.59,7.912,172.527c-0.007,0.072-0.01,0.145-0.01,0.217c0.008,0.696,0.704,69.978-3.826,105.507
	c-0.917,10.523-4.945,57.931-4.475,73.77h-4.783c-1.105-11.906-2.058-51.607-2.444-77.256c1.645-9.103,0.933-44.15,0.394-63.367
	l0.297-1.021l-0.333-0.249c-0.183-6.388-0.339-10.776-0.362-11.434c-0.002-0.067-0.008-0.136-0.018-0.203
	c-1.875-13.504-3.034-134.986-3.045-136.163c0.381-25.249-7.214-87.604-7.291-88.23c-0.016-0.126-0.043-0.249-0.082-0.37
	c-7.095-22.032-6.043-145.949-6.032-147.198c0.01-1.105-0.877-2.008-1.981-2.019c-0.006,0-0.013,0-0.019,0
	c-1.096,0-1.989,0.883-2,1.981c-0.047,5.113-1.063,125.169,6.165,148.275c0.457,3.771,7.606,63.2,7.239,87.549
	c0.047,5.002,1.167,122.379,3.069,136.62c0.022,0.611,0.136,3.901,0.28,8.796c-2.029-0.823-4.384-1.363-6.954-1.674
	c-1.605-6.677-7.964-34.364-9.48-59.934c0.047-0.142,0.084-0.29,0.098-0.445l4.085-44.701c0.101-1.1-0.709-2.073-1.81-2.174
	c-1.101-0.082-2.073,0.711-2.174,1.811l-4.014,43.926c-4.446,21.519-11.576,54.219-15.717,63.868
	c-4.535,0.923-8.567,1.922-11.551,2.717C193.034,698.939,207.71,612.253,205.702,579.438z M721.862,747.779
	c0.205,9.208-1.806,11.623-2.427,12.145c-0.39,0.326-0.706,0.352-0.854,0.337c-0.358-0.155-0.541-0.128-0.958-0.091
	c-3.863,0.344-10.52-1.099-16.319-2.691c-0.356-5.858-0.372-24.266,12.236-33.16c2.156,0.787,7.088,2.508,11.001,3.299
	C721.37,735.771,721.782,746.282,721.862,747.779z M706.472,717.485l3.803,4.261c-12.58,9.662-13.358,27.082-13.053,34.553
	c-1.406-0.428-2.686-0.838-3.754-1.194C692.412,725.107,703.536,718.659,706.472,717.485z M598.208,726.391
	c0.071-2.354,0.143-4.683,0.218-6.982c1.505-1.81,5.042-5.348,10.237-6.155c5.165-0.798,10.773,1.234,16.664,6.056
	c0.585,0.646,4.724,5.438,3.575,10.342c-0.865,3.69-4.535,6.781-10.895,9.196C610.79,736.37,600.454,731.287,598.208,726.391z
	 M634.354,762.158c22.426,9.588,48.091,20.415,59.255,24.589c-2.478,5.305-7.819,19.424,0.447,28.469
	c-2.295,5.747-11.451,29.555-11.995,44.784h-63.772c3.155-18.973,15.636-94.001,16.13-96.902
	C634.474,762.775,634.448,762.454,634.354,762.158z M703.73,860c1.84-11.11,5.126-35.562-0.011-43.625
	c2.935-3.229,9.262-11.877,8.074-25.257l20.036,6.011c0.161,0.048,0.328,0.076,0.496,0.082c0.017,0.001,1.661,0.144,3.204,1.942
	c1.727,2.014,3.56,6.38,2.486,15.747c-0.007,0.059-0.011,0.117-0.012,0.176c-0.361,14.002-1.855,36.414-4.448,44.924H703.73z
	 M707.432,788.467c0.002,0.021,0.011,0.039,0.014,0.059c0.005,0.043,0.001,0.086,0.009,0.129
	c2.825,16.602-7.335,25.733-7.764,26.109c-0.456,0.396-0.71,0.976-0.689,1.579c0.021,0.603,0.312,1.164,0.793,1.528
	c4.365,3.298,2.667,25.472-0.12,42.128h-13.613c0.613-16.235,12.066-44.188,12.192-44.492c0.318-0.771,0.124-1.66-0.487-2.229
	c-9.213-8.554-0.172-25.637,0.357-26.614c2.094-3.261,5.452-6.608,6.87-6.268C705.688,780.573,706.987,782.471,707.432,788.467z
	 M614.234,860h-18.321c0.114-14.384,0.573-64.911,1.719-112.224c8.336,5.649,26.083,13.433,32.582,16.211
	C628.298,775.449,616.999,843.379,614.234,860z M632.805,730.536c1.708-7.375-4.403-13.805-4.664-14.075
	c-0.053-0.055-0.108-0.106-0.167-0.154c-6.867-5.655-13.59-8.01-19.978-6.997c-3.963,0.628-7.098,2.455-9.374,4.302
	c0.129-3.689,0.263-7.283,0.403-10.758c2.366-1.484,8.06-4.359,15.526-3.438c9.159,1.132,18.078,7.424,26.51,18.699
	c0.594,1.31,4.503,10.493,0.33,16.279c-2.554,3.541-7.945,5.281-15.747,5.159C629.587,737.058,631.993,734.042,632.805,730.536z
	 M602.342,657.832c0.028-0.137,0.045-0.276,0.05-0.416c0.139-3.952,0.295-8.223,0.465-12.726
	c4.692,12.085,12.395,31.762,16.566,41.53c-9.069-3.058-16.11-5.48-19.25-6.564C600.805,669.493,601.524,661.802,602.342,657.832z
	 M616.427,445.782c1.622-2.125,6.115-7.638,10.624-9.785l-1.721-3.611c-3.131,1.491-6.125,4.196-8.436,6.658
	c0.173-2.545,0.344-5.127,0.512-7.744l0.997-11.364c1.255-0.862,4.191-2.52,6.647-1.224c3.19,1.682,8.046,9.324,4.793,41.586
	c-0.941,2.604-9.799,26.829-17.826,38.948C612.977,489.126,614.745,469.498,616.427,445.782z M415.681,752.319
	c-7.277,3.064-33.702,79.277-33.702,79.277L407.156,860H283.14c-3.757-21.437,1.606-88.23,2.379-97.514
	c17.34-9.791,33.304-22.282,34.828-23.484c37.976-25.352,31.558-51.846,31.021-53.799c-3.355-15.718-6.701-41.018-3.552-51.236
	c1.685,5.29,3.412,10.809,4.756,15.32c-0.566-0.853-1.006-1.648-1.278-2.36c-0.394-1.032-1.55-1.551-2.581-1.157
	c-1.032,0.394-1.55,1.549-1.157,2.581c1.066,2.797,3.947,6.369,7.682,10.166c0.119,0.159,0.258,0.299,0.416,0.416
	c11.013,11.06,28.95,23.85,30.586,25.01c17.831,15.222,25.234,53.052,25.31,53.45c0.498,2.49,1.115,5.58,3.463,5.58
	c0.038,0,0.076-0.001,0.115-0.003c1.8-0.075,2.721-1.739,3.179-5.745c6.335-56.045,30.716-59.229,30.945-59.254
	c0.166-0.015,0.33-0.05,0.487-0.104c72.389-25.386,78.479-62.094,78.702-63.644c0.014-0.095,0.021-0.19,0.021-0.286v-10.791
	c3.261,2.924,7.956,9.095,7.014,19.937l-0.008,0.173c0,1.166,0.128,28.532,11.14,35.689l24.689,21.438
	c0.089,2.705,0.179,5.191,0.269,7.424c-3.438,3.146-10.756,12.987,0.602,33.33c0.53,41.4,2.038,116.862,6.104,138.864H434.883
	l19.095-26.489L415.681,752.319z M251.901,860c-0.328-11.706,2.432-49.318,4.526-73.343c0.498-3.904,0.933-8.213,1.313-12.791
	c7.019-1.198,15.329-4.707,23.575-9.079c-1.257,15.47-5.621,73.547-2.213,95.213H251.901z M309.935,327.617l5.149-0.708l0.048,0.376
	l-5.341,1.535C309.837,328.418,309.888,328.019,309.935,327.617z M310.439,323.51c0.859-6.681,1.863-13.144,2.864-18.948
	c0.197,6.31,0.681,12.48,1.338,18.37L310.439,323.51z M309.333,333.114l6.376-1.832c1.538,10.681,3.529,20.045,5.236,27.046
	c-3.339-0.489-8.659-0.998-12.794-0.134C307.97,350.376,308.469,341.731,309.333,333.114z M332.354,421.235
	c-16.708-12.893-23.461,2.771-24.99,7.278c-2.611-3.488-5.055-7.278-6.419-9.852c3.734-0.359,7.574-1.428,9.37-4.098
	c1.108-1.647,1.29-3.682,0.523-5.756c-0.119-0.487-0.374-1.251-0.873-2.086c-0.04-2.495,0.148-16.545,9.26-17.247
	c0.67,0.063,4.803,0.584,6.97,4.077c1.535,2.474,1.837,6.005,0.93,10.409c-0.539-0.566-1.207-0.916-1.94-0.916
	c-1.763,0-3.192,1.943-3.192,4.34c0,2.157,1.16,3.933,2.676,4.27c-0.112,0.271-0.218,0.538-0.336,0.812
	c-0.437,1.015,0.032,2.191,1.046,2.627c0.258,0.111,0.526,0.164,0.79,0.164c0.775,0,1.512-0.453,1.838-1.21
	c4.259-9.894,4.781-17.517,1.554-22.659c-3.492-5.563-9.971-5.905-10.245-5.917c-0.07-0.004-0.141-0.002-0.211,0.002
	c-10.347,0.649-12.591,11.766-13.04,17.889c-1.482-0.66-3.401-1.104-5.911-1.104c-0.38,0-0.77,0.01-1.169,0.031
	c-0.187-2.718-0.222-7.024,0.789-11.195c5.66-7.811,17.333-17.665,33.68,0.15C336.919,400.191,340.258,413.845,332.354,421.235z
	 M278.991,418.427c-11.204-13.398-7.099-31.917-7.099-31.917c-0.097-0.014-0.212,0-0.319,0c14.818-6.799,30.209-6.957,31.546-6.957
	c0.062,0,0.094,0,0.094,0c-9.957,7.915-6.894,26.043-6.894,26.043c1.45-0.236,2.72-0.339,3.832-0.339
	c2.851,0,4.657,0.675,5.81,1.496c0.006,0.286,0.014,0.483,0.017,0.551c0.051,1.021,0.848,1.808,1.856,1.883
	c0.098,0.299,0.124,0.494,0.124,0.494c2.343,5.753-7.735,6.137-10.464,6.137c-0.42,0-0.666-0.009-0.666-0.009
	c-0.255,3.319,8.17,14.553,8.17,14.553c-0.124,0.002-0.244,0.003-0.368,0.003C294.187,430.365,284.297,423.115,278.991,418.427z
	 M309.021,369.564c-0.333-2.293-0.564-4.739-0.712-7.297c3.792-1.055,10.258-0.313,13.699,0.285c0.789,3.022,1.456,5.361,1.91,6.888
	c-2.511-0.314-4.109-0.356-4.109-0.356c-3.807,0.04-7.39,0.267-10.78,0.631C309.025,369.665,309.029,369.615,309.021,369.564z
	 M293.689,333.465l2.906-1.765c-0.003,0.411-0.005,0.82-0.007,1.227C295.722,333.032,294.744,333.217,293.689,333.465z
	 M296.642,326.993l-16.327,9.914c6.87-18.123,13.509-35.661,18.367-48.502C297.37,300.58,296.812,314.278,296.642,326.993z
	 M277.948,343.15c6.113-2.534,14.645-5.618,18.634-6.227c0.01,10.098,0.226,19.024,0.432,25.288l-4.964,1.372
	c-1.065,0.294-1.689,1.396-1.395,2.46c0.245,0.887,1.05,1.468,1.927,1.468c0.176,0,0.355-0.023,0.534-0.073l4.046-1.118
	c0.113,2.909,0.203,4.741,0.224,5.164c0.003,0.063,0.021,0.123,0.03,0.185c-26.557,6.202-36.794,21.416-36.794,21.416
	c0.002-0.002,0.005-0.004,0.007-0.005c0,0-0.006,0.005-0.006,0.005c-1.006,28.319,24.494,33.744,30.348,34.616
	c5.017,2.679,9.18,4.299,9.18,4.299l2.809,6.277l5.002-6.277h3.934l3.574,3.468l5.106-5.362l7.915-1.277l5.106,3.17l3.064-6.489
	l5.872-2.043c-1.702,0.085-3.177,0.113-4.388,0.113c-2.421,0-3.783-0.113-3.783-0.113c7.047-6.544,6.585-16.93,4.308-25.785
	c0,0,0,0,0,0l0,0c-2.343-9.11-6.606-16.598-6.606-16.598c7.66,1.787,23.234,10.723,23.234,10.723
	c-0.699-3.538-2.101-6.519-3.95-9.042c1.608,1.124,2.977,2.149,3.983,2.948c0.594,0.471,1.405,0.567,2.093,0.245
	c0.688-0.322,1.133-1.006,1.15-1.766l0.589-26.21l5.147,27.554c0.055,0.295,0.176,0.574,0.353,0.815
	c6.526,8.899,23.223,0.959,23.931,0.618c0.767-0.371,1.215-1.188,1.115-2.034c-0.178-1.514-0.223-3.068-0.178-4.597l0.804,6.113
	c0.131,0.995,0.979,1.739,1.983,1.739h10.212c0.571,0,1.114-0.244,1.494-0.67s0.559-0.994,0.493-1.561
	c-2.008-17.268,22.18-92.098,31.535-120.174l1.245,48.967c0.002,0.103,0.013,0.206,0.031,0.307
	c2.971,16.338-4.025,65.247-4.097,65.739c-0.096,0.662,0.146,1.328,0.645,1.775c0.498,0.446,1.188,0.613,1.834,0.447l13.864-3.574
	c0.431-0.111,0.812-0.361,1.083-0.713c1.894-2.448,4.04-8.116,6.168-15.101l2.996-1.038c-1.371,6.803-2.514,11.226-2.546,11.345
	c-0.199,0.759,0.065,1.565,0.675,2.059c0.609,0.495,1.453,0.587,2.154,0.236l3.497-1.748c-2.311,3.54-5.272,8.696-3.625,9.675
	c0,0,20.936-11.503,30.383-10.482c0,0-11.489,9.447-10.468,22.723c0,0,10.468-24.766,27.574-19.66c0,0,17.106,0.766,20.17,26.936
	c0,0,7.66-11.106-8.426-27.702c0,0,17.693,2.076,36.589,12.441c0.004,0.012,2.313,6.995-4.096,17.174
	c-15.573,19.915-26.621,19.917-26.621,19.917c3.319-5.106,2.809-16.085,2.809-16.085c-1.452,11.067-8.17,17.106-8.17,17.106
	c-0.447,0.024-0.891,0.042-1.336,0.06c-5.911-13.845-17.207-13.336-17.207-13.336c-2.39-0.393-4.466-0.272-6.275,0.182
	c0.024-0.263-0.002-0.534-0.089-0.801c-1.654-5.086-4.978-19.599-0.541-25.589c1.416-1.911,3.527-2.802,6.518-2.758
	c0.11,0.006,0.253-0.009,0.372-0.028c0.16-0.027,3.974-0.61,7.403,2.127c3.284,2.623,5.164,7.409,5.585,14.226
	c0.068,1.103,1.006,1.953,2.119,1.873c1.103-0.068,1.941-1.017,1.873-2.12c-0.496-8.04-2.903-13.814-7.154-17.162
	c-4.375-3.446-9.202-3.059-10.29-2.917c-4.196-0.056-7.461,1.435-9.643,4.382c-6.566,8.874-0.314,28.38-0.045,29.207
	c0.118,0.361,0.341,0.65,0.61,0.881c-3.775,2.163-5.876,5.857-6.889,8.213c-0.652-0.166-1.011-0.268-1.011-0.268
	c-0.575-1.725-3.022-9.353-4.205-13.046c0.188,0.012,0.375,0.025,0.567,0.025c4.266,0,7.723-2.972,7.723-6.638
	c0-3.666-3.458-6.638-7.723-6.638c-4.266,0-7.723,2.972-7.723,6.638c0,3.412,2.996,6.219,6.849,6.593l2.215,13.067l-7.66-1.021
	l8.17,6.128l3.574,4.192c10.979-8.83,13.021,2.191,13.021,2.191h2.298c4.851-2.809,12.638-4.085,12.638-4.085l3.191,5.362
	l6.894-6.128c0,0,34.732,0.711,42.711-27.055c1.393,2.703,2.358,4.541,2.779,5.339V526.66c-0.084,0.517-0.169,1.024-0.258,1.509
	c-8.095,3.511-17.972,25.252-21.028,32.384c-0.018,0.041-0.034,0.082-0.049,0.124c-2.508,7.128-11.079,16.234-22.291,25.753
	c-0.167,0.103-0.316,0.23-0.446,0.376c-30.613,25.862-80.368,54.618-81.055,55.014c-0.043,0.024-0.084,0.05-0.125,0.077
	c-29.921,20.272-53.718-0.946-54.715-1.857c-0.11-0.102-0.23-0.189-0.36-0.264c-95.385-54.647-104.184-81.27-104.279-81.59
	l-7.567-24c-0.004-0.014-0.012-0.026-0.017-0.039c-0.023-0.067-0.054-0.131-0.084-0.196c-0.027-0.059-0.053-0.119-0.086-0.175
	c-0.008-0.014-0.012-0.029-0.021-0.043c-11.819-19.047-26.955-105.234-28.317-113.09
	C250.576,415.213,264.366,378.963,277.948,343.15z M460.7,358.059l-2.493,0.863c1.985-7.034,3.901-14.872,5.523-21.932
	C462.986,344.62,461.829,351.957,460.7,358.059z M488.509,316.35h6.139c-0.076,1-0.154,1.997-0.234,2.991h-6.64
	C488.021,318.343,488.266,317.346,488.509,316.35z M494.943,312.35h-5.459c2.528-10.419,4.876-20.431,6.678-28.222
	C496.135,292.615,495.641,302.498,494.943,312.35z M486.784,323.34h7.3c-0.923,10.896-1.984,21.065-2.806,28.442
	c-3.128,0.117-8.418,0.789-12.353,1.339C481.331,344.776,484.086,334.18,486.784,323.34z M508.834,319.427
	c1.815,0.97,4.406,2.366,7.281,3.958c-2.626-0.615-5.218-1.009-7.573-1.022C508.642,321.386,508.74,320.408,508.834,319.427z
	 M509.236,315.109c1.372-15.397,2.153-30.774,2.578-41.613c4.653,16.777,11.777,35.767,19.441,54.082
	C523.699,322.824,512.862,317.026,509.236,315.109z M508.116,326.365c8.904-0.211,23.09,6.664,26.088,8.172
	c9.002,20.963,18.398,40.518,25.199,54.189c-9.123-8.747-31.008-26.742-57.476-27.774c0.251-0.799,0.497-1.629,0.737-2.496
	c3.333,0.073,12.221,0.752,23.165,5.452c0.257,0.11,0.524,0.163,0.788,0.163c0.775,0,1.514-0.454,1.839-1.211
	c0.436-1.015-0.034-2.191-1.049-2.627c-10.746-4.615-19.536-5.58-23.737-5.753C505.509,346.583,506.967,336.736,508.116,326.365z
	 M477.679,357.34c4.948-0.715,10.323-1.367,13.146-1.55c-0.292,2.539-0.532,4.546-0.693,5.869
	c-5.068,0.817-10.25,2.335-15.496,4.712C475.511,364.184,476.543,361.087,477.679,357.34z M571.908,694.955
	c0.017,2.627,0.059,8.49,0.145,16.512c-3.174-8.69-1.967-14.28-0.204-17.561C571.869,694.264,571.889,694.624,571.908,694.955z
	 M528.462,598.111v-9.07c11.458-9.828,20.279-19.334,22.998-26.973c5.314-12.384,12.649-25.324,17.122-29.215
	c0.214,17.064,1.284,99.56,2.544,142.083l-22.006-19.108l-0.246-0.183c-7.678-4.835-9.391-24.875-9.406-32.308
	C540.8,607.601,531.695,600.216,528.462,598.111z M358.663,656.322c-1.489-6.508-8.154-27.162-11.417-37.154
	c11.148,7.299,24.148,15.288,39.311,23.979c1.646,1.416,13.849,11.38,31.129,11.378c8.434,0,18.079-2.374,28.29-9.275
	c3.286-1.893,48.089-27.845,78.486-52.849v21.362c-0.445,2.294-8.226,36.481-75.842,60.257c-3.031,0.42-26.813,5.427-33.862,59.258
	c-2.275-9.913-10.078-38.922-25.995-52.44c-0.045-0.038-0.092-0.074-0.141-0.108C382.025,676.064,367.623,665.213,358.663,656.322z
	 M328.307,678.355c-14.15-20.111-14.562-69.091-14.565-69.591c-0.005-1.102-0.9-1.99-2-1.99c-0.003,0-0.006,0-0.01,0
	c-1.104,0.006-1.996,0.905-1.99,2.01c0.01,2.042,0.404,48.346,14.223,70.255c-7.048,1.31-15.324,3.759-24.821,7.356
	c-2.555,0.968-5.088,1.978-7.564,3.004c-11.68-46.542,0.713-96.87,4.36-109.88c9.044,8.954,23.356,20.943,45.925,36.081
	c0.57,1.732,2.24,6.814,4.213,12.942c-6.75,9.085-2.195,38.698,0.237,51.746C342.092,678.019,336.078,677.375,328.307,678.355z
	 M247.961,440.892c5.172,27.298,14.948,74.467,23.745,92.114c-6.59-1.58-15.069-15.876-19.426-25.886
	C248.591,488.794,247.927,460.175,247.961,440.892z M273.604,537.124l6.997,22.183c0.133,0.495,1.821,6.045,12.126,16.927
	c-2.563,8.618-17.853,63.911-4.87,114.74c-13.646,5.872-24.903,11.853-27.587,13.303c0.101-13.084,0.019-22.375,0.008-23.488
	c1.607-17.153-5.141-128.74-7.292-163.242C257.774,526.254,265.674,537.808,273.604,537.124z M260.234,708.314
	c0.446,0.089,0.923,0.035,1.353-0.202c6.818-3.758,17.525-9.134,29.151-14.045c0.001,0,0.002,0,0.003,0
	c0.166-0.045,0.317-0.115,0.46-0.195c12.239-5.145,25.446-9.743,36.191-11.382c0,0,0,0,0,0c0.002,0,0.003-0.001,0.004-0.001
	c9.348-1.425,16.832-0.613,20.181,4.036c0.717,3.015,4.896,26.252-29.517,49.193c-0.045,0.03-0.089,0.062-0.131,0.096
	c-0.386,0.304-37.447,29.453-59.868,33.936C259.515,750.039,260.051,726.32,260.234,708.314z M195.005,860
	c-0.416-12.925-0.725-54.645,11.587-71.809l30.33-6.843c-0.045,0.304-0.091,0.592-0.14,0.846c-0.026,0.135-0.039,0.272-0.037,0.41
	c0.168,11.177,0.99,61.257,2.485,77.396H195.005z M227.175,753.003l-6.998,2.032c6.574-18.115,8.713-30.913,6.239-37.312
	c4.182,0.177,7.813,0.856,10.378,2.275L227.175,753.003z M216.818,676.294c0.211-0.951,0.421-1.904,0.629-2.853
	c1.97,15.094,4.825,28.881,6.586,36.698c-5.084,0.186-11.18,1.126-16.187,2.063C209.984,705.413,212.808,694.391,216.818,676.294z
	 M237.448,732.048c0.141,6.569,0.26,13.726,0.302,20.569h-6.298L237.448,732.048z M186.64,726.08
	c1.05-0.526,1.792-1.491,2.073-2.622c8.211-2.289,21.809-5.35,33.06-5.742c0.971,0.916,5.569,7.358-6.727,39.636l-1.429,3.752
	l15.456-4.486h8.694c0.013,8.109-0.101,15.489-0.435,20.538l-33.058,7.459l-0.441,0.581c-13.655,17.985-13.317,61.194-12.843,74.805
	h-17.396c-9.766-31.815,1.109-111.843,3.652-129.264c0.106-0.042,0.217-0.068,0.32-0.119L186.64,726.08z M141.679,727.931
	c0.275-0.089,0.489-0.179,0.738-0.323c0.103-0.057,10.338-5.385,30.836,2.734c-2.661,17.995-13.328,95.966-3.825,129.659h-64.791
	C105.31,822.82,112.868,737.216,141.679,727.931z M793.564,860h-55.909c3.392-12.715,4.239-40.683,4.346-44.732
	c0.976-8.625-0.18-14.923-3.435-18.718c-2.288-2.668-4.869-3.203-5.778-3.31l-21.487-6.446c-0.43-4.278-1.557-9.322-5.331-10.274
	c-4.122-1.041-8.399,4.012-10.344,6.71c-18.925-6.986-86.178-36.117-97.852-41.183c0.082-3.207,0.167-6.392,0.256-9.542
	c6.329,5.909,17.65,9.794,19.39,10.367l0.016,0.004c0.019,0.006,0.038,0.008,0.057,0.013l0.291,0.066
	c3.127,0.413,6.012,0.618,8.654,0.618c8.811,0,14.914-2.288,18.195-6.838c5.861-8.127,0.195-20.021-0.049-20.523l-0.194-0.32
	c-9.174-12.326-19.079-19.209-29.44-20.455c-6.828-0.824-12.3,1.012-15.73,2.72c0.204-4.717,0.42-9.178,0.648-13.314
	c14.683,5.069,75.332,25.82,99.619,31.212c-5.518,4.874-12.17,15.971-10.943,40.983c0.05,1.014,0.706,1.896,1.662,2.234
	c0.761,0.269,18.427,6.482,27.449,5.91c0.293,0.053,0.614,0.083,0.955,0.083c1.119,0,2.453-0.325,3.694-1.241
	c3.256-2.402,4.746-7.752,4.552-16.431c-0.261-5.027,0.272-19.037,5.797-23.423c1.1-0.874,2.375-1.309,3.853-1.315
	c0.077,0.11,0.152,0.226,0.229,0.335c0.463,0.655,1.111,1.155,1.862,1.437c0.761,0.286,18.925,7.019,43.158,9.312
	c0.226,0.021,0.458,0.022,0.684,0.006c3.291-0.245,6.877,0.505,7.377,1.234c0,0.001,0.017,0.067,0.001,0.232
	c-0.134,1.407,0.485,2.78,1.628,3.612c0.629,0.458,1.365,0.715,2.117,0.76V860z M390.277,597.085c5.2,4.199,12.488,5.42,19.205,5.42
	c9.331,0,17.561-2.356,17.561-2.356c55.915-28.596,40.34-71.489,40.34-71.489c-17.617-21.447-47.489-22.468-47.489-22.468
	c-0.586-0.005-1.163-0.008-1.738-0.008c-54.492,0.001-57.496,23.753-57.496,23.753C360.915,585.085,390.277,597.085,390.277,597.085
	z M425.232,595.458c-1.746,0.451-8.443,2.047-15.75,2.047c-7.017,0-12.572-1.49-16.064-4.31c-0.378-0.306-0.799-0.554-1.25-0.738
	c-0.178-0.073-12.237-5.282-20.028-24.668c11.1-20.335,34.477-24.831,34.477-24.831c32.247-7.551,50.123,6.423,56.004,12.339
	C458.175,571.422,445.622,584.924,425.232,595.458z M418.163,511.184h0.002c0.531,0,1.065,0.002,1.606,0.007
	c0.912,0.042,14.177,0.787,27.443,7.686c-4.681,2.894-12.512,3.705-12.512,3.705c-12-1.737-45.957,1.481-45.957,1.481
	c-9.615,0.524-14.44-1.105-16.528-2.185c0.238-0.184,0.474-0.368,0.728-0.552C379.325,516.699,392.347,511.184,418.163,511.184z
	 M321.992,403.043c0,3.666-1.429,6.638-3.191,6.638s-3.191-2.972-3.191-6.638c0-3.666,1.429-6.638,3.191-6.638
	S321.992,399.376,321.992,403.043z M506.291,399.34c0,3.666-1.737,6.638-3.879,6.638c-2.143,0-3.88-2.972-3.88-6.638
	c0-3.666,1.737-6.638,3.88-6.638C504.554,392.702,506.291,395.674,506.291,399.34z M514.931,406.553c0,2.855-1.429,5.17-3.191,5.17
	c-1.763,0-3.192-2.315-3.192-5.17c0-2.855,1.429-5.17,3.192-5.17C513.502,401.383,514.931,403.698,514.931,406.553z
	 M390.819,429.276v-9.702c0-0.829,0.671-1.5,1.5-1.5s1.5,0.671,1.5,1.5v9.702c0,0.829-0.671,1.5-1.5,1.5
	S390.819,430.105,390.819,429.276z M389.382,445.645c-0.156-1.094,0.604-2.106,1.697-2.263c1.094-0.156,2.106,0.604,2.263,1.696
	c0.088,0.615,2.138,15.139,0.947,21.887c-0.171,0.97-1.015,1.652-1.967,1.652c-0.116,0-0.232-0.01-0.35-0.03
	c-1.088-0.192-1.814-1.229-1.622-2.317C391.43,460.149,389.402,445.788,389.382,445.645z M292.112,741.499
	c7.096,0,16.796-4.934,25.435-13.572c5.646-5.646,9.947-12.005,12.11-17.907c2.349-6.408,1.932-11.648-1.174-14.754
	c-3.106-3.106-8.345-3.523-14.754-1.175c-5.902,2.163-12.262,6.464-17.908,12.11c-12.224,12.224-17.027,26.57-10.936,32.662
	C286.671,740.649,289.167,741.499,292.112,741.499z M314.719,725.099c-4.106,4.105-8.323,7.173-12.208,9.236
	c-1.237-0.134-3.507-0.631-4.192-1.936c-0.565-1.079-0.044-2.962,1.467-5.301l0.121-0.216c0.078-0.161,7.902-16.138,17.393-17.997
	c2.646-0.52,5.163,0.145,7.655,2.029C322.793,715.629,319.232,720.585,314.719,725.099z M298.649,709.029
	c5.244-5.243,11.088-9.215,16.456-11.183c4.792-1.757,8.637-1.664,10.549,0.247c1.699,1.699,1.952,4.926,0.759,8.982
	c-3.136-2.063-6.451-2.79-9.89-2.114c-11.097,2.18-19.345,18.404-20.164,20.068c-2.345,3.672-2.875,6.78-1.575,9.242
	c0.548,1.037,1.351,1.805,2.24,2.385c-4.216,1.295-7.601,1.09-9.311-0.621C283.914,732.234,287.47,720.209,298.649,709.029z"/>
<g>
</g>
<g>
</g>
<g>
</g>
<g>
</g>
<g>
</g>
<g>
</g>
</svg>
