<?xml version="1.0" encoding="iso-8859-1"?>
<!-- Generator: Adobe Illustrator 25.0.1, SVG Export Plug-In . SVG Version: 6.00 Build 0)  -->
<svg version="1.1" id="Layer_1" xmlns="http://www.w3.org/2000/svg" xmlns:xlink="http://www.w3.org/1999/xlink" x="0px" y="0px"
	 width="796.792px" height="223.208px" viewBox="0 0 796.792 223.208" enable-background="new 0 0 796.792 223.208"
	 xml:space="preserve">
<rect x="-33.604" y="-320.396" display="none" width="864" height="864"/>
<path fill="#FFFFFF" d="M721.74,159.141l-55.773-11.654c1.34-3.858,2.051-7.886,2.051-11.933c0-11.177-4.789-21.954-16.365-30.337
	c6.985-5.988,11.377-15.967,11.377-23.75c0-17.165-14.571-33.73-38.719-33.73c-20.359,0-37.721,16.366-37.721,35.326v2.794h29.338
	v-2.794c0-4.79,3.394-8.582,8.384-8.582c5.188,0,9.18,3.792,9.18,8.582c0,4.99-3.592,11.177-10.578,11.177h-6.387v27.143h6.787
	c8.781,0,16.165,3.792,16.165,12.973c0,2.699-0.665,5.132-1.846,7.21l-30.038-6.277c-0.019-0.31-0.049-0.616-0.049-0.934v-3.193
	h-19.701l-22.805-4.765V51.729H540.49l-27.941,29.738l12.973,14.769l9.98-9.78v33.77l-32.325-6.754V99.429
	c0-28.74-22.953-51.692-53.689-51.692c-27.424,0-48.484,18.759-52.275,43.593l-20.962-4.38l16.96-31.229v-3.991h-95.8v18.746
	l-11.85-2.476l6.669-12.279v-3.991h-84.532L83.072,25.688l-8.019,38.378l58.572,12.239l-4.85,5.162l12.973,14.769l9.979-9.78v85.023
	h29.539V86.26l55.772,11.654l-39.612,73.565h31.933l36.664-67.508l-0.684-0.143l62.469,13.053l-29.399,54.598h31.933l26.372-48.558
	l40.382,8.438c3.429,25.081,24.65,44.112,52.392,44.112c19.73,0,36.24-9.384,45.544-23.648l40.47,8.456v11.2h29.538v-5.028
	l148.682,31.068L721.74,159.141z M449.487,75.08c14.77,0,24.549,10.977,24.549,24.948v7.354l-48.562-10.147
	C426.688,84.622,436.091,75.08,449.487,75.08z M348.704,78.074l-1.51,2.804l-13.419-2.804H348.704z M142.089,87.118l-4.839-5.509
	l3.571-3.8l-0.917-0.192l9.792,2.046l-2.36,2.312L142.089,87.118z M174.993,165.206H158v-78.75v-5.058l16.993,3.551V165.206z
	 M225.628,165.206h-17.699l35.514-65.954l16.17,3.379L225.628,165.206z M350.303,121.581l-23.693,43.625h-17.699l25.301-46.987
	l16.419,3.431L350.303,121.581z M483.499,156.015c-8.799,8.501-20.878,13.182-34.012,13.182c-12.917,0-24.788-4.669-33.427-13.148
	c-6.476-6.356-10.729-14.437-12.393-23.318l17.903,3.741c4.548,10.87,14.914,17.928,27.917,17.928
	c8.363,0,15.651-2.842,21.038-7.699l17.846,3.729C486.917,152.406,485.298,154.278,483.499,156.015z M429.642,138.159l32.583,6.808
	c-3.599,2.018-7.898,3.16-12.737,3.16C440.822,148.128,433.831,144.277,429.642,138.159z M558.766,165.206h-16.991v-3.616
	l16.991,3.55V165.206z M708.256,189.168L83.404,58.602l5.132-24.562l624.852,130.566L708.256,189.168z"/>
<path fill="#FFFFFF" d="M796.792,223.208H0V0h796.792V223.208z M10,213.208h776.792V10H10V213.208z"/>
<g>
</g>
<g>
</g>
<g>
</g>
<g>
</g>
<g>
</g>
<g>
</g>
</svg>
