<?xml version="1.0" encoding="iso-8859-1"?>
<!-- Generator: Adobe Illustrator 25.0.1, SVG Export Plug-In . SVG Version: 6.00 Build 0)  -->
<svg version="1.1" id="Layer_1" xmlns="http://www.w3.org/2000/svg" xmlns:xlink="http://www.w3.org/1999/xlink" x="0px" y="0px"
	 width="781.34px" height="199.29px" viewBox="0 0 781.34 199.29" enable-background="new 0 0 781.34 199.29" xml:space="preserve">
<rect x="-41.33" y="-335.355" display="none" width="864" height="864"/>
<path fill="#FFFFFF" d="M351.559,168.895H143.415c-0.503-2.873-1.053-5.924-1.172-8.422c-1.837-20.664-2.526-36.736-2.526-96.43
	c11.021-0.919,20.434-1.378,27.551-1.609c14.235,0,26.174,1.148,33.751,1.609h1.378c4.133,0,8.725-1.609,8.725-5.51
	c0-6.658-14.465-10.793-27.551-13.548c-5.511,6.658-8.266,6.889-43.853,10.103V32.817c0.171-3.759,0.568-6.429,1.069-8.422h229.869
	c-7.712,19.251-29.121,54.033-63.57,81.663l3.672,4.362c30.536-19.056,50.282-40.408,65.205-63.138
	c2.526,1.836,6.2,2.984,9.643,2.984c4.822,0,46.838-7.117,55.793-7.117c1.834,0,2.524,0.229,2.524,1.607
	c0,2.526-10.103,31.455-28.699,58.776c-12.628-5.969-33.98-13.317-55.562-16.53l-2.067,5.051
	c22.501,6.427,39.262,15.382,50.053,22.73C394.226,133.392,374.517,152.706,351.559,168.895z M646.503,24.395H388.932
	c-0.406,0.729-0.824,1.541-1.258,2.453c-1.838,3.674-3.674,7.576-6.2,11.249c2.296,0.46,4.822,0.69,6.888,0.69
	c7.807,0,36.277-1.838,50.052-3.903c5.051-0.69,5.51-0.919,7.579-2.755c1.607-1.607,4.82-4.133,6.196-4.133
	c4.593,0,18.827,13.317,18.827,16.53c0,2.755-2.293,3.445-5.51,4.822c-2.524,1.148-5.738,2.295-7.117,5.739
	c-6.886,15.842-19.744,40.869-29.616,54.873c12.168,7.348,25.254,17.678,25.254,27.552c0,4.82-3.672,7.806-8.034,7.806
	c-4.593,0-8.496-5.512-11.941-9.184c-3.903-4.364-10.103-8.955-14.465-12.629c-12.763,15.79-29.681,31.651-50.134,45.388h269.191
	c40.492-29.754,66.109-69.635,79.866-113.807c0.462-1.378,0.69-2.526,0.69-3.214c0-1.148-0.69-1.609-1.838-1.609
	c-8.951,0-50.508,8.725-56.708,8.725c-6.658,0-10.562-1.378-13.548-3.674c-13.544,20.204-31.912,41.557-57.628,56.711l-3.672-4.134
	C618.644,81.589,639.283,45.117,646.503,24.395z M82.09,159.095l1.836-3.215c9.184,3.445,25.715,8.955,32.833,11.48
	c2.755,0.919,4.821,1.148,7.117,1.148c0.919,0,2.066-0.229,2.526-3.903c0.459-5.51,0.459-12.858,0.459-19.056
	c0-19.287-0.689-43.853-0.919-64.976c-25.944,35.588-64.746,65.893-107.909,85.18l-3.214-4.362
	c36.735-20.664,77.144-59.237,98.267-94.823c-23.189,2.295-44.542,4.591-53.036,7.805c-4.363,1.378-6.888,3.215-11.71,3.215
	c-9.184,0-22.73-11.02-22.73-19.287c0-3.672,1.148-6.888,3.214-9.184l1.378,0.231c2.985,8.265,7.807,11.939,22.27,11.939
	c15.154,0,51.889-2.986,72.552-4.822c-0.401-14.989-0.774-25.133-1.324-32.071H0v144.5h99.49
	C93.139,165.353,86.384,161.672,82.09,159.095z M664.917,24.395c-3,7.172-7.641,15.345-12.301,22.887
	c10.334,0.919,46.608-2.984,60.614-5.051c4.593-0.688,6.427-2.295,8.034-4.133c1.838-2.065,3.445-3.903,5.282-3.903
	c4.593,0,19.975,11.48,19.975,15.384c0,2.755-2.755,3.443-5.969,5.051c-2.069,0.917-5.282,4.362-6.658,8.265
	c-14.797,41.36-38.231,78.397-77.747,106H781.34v-144.5H664.917z"/>
<path fill="#EC0C8D" d="M756.522,52.578c0,2.755-2.755,3.443-5.969,5.051c-2.069,0.917-5.282,4.362-6.658,8.265
	c-20.206,56.48-56.48,104.924-127.887,132.247l-3.214-4.593c61.762-30.305,98.268-79.439,115.715-135.46
	c0.462-1.378,0.69-2.526,0.69-3.214c0-1.148-0.69-1.609-1.838-1.609c-8.951,0-50.508,8.725-56.708,8.725
	c-6.658,0-10.562-1.378-13.548-3.674c-13.544,20.204-31.912,41.557-57.628,56.711l-3.672-4.134
	c41.557-33.29,63.597-82.884,63.597-96.2c0-7.117-10.331-7.805-12.858-7.805C648.152,2.986,651.827,0,658.713,0
	c9.186,0,26.406,9.415,26.406,15.384c0,2.755-2.755,3.445-5.051,5.51c-1.379,0.919-3.214,2.526-4.824,5.739
	c-2.983,7.348-7.803,15.842-12.627,23.649c10.334,0.919,46.608-2.984,60.614-5.051c4.593-0.688,6.427-2.295,8.034-4.133
	c1.838-2.065,3.445-3.903,5.282-3.903C741.14,37.195,756.522,48.675,756.522,52.578z M193.571,47.986
	c-5.511,6.658-8.266,6.889-43.853,10.103V35.817c0.689-15.153,5.051-12.627,5.051-19.285c0-8.955-15.154-15.613-27.093-15.613
	c-4.592,0-10.331,4.133-11.939,7.807l0.229,0.69c3.445-0.46,8.036,0.688,11.48,2.065c5.51,1.836,6.428,5.051,7.576,47.986
	c-20.664,1.836-57.399,4.822-72.552,4.822c-14.464,0-19.285-3.674-22.27-11.939l-1.378-0.231c-2.066,2.296-3.214,5.512-3.214,9.184
	c0,8.267,13.546,19.287,22.73,19.287c4.821,0,7.347-1.838,11.71-3.215c8.494-3.214,29.847-5.51,53.036-7.805
	c-21.122,35.586-61.531,74.158-98.267,94.823l3.214,4.362c43.163-19.287,81.966-49.592,107.909-85.18
	c0.23,21.123,0.919,45.689,0.919,64.976c0,6.198,0,13.546-0.459,19.056c-0.459,3.674-1.607,3.903-2.526,3.903
	c-2.296,0-4.362-0.229-7.117-1.148c-7.118-2.526-23.649-8.036-32.833-11.48l-1.836,3.215c9.183,5.51,29.617,16.072,33.291,19.515
	c3.214,2.755,7.117,5.512,7.806,8.496c0.689,2.755,2.755,9.184,7.118,9.184c7.807,0,14.005-12.399,14.005-20.435
	c0-3.672-1.837-10.562-2.066-15.382c-1.837-20.664-2.526-36.736-2.526-96.43c11.021-0.919,20.434-1.378,27.551-1.609
	c14.235,0,26.174,1.148,33.751,1.609h1.378c4.133,0,8.725-1.609,8.725-5.51C221.122,54.875,206.657,50.741,193.571,47.986z
	 M462.188,30.997c-1.376,0-4.589,2.526-6.196,4.133c-2.069,1.836-2.527,2.065-7.579,2.755c-13.775,2.065-42.245,3.903-50.052,3.903
	c-2.065,0-4.591-0.229-6.888-0.69c2.526-3.674,4.362-7.576,6.2-11.249c2.296-4.822,4.133-6.888,6.2-8.265
	c1.836-1.378,4.362-2.755,4.362-5.281c0-6.429-17.678-14.694-27.552-14.694c-5.969,0-9.184,1.836-10.562,6.427
	c3.445,0,13.777,1.609,13.777,7.348c0,11.249-22.73,58.318-66.812,93.675l3.672,4.362c30.536-19.056,50.282-40.408,65.205-63.138
	c2.526,1.836,6.2,2.984,9.643,2.984c4.822,0,46.838-7.117,55.793-7.117c1.834,0,2.524,0.229,2.524,1.607
	c0,2.526-10.103,31.455-28.699,58.776c-12.628-5.969-33.98-13.317-55.562-16.53l-2.067,5.051
	c22.501,6.427,39.262,15.382,50.053,22.73c-20.204,28.011-54.644,57.628-92.987,75.765l3.445,4.593
	c44.312-16.301,79.21-44.082,101.48-71.634c4.362,3.674,10.562,8.265,14.465,12.629c3.445,3.672,7.348,9.184,11.941,9.184
	c4.362,0,8.034-2.986,8.034-7.807c0-9.874-13.086-20.204-25.254-27.552c9.872-14.004,22.73-39.031,29.616-54.873
	c1.379-3.445,4.593-4.591,7.117-5.739c3.217-1.378,5.51-2.067,5.51-4.822C481.015,44.313,466.781,30.997,462.188,30.997z"/>
<g>
</g>
<g>
</g>
<g>
</g>
<g>
</g>
<g>
</g>
<g>
</g>
</svg>
