<?xml version="1.0" encoding="iso-8859-1"?>
<!-- Generator: Adobe Illustrator 25.0.1, SVG Export Plug-In . SVG Version: 6.00 Build 0)  -->
<svg version="1.1" id="Layer_1" xmlns="http://www.w3.org/2000/svg" xmlns:xlink="http://www.w3.org/1999/xlink" x="0px" y="0px"
	 width="1080px" height="265.094px" viewBox="0 0 1080 265.094" enable-background="new 0 0 1080 265.094" xml:space="preserve">
<path display="none" fill="none" stroke="#000000" stroke-width="5" stroke-linecap="round" stroke-linejoin="round" stroke-miterlimit="10" d="
	M149.688-73.39"/>
<path fill="#E70D7A" d="M0,5.439h39.973v72.877h0.544L87.562,5.439h44.053l-56.018,77.5l59.01,85.659H90.554L40.517,89.466h-0.544
	v79.132H0V5.439z M150.099,5.439h39.973v163.159h-39.973V5.439z M245,40.79h-36.439V5.439h113.668V40.79h-36.982v127.808H245V40.79z
	 M376.067,120.739c0,9.517,7.614,17.132,16.86,17.132c10.062,0,16.316-5.711,16.316-14.142c0-12.236-16.044-15.771-29.368-20.394
	c-27.466-9.79-42.694-22.571-42.694-50.58C337.181,23.931,361.927,0,392.655,0c36.167,0,53.299,23.114,55.474,53.299h-37.526
	c0-9.246-5.711-16.86-16.86-16.86c-8.702,0-17.132,5.167-17.132,15.772c0,12.237,14.956,14.413,28.825,18.492
	c29.097,8.701,42.693,25.017,42.693,50.579c0,28.825-24.474,52.756-55.202,52.756c-35.623,0-55.746-23.931-55.746-53.299H376.067z
	 M475.047,5.439h39.702v102.246c0,21.755,10.334,29.37,24.202,29.37c15.228,0,24.745-7.615,24.745-29.37V5.439h39.975v108.23
	c0,38.614-28.825,60.369-64.72,60.369c-37.255,0-63.904-22.843-63.904-60.369V5.439z M629.767,5.439h42.151l63.359,96.808V5.439
	h39.702v163.159h-41.604l-63.633-97.08v97.08h-39.975V5.439z M801.077,5.439h107.957V40.79h-67.982v29.368h62.816v34.807h-62.816
	v29.368h70.974v34.264H801.077V5.439z M83.985,231.198l-28.214,3.026l4.948,27.191L48.984,262.6l-4.906-27.151l-31.321,3.436
	l-1.962-10.632l31.157-3.353l-1.84-10.794l-21.017,2.249l-1.922-10.712l20.936-2.168l-2.944-17.172l11.653-1.35l3.271,17.256
	l16.479-1.923l1.758,10.714l-16.397,1.758l1.922,10.794l28.131-3.066L83.985,231.198z M118.332,218.808l-10.304,5.029
	c-2.672-6.705-6.379-13.969-11.122-21.794l9.282-4.538C110.549,203.667,114.597,210.768,118.332,218.808z M163.882,195.665
	c-3.817,19.437-9.364,33.896-16.642,43.383c-7.278,9.486-18.277,16.411-32.997,20.771l-5.806-10.222
	c15.156-4.224,25.699-10.815,31.628-19.77c5.929-8.954,10.297-21.418,13.104-37.393L163.882,195.665z M138.368,213.452l-9.895,5.765
	c-2.59-6.434-6.475-13.752-11.653-21.958l9.036-4.497C131.225,200.285,135.396,207.183,138.368,213.452z M235.888,210.426
	c-3.08,4.471-7.878,9.404-14.393,14.801v37.29h-11.449v-29.072c-8.042,5.098-16.288,9.201-24.738,12.308l-5.847-9.977
	c18.564-7.441,32.329-15.892,41.298-25.351h-33.488v-10.714h22.694v-14.146h11.449v14.146h14.475V210.426z M252.897,235.124
	l-6.419,10.385c-6.706-4.879-14.475-9.88-23.307-15.006l6.215-8.423C237.373,225.951,245.211,230.298,252.897,235.124z
	 M276.817,221.098c0,20.58-2.808,35.247-8.423,43.996c-2.944-2.779-6.106-5.424-9.486-7.931c4.743-8.287,7.033-20.799,6.869-37.537
	v-26.986h31.77c-0.818-1.989-1.65-3.926-2.494-5.807l13.329-3.107c1.2,2.862,2.398,5.833,3.598,8.914h27.56v10.059h-62.724V221.098z
	 M298.897,203.924h11.286v6.788h27.886v9.814h-27.886v7.441h24.37v36.147h-11.04v-5.152h-30.83v5.152h-11.04v-36.147h17.255V203.924
	z M323.512,237.78h-30.83v11.367h30.83V237.78z M1060.542,47.177h-19.458l9.729-23.588L1060.542,0l9.729,23.588L1080,47.177
	H1060.542z M989.157,47.177l-9.729-23.588L969.7,0l-9.729,23.588l-9.729,23.588H969.7H989.157z M1018.179,168.599l29.382-55.489
	l1.35-2.55l-3.057-4.542l-16.961-25.2l30.147,3.727l3.422,0.423L1080,51.846h-61.821V168.599z M1012.063,51.846h-61.821
	l17.446,32.947l2.012-0.249l30.147-3.727l-16.961,25.2l-2.216,3.293l2.012,3.799l29.382,55.489V51.846z"/>
<g>
</g>
<g>
</g>
<g>
</g>
<g>
</g>
<g>
</g>
<g>
</g>
</svg>
