<?xml version="1.0" encoding="iso-8859-1"?>
<!-- Generator: Adobe Illustrator 25.0.1, SVG Export Plug-In . SVG Version: 6.00 Build 0)  -->
<svg version="1.1" id="Layer_1" xmlns="http://www.w3.org/2000/svg" xmlns:xlink="http://www.w3.org/1999/xlink" x="0px" y="0px"
	 width="204.023px" height="265.094px" viewBox="0 0 204.023 265.094" enable-background="new 0 0 204.023 265.094"
	 xml:space="preserve">
<path display="none" fill="none" stroke="#000000" stroke-width="5" stroke-linecap="round" stroke-linejoin="round" stroke-miterlimit="10" d="
	M-288.301-73.39"/>
<path fill="#E70D7A" d="M173.43,74.178h-30.594l15.297-37.089L173.43,0l15.297,37.089l15.297,37.089H173.43z M61.188,74.178
	L45.891,37.089L30.594,0L15.297,37.089L0,74.178h30.594H61.188z M106.82,265.094l46.198-87.247l2.123-4.009l-4.806-7.141
	l-26.668-39.624l47.401,5.86l5.38,0.665l27.576-52.079H106.82V265.094z M97.204,81.52H0l27.431,51.804l3.163-0.391l47.401-5.86
	l-26.668,39.624l-3.484,5.177l3.163,5.974l46.198,87.247V81.52z"/>
<g>
</g>
<g>
</g>
<g>
</g>
<g>
</g>
<g>
</g>
<g>
</g>
</svg>
