<?xml version="1.0" encoding="utf-8"?>
<!-- Generator: Adobe Illustrator 25.0.1, SVG Export Plug-In . SVG Version: 6.00 Build 0)  -->
<svg version="1.1" id="Layer_1" xmlns="http://www.w3.org/2000/svg" xmlns:xlink="http://www.w3.org/1999/xlink" x="0px" y="0px"
	 width="1080px" height="1080px" viewBox="0 0 1080 1080" style="enable-background:new 0 0 1080 1080;" xml:space="preserve">
<style type="text/css">
	.st0{fill:#E6127B;}
</style>
<path class="st0" d="M173.4,74.2h-30.6l15.3-37.1L173.4,0l15.3,37.1L204,74.2H173.4z M61.2,74.2L45.9,37.1L30.6,0L15.3,37.1L0,74.2
	h30.6H61.2z M106.8,265.1l46.2-87.2l2.1-4l-4.8-7.1l-26.7-39.6l47.4,5.9l5.4,0.7L204,81.5h-97.2V265.1z M97.2,81.5H0l27.4,51.8
	l3.2-0.4l47.4-5.9l-26.7,39.6l-3.5,5.2l3.2,6l46.2,87.2C97.2,265.1,97.2,81.5,97.2,81.5z"/>
<g>
	<path class="st0" d="M471.8,15.7l9.8,23.6l11.9,28.8h-21.6h-21.6L462,39.4L471.8,15.7 M328.9,15.7l9.8,23.6l11.9,28.8h-21.6h-21.6
		l11.9-28.8L328.9,15.7 M492.4,87.5l-21,39.6l-1.3-0.2l-47.4-5.9l-11.6-1.4V87.5H492.4 M389.5,87.5v153.4L354.6,175l-1.5-2.8
		l1.5-2.2l26.7-39.6l7.3-10.9l-13.1,1.6l-46.5,5.7l-20.8-39.3H389.5 M411.2,121.7l5.9,8.7l26.7,39.6l2.8,4.2L446,175l-34.9,65.9
		V121.7 M471.8,0l-15.3,37.1l-15.3,37.1h30.6h30.6l-15.3-37.1L471.8,0L471.8,0z M328.9,0l-15.3,37.1l-15.3,37.1h30.6h30.6
		l-15.3-37.1L328.9,0L328.9,0z M502.4,81.5h-97.2v183.6l46.2-87.2l2.1-4l-4.8-7.1L422,127.1l47.4,5.9l5.4,0.7L502.4,81.5L502.4,81.5
		z M395.5,81.5h-97.2l27.4,51.8l3.2-0.4l47.4-5.9l-26.7,39.6l-3.5,5.2l3.2,6l46.2,87.2V81.5L395.5,81.5z"/>
</g>
<path class="st0" d="M770.1,74.2h-30.6l15.3-37.1L770.1,0l15.3,37.1l15.3,37.1H770.1z M657.9,74.2l-15.3-37.1L627.3,0L612,37.1
	l-15.3,37.1h30.6H657.9z M703.5,265.1l46.2-87.2l2.1-4l-4.8-7.1l-26.7-39.6l47.4,5.9l5.4,0.7l27.6-52.1h-97.2V265.1z M693.9,81.5
	h-97.2l27.4,51.8l3.2-0.4l47.4-5.9L648,166.7l-3.5,5.2l3.2,6l46.2,87.2C693.9,265.1,693.9,81.5,693.9,81.5z"/>
<g>
	<path class="st0" d="M1049.4,13.4l9.8,23.6l11.9,28.8h-21.6h-21.6l11.9-28.8L1049.4,13.4 M906.6,13.4l9.8,23.6l11.9,28.8h-21.6
		h-21.6L896.8,37L906.6,13.4 M1070,85.1l-21,39.6l-1.3-0.2l-47.4-5.9l-11.6-1.4V85.1H1070 M967.2,85.1v153.4l-34.9-65.9l-1.5-2.8
		l1.5-2.2l26.7-39.6l7.3-10.9l-13.1,1.6l-46.5,5.7l-20.8-39.3H967.2 M988.8,119.3l5.9,8.7l26.7,39.6l2.8,4.2l-0.4,0.8l-34.9,65.9
		V119.3 M1049.4-2.4l-15.3,37.1l-15.3,37.1h30.6h30.6l-15.3-37.1L1049.4-2.4L1049.4-2.4z M906.6-2.4l-15.3,37.1L876,71.8h30.6h30.6
		l-15.3-37.1L906.6-2.4L906.6-2.4z M1080,79.1h-97.2v183.6l46.2-87.2l2.1-4l-4.8-7.1l-26.7-39.6l47.4,5.9l5.4,0.7L1080,79.1
		L1080,79.1z M973.2,79.1H876l27.4,51.8l3.2-0.4l47.4-5.9l-26.7,39.6l-3.5,5.2l3.2,6l46.2,87.2V79.1L973.2,79.1z"/>
</g>
<path class="st0" d="M471.8,339.3h-30.6l15.3-37.1l15.3-37.1l15.3,37.1l15.3,37.1H471.8z M359.5,339.3l-15.3-37.1l-15.3-37.1
	l-15.3,37.1l-15.3,37.1h30.6H359.5z M405.2,530.2l46.2-87.2l2.1-4l-4.8-7.1L422,392.2l47.4,5.9l5.4,0.7l27.6-52.1h-97.2V530.2z
	 M395.5,346.6h-97.2l27.4,51.8l3.2-0.4l47.4-5.9l-26.7,39.6l-3.5,5.2l3.2,6l46.2,87.2C395.5,530.2,395.5,346.6,395.5,346.6z"/>
<path class="st0" d="M1049.4,349.1h-30.6l15.3-37.1l15.3-37.1l15.3,37.1l15.3,37.1H1049.4z M937.2,349.1L921.9,312l-15.3-37.1
	L891.3,312L876,349.1h30.6H937.2z M982.8,540l46.2-87.2l2.1-4l-4.8-7.1L999.6,402l47.4,5.9l5.4,0.7l27.6-52.1h-97.2V540z
	 M973.2,356.4H876l27.4,51.8l3.2-0.4L954,402l-26.7,39.6l-3.5,5.2l3.2,6l46.2,87.2C973.2,540,973.2,356.4,973.2,356.4z"/>
<g>
	<path class="st0" d="M754.5,280.8l9.8,23.6l11.9,28.8h-21.6h-21.6l11.9-28.8L754.5,280.8 M611.7,280.8l9.8,23.6l11.9,28.8h-21.6
		h-21.6l11.9-28.8L611.7,280.8 M775.2,352.6l-21,39.6l-1.3-0.2l-47.4-5.9l-11.6-1.4v-32.2H775.2 M672.3,352.6V506l-34.9-65.9
		l-1.5-2.8l1.5-2.2l26.7-39.6l7.3-10.9l-13.1,1.6l-46.5,5.7l-20.8-39.3H672.3 M693.9,386.8l5.9,8.7l26.7,39.6l2.8,4.2l-0.4,0.8
		L693.9,506V386.8 M754.5,265.1l-15.3,37.1l-15.3,37.1h30.6h30.6l-15.3-37.1L754.5,265.1L754.5,265.1z M611.7,265.1l-15.3,37.1
		l-15.3,37.1h30.6h30.6L627,302.2L611.7,265.1L611.7,265.1z M785.1,346.6h-97.2v183.6l46.2-87.2l2.1-4l-4.8-7.1l-26.7-39.6l47.4,5.9
		l5.4,0.7L785.1,346.6L785.1,346.6z M678.3,346.6h-97.2l27.4,51.8l3.2-0.4l47.4-5.9l-26.7,39.6L629,437l3.2,6l46.2,87.2V346.6
		L678.3,346.6z"/>
</g>
<g>
	<path class="st0" d="M173.4,290.6l9.8,23.6l11.9,28.8h-21.6h-21.6l11.9-28.8L173.4,290.6 M30.6,290.6l9.8,23.6l11.9,28.8H30.6H9
		l11.9-28.8L30.6,290.6 M194.1,362.4l-21,39.6l-1.3-0.2l-47.4-5.9l-11.6-1.4v-32.2H194.1 M91.2,362.4v153.4l-34.9-65.9l-1.5-2.8
		l1.5-2.2L83,405.3l7.3-10.9L77.3,396l-46.5,5.7L10,362.4H91.2 M112.8,396.6l5.9,8.7l26.7,39.6l2.8,4.2l-0.4,0.8l-34.9,65.9V396.6
		 M173.4,274.9L158.1,312l-15.3,37.1h30.6H204L188.7,312L173.4,274.9L173.4,274.9z M30.6,274.9L15.3,312L0,349.1h30.6h30.6L45.9,312
		L30.6,274.9L30.6,274.9z M204,356.4h-97.2V540l46.2-87.2l2.1-4l-4.8-7.1L123.7,402l47.4,5.9l5.4,0.7L204,356.4L204,356.4z
		 M97.2,356.4H0l27.4,51.8l3.2-0.4L78,402l-26.7,39.6l-3.5,5.2l3.2,6L97.2,540V356.4L97.2,356.4z"/>
</g>
<path class="st0" d="M173.4,612.8h-30.6l15.3-37.1l15.3-37.1l15.3,37.1l15.3,37.1H173.4z M61.2,612.8l-15.3-37.1l-15.3-37.1
	l-15.3,37.1L0,612.8h30.6H61.2z M106.8,803.7l46.2-87.2l2.1-4l-4.8-7.1l-26.7-39.6l47.4,5.9l5.4,0.7l27.6-52.1h-97.2V803.7z
	 M97.2,620.1H0l27.4,51.8l3.2-0.4l47.4-5.9l-26.7,39.6l-3.5,5.2l3.2,6l46.2,87.2C97.2,803.7,97.2,620.1,97.2,620.1z"/>
<g>
	<path class="st0" d="M471.8,554.3l9.8,23.6l11.9,28.8h-21.6h-21.6L462,578L471.8,554.3 M328.9,554.3l9.8,23.6l11.9,28.8h-21.6
		h-21.6l11.9-28.8L328.9,554.3 M492.4,626.1l-21,39.6l-1.3-0.2l-47.4-5.9l-11.6-1.4v-32.2H492.4 M389.5,626.1
		c0,23.6,0,110.6,0,153.4l-34.9-65.9l-1.5-2.8l1.5-2.2l26.7-39.6l7.3-10.9l-13.1,1.6l-46.5,5.7l-20.8-39.3H389.5 M411.2,660.3
		l5.9,8.7l26.7,39.6l2.8,4.2l-0.4,0.8l-34.9,65.9V660.3 M471.8,538.6l-15.3,37.1l-15.3,37.1h30.6h30.6l-15.3-37.1L471.8,538.6
		L471.8,538.6z M328.9,538.6l-15.3,37.1l-15.3,37.1h30.6h30.6l-15.3-37.1L328.9,538.6L328.9,538.6z M502.4,620.1h-97.2v183.6
		l46.2-87.2l2.1-4l-4.8-7.1L422,665.7l47.4,5.9l5.4,0.7L502.4,620.1L502.4,620.1z M395.5,620.1h-97.2l27.4,51.8l3.2-0.4l47.4-5.9
		l-26.7,39.6l-3.5,5.2l3.2,6l46.2,87.2C395.5,803.7,395.5,620.1,395.5,620.1L395.5,620.1z"/>
</g>
<path class="st0" d="M770.1,612.8h-30.6l15.3-37.1l15.3-37.1l15.3,37.1l15.3,37.1H770.1z M657.9,612.8l-15.3-37.1l-15.3-37.1
	L612,575.7l-15.3,37.1h30.6H657.9z M703.5,803.7l46.2-87.2l2.1-4l-4.8-7.1l-26.7-39.6l47.4,5.9l5.4,0.7l27.6-52.1h-97.2V803.7z
	 M693.9,620.1h-97.2l27.4,51.8l3.2-0.4l47.4-5.9L648,705.3l-3.5,5.2l3.2,6l46.2,87.2C693.9,803.7,693.9,620.1,693.9,620.1z"/>
<g>
	<path class="st0" d="M1049.4,552l9.8,23.6l11.9,28.8h-21.6h-21.6l11.9-28.8L1049.4,552 M906.6,552l9.8,23.6l11.9,28.8h-21.6h-21.6
		l11.9-28.8L906.6,552 M1070,623.7l-21,39.6l-1.3-0.2l-47.4-5.9l-11.6-1.4v-32.2H1070 M967.2,623.7c0,23.6,0,110.6,0,153.4
		l-34.9-65.9l-1.5-2.8l1.5-2.2l26.7-39.6l7.3-10.9l-13.1,1.6l-46.5,5.7l-20.8-39.3H967.2 M988.8,657.9l5.9,8.7l26.7,39.6l2.8,4.2
		l-0.4,0.8l-34.9,65.9V657.9 M1049.4,536.2l-15.3,37.1l-15.3,37.1h30.6h30.6l-15.3-37.1L1049.4,536.2L1049.4,536.2z M906.6,536.2
		l-15.3,37.1L876,610.4h30.6h30.6l-15.3-37.1L906.6,536.2L906.6,536.2z M1080,617.7h-97.2v183.6l46.2-87.2l2.1-4l-4.8-7.1
		l-26.7-39.6l47.4,5.9l5.4,0.7L1080,617.7L1080,617.7z M973.2,617.7H876l27.4,51.8l3.2-0.4l47.4-5.9l-26.7,39.6l-3.5,5.2l3.2,6
		l46.2,87.2C973.2,801.3,973.2,617.7,973.2,617.7L973.2,617.7z"/>
</g>
<path class="st0" d="M471.8,877.9h-30.6l15.3-37.1l15.3-37.1l15.3,37.1l15.3,37.1H471.8z M359.5,877.9l-15.3-37.1l-15.3-37.1
	l-15.3,37.1l-15.3,37.1h30.6H359.5z M405.2,1068.8l46.2-87.2l2.1-4l-4.8-7.1L422,930.8l47.4,5.9l5.4,0.7l27.6-52.1h-97.2V1068.8z
	 M395.5,885.2h-97.2l27.4,51.8l3.2-0.4l47.4-5.9l-26.7,39.6l-3.5,5.2l3.2,6l46.2,87.2C395.5,1068.8,395.5,885.2,395.5,885.2z"/>
<path class="st0" d="M1049.4,887.7h-30.6l15.3-37.1l15.3-37.1l15.3,37.1l15.3,37.1H1049.4z M937.2,887.7l-15.3-37.1l-15.3-37.1
	l-15.3,37.1L876,887.7h30.6H937.2z M982.8,1078.6l46.2-87.2l2.1-4l-4.8-7.1l-26.7-39.6l47.4,5.9l5.4,0.7L1080,895h-97.2V1078.6z
	 M973.2,895H876l27.4,51.8l3.2-0.4l47.4-5.9l-26.7,39.6l-3.5,5.2l3.2,6l46.2,87.2C973.2,1078.6,973.2,895,973.2,895z"/>
<g>
	<path class="st0" d="M754.5,819.4l9.8,23.6l11.9,28.8h-21.6h-21.6l11.9-28.8L754.5,819.4 M611.7,819.4l9.8,23.6l11.9,28.8h-21.6
		h-21.6l11.9-28.8L611.7,819.4 M775.2,891.2l-21,39.6l-1.3-0.2l-47.4-5.9l-11.6-1.4v-32.2H775.2 M672.3,891.2v153.4l-34.9-65.9
		l-1.5-2.8l1.5-2.2l26.7-39.6l7.3-10.9l-13.1,1.6l-46.5,5.7l-20.8-39.3H672.3 M693.9,925.4l5.9,8.7l26.7,39.6l2.8,4.2l-0.4,0.8
		l-34.9,65.9V925.4 M754.5,803.7l-15.3,37.1l-15.3,37.1h30.6h30.6l-15.3-37.1L754.5,803.7L754.5,803.7z M611.7,803.7l-15.3,37.1
		l-15.3,37.1h30.6h30.6L627,840.8L611.7,803.7L611.7,803.7z M785.1,885.2h-97.2v183.6l46.2-87.2l2.1-4l-4.8-7.1l-26.7-39.6l47.4,5.9
		l5.4,0.7L785.1,885.2L785.1,885.2z M678.3,885.2h-97.2l27.4,51.8l3.2-0.4l47.4-5.9l-26.7,39.6l-3.5,5.2l3.2,6l46.2,87.2V885.2
		L678.3,885.2z"/>
</g>
<g>
	<path class="st0" d="M173.4,829.2l9.8,23.6l11.9,28.8h-21.6h-21.6l11.9-28.8L173.4,829.2 M30.6,829.2l9.8,23.6l11.9,28.8H30.6H9
		l11.9-28.8L30.6,829.2 M194.1,901l-21,39.6l-1.3-0.2l-47.4-5.9l-11.6-1.4V901H194.1 M91.2,901v153.4l-34.9-65.9l-1.5-2.8l1.5-2.2
		L83,943.9l7.3-10.9l-13.1,1.6l-46.5,5.7L10,901H91.2 M112.8,935.2l5.9,8.7l26.7,39.6l2.8,4.2l-0.4,0.8l-34.9,65.9V935.2
		 M173.4,813.5l-15.3,37.1l-15.3,37.1h30.6H204l-15.3-37.1L173.4,813.5L173.4,813.5z M30.6,813.5l-15.3,37.1L0,887.7h30.6h30.6
		l-15.3-37.1L30.6,813.5L30.6,813.5z M204,895h-97.2v183.6l46.2-87.2l2.1-4l-4.8-7.1l-26.7-39.6l47.4,5.9l5.4,0.7L204,895L204,895z
		 M97.2,895H0l27.4,51.8l3.2-0.4l47.4-5.9l-26.7,39.6l-3.5,5.2l3.2,6l46.2,87.2V895L97.2,895z"/>
</g>
</svg>
