<?xml version="1.0" encoding="iso-8859-1"?>
<!-- Generator: Adobe Illustrator 25.0.1, SVG Export Plug-In . SVG Version: 6.00 Build 0)  -->
<svg version="1.1" xmlns="http://www.w3.org/2000/svg" xmlns:xlink="http://www.w3.org/1999/xlink" x="0px" y="0px" width="1080px"
	 height="1080px" viewBox="0 0 1080 1080" enable-background="new 0 0 1080 1080" xml:space="preserve">
<g id="Layer_2" display="none">
	<rect y="-0.843" display="inline" fill="#585152" width="1080" height="1080.843"/>
	<path display="inline" fill="#B03BAF" d="M557.188,134.693c0,0,24.644,13.782,36.441,38.02c0,0,14.411-7.129,16.787,1.188
		c0,0,24.238-7.604,45.624,0c0,0,10.609,0.602,4.354,9.925c-6.255,9.323,0,0,0,0s-9.798,24.055-13.135,26.669
		c0,0-1.172,18.832-3.324,21.535c-2.152,2.703,0,0,0,0s-51.815-61.453-98.389-70.959c-46.574-9.506,0,0,0,0
		s7.604-13.071,7.129-15.685C552.673,145.386,553.386,134.931,557.188,134.693z"/>
</g>
<g id="Layer_1">
	
		<image display="none" overflow="visible" width="2583" height="2500" xlink:href="../../../../Pictures/Saved Pictures/Anime/Mano.Aloe.full.3034099.png"  transform="matrix(0.4181 0 0 0.4181 0 34.7038)">
	</image>
	<polygon fill="#FFF7E6" points="464.04,243.762 484,223.089 513.584,252.673 461.545,266.931 	"/>
	<path fill="#FFF7E6" d="M545.069,526.059c0,0-75.564-18.535-86.02-32.317l-27.564-38.97l-28.04-3.802h-25.663
		c0,0-28.04-22.812-57.505-26.614c0,0-33.267-12.832-48-36.594c0,0,62.733-7.604,74.614-14.257c0,0,12.356-4.277,20.436-2.376
		l67.485-111.683l171.089-11.881l74.139,151.129c0,0,23.287,21.386,32.317,24.713c0,0-25.188,19.96-54.178,27.089l-9.98,5.228
		l-19.485,9.505l-20.436,27.089C608.277,492.317,551.247,523.208,545.069,526.059z"/>
	<path fill="#FFF7E6" d="M333.087,825.973c0,0-38.747-92.004-38.268-190.717c0,0,14.351-68.524,71.753-57.023L702.376,762.72v36.418
		l-124.85,138.485l-148.29-24.439l-67.448-93.921L333.087,825.973z"/>
	<path fill="#ECEAEC" d="M485.111,704.99c0,0-10.735,4.634-7.527,21.386c0,0,50.257,69.861,57.386,74.495
		c0,0,47.406-5.346,58.455-2.495c0,0,27.446-3.208,37.782-11.049l6.416,1.782c0,0,6.416-11.049,6.772-16.396l14.257-8.911
		l15.683,1.782l-3.564-13.843c0,0,15.683-2.437,19.96,0l72.713-46.751l19.247,11.762l7.485,4.634c0,0,7.842-30.653-10.337-42.772
		c0,0-36.713-34.574-80.555-31.366l-63.089-12.475l-4.99-6.059L540,557.352l-5.386,1.5c0,0-9.98-4.99-11.762,0l-8.911,12.475
		l-1.316,2.659c0,0,28.227,40.47,6.039,82.173c0,0-15.01,28.674-31.431,33.228L485.111,704.99z"/>
	<path fill="#FFF5E4" d="M581.663,557.352l3.327,53.302l39.921,18.059l36.119,72.713l16.158,12.356l56.079,86.97l30.423,25.603
		l17.577,14.793h57.505l13.782-62.257l-34.693-57.03l-72.238-48.475l-28.515-28.04l-18.059-13.307l-8.079-36.594l-1.901-40.396
		l1.901-19.01c0,0,5.228-4.753-14.733-13.307l-14.733-39.446l-0.475-13.782l-12.832-13.782l-7.129-7.604
		c0,0-8.079-9.03-12.832-19.01c0,0-6.653-2.852-6.178,8.079c0,0,0.475,22.337,18.535,39.446l-22.337,23.762l-42.772,9.505
		l-19.01,35.168l16.158,17.109L581.663,557.352z"/>
	<path fill="#FC71BE" d="M324.079,379.003v-6.213c0,0-12.356,3.345-18.535,0c0,0,14.733,0,18.535-3.823
		c0,0,9.98-95.107,58.455-142.421s63.208-55.439,106.455-58.307h19.96c0,0,1.426-9.081,36.594-7.169
		c0,0,50.376,8.125,107.406,82.203c0,0,35.168,50.182,39.446,104.665c0,0,5.703,36.322,35.168,47.792l2.911,1.016
		c0,0-8.911,1.792-16.752-1.434c0,0,8.198,6.452,18.535,5.914c0,0-9.446,6.273-21.564,1.075c0,0,27.446,15.951,45.624,0.358
		c0,0-5.881,9.499-16.396,12.904c0,0-14.614,11.649-48.832-6.094l-0.891,2.509l-10.693,25.808c0,0,4.99-30.109,3.03-32.618
		s-2.317-1.075-2.317-1.075s-13.545,53.766-22.99,61.652c0,0,10.337-29.93,10.693-37.816c0,0-21.386,22.044-24.594,24.374
		l-18,14.696c0,0-36,8.603-39.386,8.423c0,0,21.386-3.405,35.465-26.525s23.881-51.436,23.881-58.426l-4.455-23.478
		c0,0-22.812-41.938-26.911-63.982l-12.119-36.382c0,0-0.713,39.07-5.168,54.662c0,0-1.604,25.808,2.852,34.948
		c0,0-15.683-11.649-28.337-51.257c0,0-0.713,34.59-2.495,42.834c0,0,1.069,12.187,4.277,16.309c0,0-8.198-4.122-9.802-7.527
		c0,0,5.346,10.574,9.624,13.8c0,0-22.277-19.356-29.228-36.203c0,0,3.564,39.787,15.327,45.343c0,0-31.366-6.273-39.743-23.657
		c0,0,8.911,20.969,14.436,26.883c0,0-43.842-52.153-48.475-84.771c0,0-3.921-34.769,2.317-65.774c0,0-23.703,70.075-20.851,103.948
		c0,0-5.168-5.735-5.703-22.94c-0.535-17.205,0.356-13.979,0.356-13.979s-9.446,29.034-11.762,53.229
		c0,0-13.188-17.743-17.287-41.579c0,0,0.535,15.413,2.852,23.299c0,0-6.951-21.686-6.594-35.665c0,0-9.624,66.67,3.386,131.727
		c0,0,18,20.431,23.703,22.223l-20.673-9.319c0,0,21.743,51.974,44.02,55.021c0,0-3.208,3.943-14.97-3.405
		c0,0-31.545-14.696-35.644-18.281c0,0,9.98,11.291,18.356,14.875c0,0-29.941-14.158-41.703-38.532
		c-11.762-24.374-18.356-41.758-19.96-51.257c0,0-4.99,24.195,1.782,57.351c6.772,33.156,16.396,48.569,23.168,52.153
		c0,0-11.049-4.122-18.713-22.403c-7.663-18.281-24.238-57.171-21.564-85.668l-1.426-31.005c0,0-13.01-0.358-17.109,0.538
		C351.049,372.551,330.792,380.975,324.079,379.003z"/>
	<path fill="#EFE9AD" d="M318.739,423.483c0,0,33.346,4.794,59.814,27.487h25.752l26.074,29.751c0,0,7.189,22.17,3.613,42.131
		c0,0-31.475-6.416-41.49,4.634l-16.334,29.867c0,0-3.219,15.638,12.28,32.391c0,0-14.784-10.574-33.621-10.693
		c0,0-25.276,2.614-33.86,16.871c0,0-21.222,23.406-20.864,32.436c0,0-2.504,14.97-2.146,23.525c0,0,3.338,60.951,9.955,83.762
		s22.355,84.297,27.72,91.069c0,0-0.536,4.634,2.683,4.634c0,0,25.037,49.723,30.044,55.247c0,0,34.873,49.723,41.132,55.604
		c0,0-41.669,100.951-35.052,137.802h-7.984c0,0-5.072-27.842-4.714-32.297c0,0-2.504,22.891-1.967,32.297
		c0,0-5.186-41.564,0.894-74.535c6.08-32.97,16.095-88.752,22.891-94.99l-2.325-3.386c0,0-34.873,31.723-35.946,39.564
		c-1.073,7.842-29.15,61.663-31.475,91.782c0,0,1.61,29.663,5.186,41.564h-25.037c0,0-22.533-61.347-21.997-81.485
		c0,0-23.785,65.941-21.282,80.733c0,0-0.417-45.861,2.206-56.317l-10.492,11.644l-2.623-68.911c0,0-56.035,47.287-80.596,51.564
		l67.481-100.277c0,0,38.39-62.97,38.39-76.515l-37.675-7.842l-37.675,45.861c0,0,11.446-27.564,20.507-40.396
		c0,0-48.643,14.733-54.605,14.97l58.181-38.97l-34.337,3.327l47.451-67.723c0,0,47.213-63.446,51.266-75.802
		s26.945-46.812,41.252-112.871L318.739,423.483z"/>
	<path fill="#FC71BE" d="M327.385,424.356c0,0-34.015,258.257-156.083,317.348c0,0-153.491,67.045-138.988-153.409
		c0,0-26.105,12.5-0.967,145.455c0,0,9.427,93.182,124.243,75c0,0-132.562,109.091-135.171,137.5c0,0-28.814,41.25,0,87.5
		c0,0,23.98,0,42.109-21.591c0,0-44.718,17.045-39.884-40.909c0,0,27.798-71.591,87.019-98.864c0,0,31.423-18.182,39.884-19.318
		s103.939-53.409,103.939-53.409l-61.638,13.636c0,0,94.703-42.045,119.867-97.727l-4.675-25.905c0,0-61.792,52.752-72.406,57.743
		c0,0,59.517-83.049,67.099-114.059c7.582-31.01,50.798-136.515,46.249-161.465l-8.08-45.048L327.385,424.356z"/>
	<path fill="#FC71BE" d="M316.119,770.574c0,0-37.426,37.426-53.822,44.198c0,0-31.723,17.465-34.574,17.109
		c0,0-29.228,26.733-36.356,42.772c0,0-26.733,38.852-9.98,90.891c0,0,36,44.911,47.049,47.049c0,0-46.337-22.099-8.911-110.852
		c0,0,57.743-91.604,101.228-115.485L316.119,770.574z"/>
	<path fill="#FC71BE" d="M109.03,1080c0,0-6.416-47.802,24.95-70.614c0,0,70.218-69.148,77.347-71.644
		c0,0,42.059-48.119,43.485-60.594c0,0,4.99,56.673,1.426,80.198c0,0,28.871-72.356,33.149-74.852c0,0-13.188,105.005-45.98,151.255
		c0,0-47.05,44.151-54.535,46.25h-20.317c0,0,31.366-20.356,62.376-92.356c0,0,16.04-41.346,15.327-55.247
		c-0.713-13.901,2.053,0.356,2.053,0.356l-9.538,11.406c0,0-7.129,21.782-29.584,34.416c0,0-12.832,14.772-19.248,16.911
		c0,0-29.941,16.752-29.228,21.03c0,0-33.861,23.881-33.861,28.515C126.851,1045.03,114.02,1059.366,109.03,1080z"/>
	<path fill="#FC71BE" d="M641.188,474.833l-12.475-13.81c0,0-16.634,23.749-20.436,29.427l-28.845,16.908
		c0,0,12.211,5.808,13.637,6.582l10.337-8.131c0,0,36.713-1.936,39.564-3.485l3.564,0.387L641.188,474.833z"/>
	<path fill="#FC71BE" d="M609.465,534.614c0,0-1.069,12.832-1.426,14.614s1.426,4.99,1.426,4.99l21.743-19.604L628,531.049
		L609.465,534.614z"/>
	<path fill="#FC71BE" d="M665.426,492.554c0,0,11.762,29.228,11.762,31.01c0,0,17.822,7.485,13.901,11.762
		c0,0,58.812,37.069,78.059,68.436c19.248,31.366,18.535,34.574,18.535,34.574s9.624,21.03,4.277,34.574
		c0,0,16.396-34.574,10.693-66.653c0,0-1.069-25.663-30.653-47.406c0,0,40.277,2.495,27.802-24.238c0,0,7.129,18.535-15.327,16.396
		c0,0-30.297-5.346-75.208-30.653L665.426,492.554z"/>
	<path fill="#FC71BE" d="M690.733,595.564c0,0,52.396,46.693,120.832,47.05c0,0,71.287,4.99,115.842,38.139
		c0,0,47.762-32.436,19.604-90.891c0,0,41.654,67.723,8.886,103.01c0,0,14.638-2.852,19.629,0c0,0-24.951,2.495-32.436,7.485
		c0,0,6.416,20.673,5.703,27.446l-18.178,7.842l-24.951-12.119c0,0-7.485-33.149-61.307-44.555c0,0-57.03-8.198-68.436-6.059
		c0,0-43.485-19.247-70.931-26.02l-14.257-12.832V595.564z"/>
	<path fill="#FC71BE" d="M791.96,672.911c0,0,78.602,38.991,100.252,29.476l12.739,7.237l-4.354,3.031c0,0-36.636,2.318-41.269,0
		c0,0,21.03,8.731,46.337,10.87l43.129,4.277l3.208,2.139c0,0,48.475,3.208,73.426,28.158c0,0,15.327,17.465,26.376,34.218
		c0,0,26.376,19.247,17.822-14.97c0,0,12.832,22.455-2.852,28.871c0,0-10.693,2.852-48.832-21.03c0,0-10.337-13.545-37.426-19.247
		l-42.059-9.98c0,0,39.564,18.535,53.465,26.733c0,0,44.198,31.01,48.832,45.98l-14.257,2.495l-4.634-9.98
		c0,0-28.158-33.861-134.376-55.247l-102.297-63.802l-16.04-39.386L791.96,672.911z"/>
	<path fill="#FC71BE" d="M785.188,702.139v16.273c0,0,30.416,14.622,47.941,35.848c0,0,17.525,25.943,9.921,62.262
		c0,0-2.852,12.735-13.782,17.452c0,0,182.574,2.83,250.733,88.205v-70.281l-39.248-24.174c0,0-46.099-18.278-50.851-19.221
		c0,0-95.049-32.782-102.416-43.041l-66.772-59.786L785.188,702.139z"/>
	<path fill="#FC71BE" d="M829.267,834.97"/>
	<path fill="#EFE9AD" d="M827.604,835.397c0,0,13.395-8.768,13.156-17.536c0,0,59.8,17.779,72.956,18.753
		c0,0,56.451,10.716,92.57,29.713s58.684,34.828,73.714,53.825v5.115c0,0-44.77-44.813-76.345-53.703
		c0,0-51.667-23.016-92.81-27.643c0,0-26.551-3.166-36.837-3.897C874.009,840.025,829.518,836.858,827.604,835.397z"/>
	<path fill="#EFE9AD" d="M850.489,838.169c0,0,51.254,47.89,105.076,67.851c0,0,36.713,17.822,75.921,3.564
		c0,0,8.198-2.852,3.921-7.842c0,0,10.693,9.624-16.04,23.525c0,0-47.01,3.208-65.564,0c0,0-70.594-9.624-73.802-10.337
		c0,0,28.871,14.257,48.832,20.673c0,0,42.416,11.762,45.624,11.049c0,0-37.426,8.555-37.782,10.337c0,0-65.941-5.703-87.683-17.822
		c0,0,23.881,18.535,21.743,37.069c0,0,2.852-16.396-28.158-36.713c0,0-14.257-12.832-24.238-14.257c0,0,27.446,31.01,31.723,52.396
		H844c0,0-3.208-6.416-16.396-7.129l-27.802-3.564l-30.654-54.535l-16.04-84.475l1.782-12.475c0,0,16.04,14.97,30.297,17.109
		s42.416,2.803,42.416,2.803L850.489,838.169z"/>
	<path fill="#F5C6B6" d="M430.891,546.733l22.455,10.619l56.673,25.381l8.911-18c0,0-2.376-23.973,12-42.373
		c0,0-61.545-16.736-71.881-28.617l-30.832-17.243l15.365,13.326l-14.153-9.104C429.429,480.721,439.802,494.693,430.891,546.733z"
		/>
	<path fill="#BBAACA" d="M441.762,549.465c0,0-28.456-6.609-31.337-6.795c-2.881-0.185-2.64,4.054-2.64,4.054l-0.627,10.255
		l1.99,3.535l7.842,6.416C416.99,566.931,428.901,550.535,441.762,549.465z"/>
	<path fill="#53455E" d="M408.413,560.466c0,0-6.75-0.188-6.75,1.772s-18.535-13.901-9.98-34.752c0,0,9.802-11.762,41.347-4.634
		l0.994,8.198l-36.281-2.614L408.413,560.466z"/>
	<path fill="#463E77" d="M408.792,559.386l-0.356-2.851c-2.139-13.366,1.069-13.901,1.069-13.901l22.277,0.891l2.242-12.475
		c-13.62-5.941-36.281-2.614-36.281-2.614c-7.959,11.393,2.531,24.426,10.67,32.03c4.253,3.974,7.864,6.465,7.864,6.465"/>
	<path fill="#53455E" d="M388.653,590.218h13.01v-27.98c0,0-16.752-17.109-9.98-34.752l-16.277,29.867
		C375.406,557.352,371.901,573.109,388.653,590.218z"/>
	<polygon fill="#463E77" points="520.328,546.009 551.723,554.218 543.007,559.705 540,557.352 518.663,554.218 	"/>
	<path fill="#836E8C" d="M447.647,550.034c0,0,27.799-17.559,63.086,21.293c0,0,30.119,37.782,7.931,84.832
		c0,0-15.819,27.176-23.97,29.941C486.541,688.864,447.647,550.034,447.647,550.034z"/>
	<path fill="#E9E6EC" d="M451.558,550.193l9.986-4.184l2.584,4.184l18.089,2.777l1.158,7.396l15.219,5.792l1.355,11.228
		l11.495,7.129l-3.475,14.525l10.693,9.98l-6.951,16.931l5.525,12.297l-11.495,14.347l2.139,15.327l-11.049,4.99l-2.139,13.188
		c0,0-7.442,5.36-24.751,2.392c-17.309-2.968,11.919-82.233,11.919-82.233L451.558,550.193z"/>
	<path fill="#E0C38D" d="M401.663,610.653v-4.04l-13.01-16.396l0.774-2.852h10.216l-0.713-18.535l2.733-6.594
		c0,0,1.38-1.702,6.75-1.772l8.577,6.465c0,0,10.455-16.277,28.634-16.871c18.178-0.594,31.01,7.604,40.277,24
		c9.267,16.396,16.752,48.951,10.693,66.535c-6.059,17.584-16.99,53.347-39.921,51.327
		C456.673,691.921,407.129,613.03,401.663,610.653z"/>
	<path fill="#13121E" d="M426.246,645.448c0,0-2.825-55.106,17.81-55.943c0,0,16.213,3.586,15.23,31.916
		c0,0-2.457,42.794-17.81,46.5L426.246,645.448z"/>
	<polygon fill="#E0C38D" points="396.554,571.327 396.554,584.277 388.119,584.277 387.049,572.04 	"/>
	<polygon fill="#BBAACA" points="431.967,547.219 431.782,543.525 411.199,542.701 426.703,549.317 	"/>
	<path fill="#836E8C" d="M614.731,648.944c0,0,12.081-12.865,12.081-26.647l-6.04-9.03c0,0-25.801-4.99-36.019-23.762l0.95-32.153
		l-0.95-5.867c0,0-11.881,3.802-14.495,2.733c0,0,5.941-12.221,7.604-11.516c0,0-15.821-4.668-30.96,10.256l-5.871,8.092
		l3.605,11.56l9.227,46.836L614.731,648.944z"/>
	<path fill="#D559A0" d="M634.178,665.069c0,0-11.572-3.446-14.578-2.317c0,0-1.343,13.01-3.006,13.96
		c0,0-48.845-42.489-55.195-46.67h26.676C588.075,630.043,632.515,660.554,634.178,665.069z"/>
	<path fill="#D559A0" d="M599.01,604.951c0,0-5.941-0.951-7.604-2.614c0,0-17.464-6.335-36.415-1.979v26.93
		c0,0,29.049,12.238,31.188,15.149c0,0,2.852-1.842,1.663-16.099C587.842,626.337,598.297,609.703,599.01,604.951z"/>
	<path fill="#423744" d="M478.475,726.02c0,0-5.525-17.822,7.842-21.564l30.297-25.129l11.406-0.713c0,0,23.703-1.248,47.05,8.554
		c0,0,54.178,14.792,68.614,52.218c0,0,7.842,16.04,1.069,32.079l10.693-1.604c0,0,10.158-26.198,0-38.673
		c0,0-16.753-32.257-27.089-36.713l-29.941-10.337c0,0-25.663-12.832-42.238-13.901c0,0,31.366-8.198,41.881-7.485l31.01-3.743
		c0,0,8.376-4.099,9.98-2.852c0,0-4.455-11.762-4.277-13.723h-13.366l-5.703,6.594l-36.535-3.208c0,0-49.901,8.911-51.327,10.515
		l-40.609,40.812v-8.405c0,0-12.457,1.782-17.29-0.253c0,0-7.804,4.262-13.269,3.43c0,0-2.257,5.228,1.307,10.04
		S470.277,719.069,478.475,726.02z"/>
	<path fill="#E3D6C0" d="M511.54,572.413c0,0,17.608-2.394,25.688,1.884c0,0,22.337-6.116,28.04-1.276
		c0,0,15.921,14.583,16.871,21.949c0,0,1.003,6.178-2.706,12.356l-5.848,8.781c0,0-1.901-0.94-1.188-5.217
		c0,0,0.713-18.121-6.654-17.258c0,0-3.802-4.128-12.356,1.338l3.327,11.168l1.251,2.614v7.355l3.263,6.902
		c0,0,1.315,20.436-3.263,22.812L556,640.594l-1.663,6.416h-2.376c0,0-20.343-14.02-25.142-15.208
		C526.819,631.802,528.862,593.104,511.54,572.413z"/>
	<path fill="#D559A0" d="M528.449,632.409c0,0-1.201,67.115,1.175,80.185l-22.574-20.591c0,0-18.214,25.344-21.939,26.294
		l2.122-29.553c0,0,22.048-1.338,39.586-56.942L528.449,632.409z"/>
	<polygon fill="#ECEAEC" points="540,557.352 518.663,554.218 518.663,567.881 	"/>
	<path fill="#EFE9AD" d="M530.931,522.36l14.139,3.699l34.363-18.178l13.637,6.059l1.069,1.069l-6.059,6.772
		c0,0-25.546,14.826-25.545,18.218L577,542.499c0,0-16.564-2.744-30.099,10.458l-26.573-6.948
		C520.328,546.009,522.257,533.096,530.931,522.36z"/>
	<path fill="#ECEAEC" d="M698.337,647.01c0,0,60.119-2.852,89.584,41.347c0,0,10.218,19.723,3.327,33.98l-35.406-18.225
		l-32.792-24.785l-20.911-25.949L698.337,647.01z"/>
	<path fill="#64576A" d="M650.099,675.049c0,0-12.594,21.624,5.941,21.386c0,0,9.505,4.515,9.386,5.703
		c0,0-0.594,17.347,6.535,21.148c0,0,2.376,1.663,12.832-2.376c0,0,0.475,4.04,2.376,5.228l-1.188,2.139l1.188,4.277
		c0,0-5.228,5.703,0,12.119c0,0,9.98,15.208,24.238,10.455c0,0,4.99,4.454,10.931,0.92c0,0,3.564,2.169,7.366-3.296
		c0,0,13.782,1.426,27.089-18.297l2.139-4.99c0,0,6.416,1.426,5.703-2.851c0,0,7.129-6.034,5.465-10.383
		c0,0-2.376-9.577-7.366-11.478l-4.752-0.475c0,0,9.98-4.277,2.139-15.921c0,0-0.951-5.228-8.555-3.327c0,0,0-6.416-18.059-1.901
		c0,0-3.327-5.465-5.465-4.515c0,0-3.327-22.812-13.782-27.802c0,0-11.406-0.096-12.119,2.566l4.04,8.365
		c0,0,4.752,3.564,6.178,7.129c0,0-9.743,3.089-9.505,6.178c0,0-0.713,3.327,6.416,7.129c0,0-0.364,7.842-1.132,9.98
		c0,0-9.561,1.901-17.402,0.475c0,0-6.891,6.653-2.614,9.505c0,0-3.802,11.406-5.465,12.594c0,0-4.752-9.599-7.604-10.621
		c0,0-14.733-13.854-16.871-19.795C658.178,684.317,653.901,677.663,650.099,675.049z"/>
	<path fill="#E0A476" d="M727.685,677.663c0,0,2.918,0.485,5.107,4.363c0,0-1.702,20.602-12.89,31.024
		c0,0-17.267,15.27-32.589,12.846c0,0-3.891-2.424-2.432-5.09c0,0,13.041,6.525,29.914-12.604
		C714.795,708.203,729.874,693.902,727.685,677.663z"/>
	<polygon fill="#FC71BE" points="690.733,625.386 693.772,636.795 698.337,646.059 704.99,646.891 	"/>
	<path fill="#423744" d="M348.317,854.91c0,0,53.225,83.785,91.605,128.84c0,0,6.614,17.438,9.844,19.577
		c0,0-40.468,49.188-41.184,62.733c0,0,7.164,10.693,10.029,13.901l390.053,0.04l2.507-42.099c0,0,16.243-1.328,1.495-69.278
		l-12.957-1.653l-30.803-54.535l-16.118-84.475l1.347-9.382c0,0,0.908-1.706-1.317-6.421c-1.536-3.255-4.565-7.944-10.417-14.495
		h-29.012l-23.281,12.119c0,0-72.352,88.753-125.362,96.238l-20.774,16.04c0,0-8.596,6.059-20.774,0c0,0-37.25-39.913-45.488-43.481
		l-27.944-24.374L348.317,854.91z"/>
	<path fill="#423744" d="M810.495,963.762c0,0-16.04-7.307-20.673-23.703c0,0,1.604-15.861-5.525-17.109l-12.832-10.515
		c0,0,4.764-51.565-18.648-100.278l-10.223,43.426l15.148,69.683l53.465,47.762L810.495,963.762z"/>
	<path fill="#ECEAEC" d="M393.442,796.25c0,0-49.551,18.88-60.808,30.463l27.47,50.436c0,0,39.778,10.011,91.455-22.944
		C451.558,854.205,402.556,808.75,393.442,796.25z"/>
	<path fill="#8847A1" d="M572.456,901.807L733.779,767.66l7.782,26.534c0,0,10.48,12.859,10.992,19.655v10.442l2.916,15.621
		l14.612,127.739l42.621,2.022c0,0,27.423,1.172,32.255,9.403c0,0,21.43,3.307,59.912-9.95c0,0,77.789-28.991,147.847-31.448
		c0,0,23.675-0.983,31.405,5.405l0.765,141.804H577.771l8.697-72.519l-9.663-73.216l-9.663-31.448L572.456,901.807z"/>
	<polygon fill="#8847A1" points="413.426,1070.218 421.505,1080 399.168,1080 	"/>
	<path fill="#E5BB85" d="M574.059,903.406c0,0,7.842,27.089,9.861,38.02l8.198-8.079l21.386,4.277l-13.782,16.158l-11.881-2.376
		c0,0,8.079,39.446,8.614,46.218l6.594-6.416l25.485,4.455l-17.644,16.752l-13.901-0.891c0,0-1.96,19.247-4.812,25.663
		l-3.386,15.327l7.842-6.772l24.594,6.772l-19.931,14.97l-13.753-3.386L585.228,1080h-11.168l11.703-65.089
		c0,0,2.852-8.634-0.891-23.208c0,0-14.436-81.406-19.96-85.505L574.059,903.406z"/>
	<path fill="#E5BB85" d="M752.04,810.673c0,0,7.842,13.901,9.089,25.307c0,0-2.317,132.95-1.426,141.861
		c0,0,38.495,48.653,41.347,53.109s0,0.891,0,0.891l8.198,6.416c0,0,3.386,4.277-1.426,5.347l-10.871-1.782l-15.728-21.386
		l-2.806,4.99l-14.792-4.99l7.485-14.079l-16.752-24.594l-0.535-14.257l-1.782,1.782l-14.436-7.842l13.545-13.366l1.96,2.139
		l1.782-18.891L754,925.267l-0.713-49.545l-1.96,3.921l-15.148-4.099l11.584-16.218l6.059,2.317
		C753.822,861.644,756.673,831.703,752.04,810.673z"/>
	<path fill="#0F071D" d="M689.485,831.168l-10.693,17.287l4.099,15.148l3.743,18.178l6.416,2.852v4.634l-5.347,10.693
		c0,0,7.307,45.98,10.515,50.97l13.366,16.396l-8.198,16.218l6.772,27.089l14.97,20.139l-5.881,9.98c0,0,4.812,25.663,5.881,30.297
		l-7.842,8.95c0,0-5.881-21.248-5.525-24.099l-16.396-15.861l6.594-22.099c0,0-4.99-20.139-4.277-22.634l-13.01-16.218l1.069-20.317
		c0,0-2.139-32.97-5.703-40.99l-16.931-12.119l10.158-36.713l-2.317-5.168l-2.852-11.941l-10.693-3.921l8.02-8.02l5.168,1.247
		l11.941-14.792C682.535,826.356,687.347,826.178,689.485,831.168z"/>
	<path fill="#E5BB85" d="M645.465,915.109c0,0,28.515-42.059,28.515-57.564c0,0,22.099,19.069,34.04,23.525
		c0,0-20.317,32.97-19.604,39.743C688.416,920.812,681.109,913.505,645.465,915.109z"/>
	<path fill="#E5BB85" d="M655.089,986.218c0,0,27.267-13.366,35.822-36.535c0,0,26.554,13.366,34.753,11.941l-21.743,34.396
		l-20.851-5.346L655.089,986.218z"/>
	<path fill="#E5BB85" d="M708.02,1010.634c0,0,26.733,15.861,31.545,16.574c0,0-21.743,24.951-22.099,28.337
		c0,0-25.842-6.95-28.515-6.594l-16.04-0.356l3.208-4.99C676.119,1043.604,705.881,1016.158,708.02,1010.634z"/>
	<path fill="#E5BB85" d="M717.287,1080l7.842-8.95c0,0,11.406,5.426,14.436,8.95H717.287z"/>
	<path fill="#8847A1" d="M719.225,778.975"/>
	<path fill="#FFF5E4" d="M769.148,800.073l-5.459,26.283c0,0-45.855-41.723-49.307-56.611
		c-3.452-14.888,53.578,10.844,53.578,10.844L769.148,800.073z"/>
	<path fill="#64576A" d="M692.99,787.446c0,0-1.345,11.214-3.168,13.924l28.635-23.413l-13.943-21.795c0,0-8.626-2.633-11.279-5.025
		c0,0-18.899-1.829-22.582,0.903l4.753,13.663l-18-1.426l-1.96,5.584c0,0,15.802-1.663,16.158,1.604c0,0-5.584,4.812,0.238,6.713
		C671.842,778.178,692.158,785.545,692.99,787.446z"/>
	<path fill="#E0A476" d="M669.465,752.298c0,0,33.854,2.394,44.607,29.113l4.385-3.584
		C718.458,777.827,701.029,740.589,669.465,752.298z"/>
	<path fill="#EFE9AD" d="M495.049,175.327c0,0-66.297,39.564-76.277,130.455c0,0-30.297,96.238,33.505,142.218l-36-16.396
		c0,0-39.564-50.257-27.089-109.782C389.188,321.822,395.248,216.673,495.049,175.327z"/>
	<path fill="#EFE9AD" d="M540,168.198c0,0,74.812,30.653,107.247,167.881c0,0,1.426-65.228-28.871-111.208
		C588.079,178.891,566.059,165.703,540,168.198z"/>
	<path fill="#7E1C78" d="M516.079,236.99c0,0,16.396,40.99,51.683,23.881c0,0-33.148,13.901-15.327,54.178
		c0,0-19.248-36.713-51.327-22.455C501.109,292.594,533.901,276.554,516.079,236.99z"/>
	<path fill="#7E1C78" d="M582.02,284.752c0,0-14.319,12.406-28.546-11.975c0,0,8.487,24.061-9.82,30.315
		c0,0,20.544-8.004,27.317,8.571C570.97,311.663,563.842,296.871,582.02,284.752z"/>
	<path fill="#2D2532" d="M240.198,255.525c0,0-4.99,12.832,6.772,2.852c0,0,36.356-86.257,93.743-53.465
		c0,0,15.206,18.462,19.9,49.865c0,0,43.435-53.408,68.976-69.102c0,0-26.143-29.951-71.41-30.664c0,0-34.218-4.634-38.852-8.554
		c0,0-58.455,32.079-62.376,46.693C256.951,193.149,242.337,245.545,240.198,255.525z"/>
	<path fill="#86618A" d="M250.535,247.564c0,0,41.347-69.386,89.109-44.079c0,0-28.871-27.802-55.96-17.465
		C283.683,186.02,254.099,213.228,250.535,247.564z"/>
	<path fill="#2D2532" d="M570.614,143.96c0,0,62.733-47.406,156.119,0c0,0,43.842,33.149,37.782,124.752c0,0,0,49.545-15.683,52.396
		c0,0-23.168,12.475-40.634,3.921c0,0-15.683-31.366-17.465-46.337c0,0-7.129-30.535-4.99-31.129l31.01,44.656
		c0,0,19.604,9.928,16.04-19.443c0,0-19.966-83.384-75.564-82.837l-78.059-25.307L570.614,143.96z"/>
	<path fill="#86618A" d="M658.297,188.722l4.277-12.475c0,0,26.02-32.792,63.445-22.455c0,0,37.426,16.752,37.426,114.059
		c0,0-0.713,55.248-24.594,47.762c0,0-20.317-17.822-21.386-22.455c0,0,19.248,6.772,15.683-25.307
		C733.148,267.85,714.614,191.217,658.297,188.722z"/>
	<path fill="#7267C8" d="M594.733,140.871c0,0,4.277-12.594,11.168,0c0,0,23.228,28.107,14.466,31.162l31.437,28.626
		c0,0,17.859,12.449,10.573,14.587c0,0-7.287,7.842-10.613,9.03l-4.111,12.277l-3.718-4.524l-65.597-71.223l6.176-2.627l3.091-1.15
		C587.604,157.03,592.594,141.347,594.733,140.871z"/>
	<path fill="#B03BAF" d="M557.188,134.693c0,0,30.416,19.485,34.693,36.594l1.748,1.426c0,0,17.975-7.366,16.787,1.188
		c0,0,31.018-7.842,50.083,1.426c0,0,4.222,2.3,0,6.972c0,0-10.617,22.256-13.241,28.197c0,0-1.172,20.02-3.324,21.535
		c0,0-57.993-65.73-98.389-70.959l7.129-15.685C552.673,145.386,554.337,133.505,557.188,134.693z"/>
</g>
</svg>
