<?xml version="1.0" encoding="iso-8859-1"?>
<!-- Generator: Adobe Illustrator 25.0.1, SVG Export Plug-In . SVG Version: 6.00 Build 0)  -->
<svg version="1.1" id="Layer_1" xmlns="http://www.w3.org/2000/svg" xmlns:xlink="http://www.w3.org/1999/xlink" x="0px" y="0px"
	 width="864px" height="864px" viewBox="0 0 864 864" enable-background="new 0 0 864 864" xml:space="preserve">
<image display="none" overflow="visible" width="504" height="622" xlink:href="../../../Anime/Screenshot 2021-03-29 211409.png"  transform="matrix(1.3891 0 0 1.3891 81.955 0)">
</image>
<rect display="none" width="864" height="864"/>
<g>
	<polygon fill="#672A2A" points="233.383,456.66 248.106,334.872 428.319,348.66 475.441,368.311 527.728,389.315 520.359,412.234 
		372.021,449 254.83,492.213 	"/>
	<path fill="#39312E" d="M224.574,502.617c0,0-19.699-72.418-9.062-98.721l6.764-58.683l50.362-3.064l-26.234,68.17
		c0,0-5.23,38.59,7.616,71.211C254.02,481.53,254.447,515.255,224.574,502.617z"/>
	<path fill="#4E3F3C" d="M233.383,378.149c0,0,4.596,15.319,8.043,17.234v-5.362c0,0,16.468,16.468,22.596,16.851
		c0,0-7.277-14.553-6.511-19.915l6.511,9.191v-2.298c0,0,16.085,16.468,22.596,16.468c0,0-9.957-18-10.34-19.915
		c0,0,28.34,18.383,32.553,19.915l-3.064-4.213l6.128-0.766c0,0-16.468-18.383-19.532-35.617
		C292.362,369.723,249.468,363.213,233.383,378.149z"/>
	<path fill="#AA7369" d="M292.362,369.723c0,0,11.673,2.106,26.039,40.596l27.82-8.96l30.206-14.211c0,0,3.828-19.857,2.201-26.301
		l-48.934-4.538L292.362,369.723z"/>
	<path fill="#4D3B3B" d="M400.617,815.309l3.192,28.926c0,0-1.255,11.957,21.202,19.766h40.496l-54.375-69.553L400.617,815.309z"/>
	<path fill="#F3C5B6" d="M165.596,200.447l3.447,113.362l41.362,60.894l13.021,2.681l9.957,0.766l58.979-8.426
		c0,0,31.768-7.295,37.331-13.413l53.435-18.374c0,0,18.766-1.915,18.766-12.638l3.83-36c0,0-0.766-4.596-4.979-4.596
		c0,0-11.106,0.383-14.17,1.532l-37.149-19.915l-44.043-115.66l-17.234-9.574l-74.298,8.043l-38.681-1.532L165.596,200.447z"/>
	<path fill="#4E3F3C" d="M203.048,396.372c0.281,0.07,0.562,0.128,0.846,0.159C203.894,396.532,203.581,396.542,203.048,396.372z
		 M432.328,359.37L432,359.766C432.107,359.689,432.217,359.545,432.328,359.37z M131.52,133.819
		c-1.185,0.711-1.924,1.139-1.924,1.139C130.142,134.801,130.791,134.406,131.52,133.819z M538.617,271.681
		c0,0-24.894,9.957-32.553-23.745l-14.17-65.489c0,0,26.043,24.128,44.043,3.447c0,0-33.702,18.383-54.383-39.447
		c0,0-21.447-54.766-36.766-63.957c0,0-27.957-54-32.936-58.213L401.128,0h-59.362l-8.043,25.043l-14.936-9.957
		c0,0-7.277-2.298-11.872,2.298l-13.787,10.723l-11.489,0.383C281.638,28.489,240.277,0,233,0h-76.596
		c0,0-2.298,69.468,10.723,80.191c0,0-25.614,45.571-35.608,53.627c4.567-2.741,15.862-9.765,17.991-13.414
		c0,0-5.745,18.766-3.83,27.574c0,0-21.447,69.702-52.468,67.021c0,0,6.511,10.34,42.894-17.617c0,0,4.596,73.532-16.085,101.106
		c0,0,6.894,3.064,13.787-12.255c0,0,11.872,74.298,32.17,83.489c0,0,0.739,1.483-0.454,2.603l2.752-0.688l3.064,3.447v-6.128
		c0,0,7.277-14.553,8.043-21.83c0,0,10.288,45.917,23.665,49.245c-2.65-0.841-10.774-6.128-13.325-39.287
		c0,0,7.277,49.404,45.957,55.149c0,0-12.638-18-12.255-34.851c0,0-39.447-54-41.362-61.66c0,0-2.681-7.277-2.681-18.383
		l-0.766-19.149l8.043,2.681l-8.425-6.511c0,0-2.681-50.553-6.894-60.128c0,0,19.915-39.83,22.596-54.383
		c0,0,0.766,62.808,14.936,75.83c0,0-5.362-39.064-1.915-46.34c0,0,13.404,76.213,36,89.617c0,0-8.043-16.851-7.277-47.872
		c0,0,24.511,57.447,36,59.362c0,0-7.66-29.872-1.915-76.213c0,0,4.979,29.872,8.043,32.17l11.106-91.149
		c0,0,19.532,48.255,3.064,78.894c0,0,11.489-16.468,12.255-20.298c0,0,3.83,39.83,0,47.872l11.872-22.213l12.638,22.979
		c0,0-4.596,40.596-10.723,45.575c0,0,16.085-8.809,24.128-27.957c0,0,1.915,76.213-32.553,107.234c0,0,21.927-15.063,27.048-29.747
		c-3.765,14.377-18.813,67.853-37.005,78.769c0,0,40.596-15.702,59.362-55.149v15.702l7.277-2.298l2.298-11.106
		c0,0,5.401,0.565,11.305-28.422c-1.883,11.561-3.919,26.021-3.454,32.06h6.319l9.83-21.383v5.617c0,0,0.362-10.897,6.437-14.385
		l0.002,0.001c1.162,2.775,2.417,5.465,3.731,7.826c-2.881,4.84-8.429,13.694-11.191,14.982c0,0,9.702-3.319,16.851-7.787
		l-3.83,12.383l-0.255,4.911l6.128-3.124l7.245-8.227l0,0c2.264,3.815,4.437,6.777,6.032,7.461l11.872,3.447
		c0,0-8.043-27.957-6.894-34.468l10.34-34.085c0,0-3.903,34.618-6.714,39.051l8.246-9.944c0,0-2.635,25.264-4.596,29.489
		c0,0,9.957-0.383,18-34.851c0,0,3.83,17.059-3.83,23.362c0,0,11.489,1.915,8.426-40.596l8.043,14.553
		c0,0-4.596-28.723-2.681-33.702c0,0,4.213,40.979,12.638,42.128c0,0,0.383-65.872,3.83-74.298c0,0,8.809,22.596,0,50.17
		c0,0,12.638-16.085,13.021-51.319c0,0,14.936,20.298,22.596,21.447c0,0-16.851-20.681-19.149-40.979
		C496.872,254.83,521.383,285.468,538.617,271.681z M165.525,372.326l-4.908,1.227C163.366,373.553,164.8,373.006,165.525,372.326z"
		/>
	<path fill="#F3C5B6" d="M387.34,287l12.255-2.298c0,0,7.277,0,5.745,9.574c0,0-1.915,34.851-6.128,39.064
		c0,0-13.021,3.064-16.851,3.83C382.362,337.17,383.894,319.17,387.34,287z"/>
	<path fill="#6C5A57" d="M172.234,75.723c0,0,33.702-33.702,39.83-37.532c0,0-24-32.723-26.043-38.191l-9.702,0l1.787,5.511
		l-8.936-3.319l4.596,5.617h-16.34l9.447,10.723l-3.574,2.553l3.83,3.064l-15.83,1.277c0,0,3.319,6.638,13.021,6.638l2.809,3.83
		l-13.787,1.968c0,0-1.277,7.734,14.298,3.394l-3.319,5.106l2.809,1.021l-1.532,2.553l3.83,1.277l-2.298,2.553l-12.766,3.064
		c0,0,3.319,5.872,15.319,5.362l-0.255,4.085l2.553,1.277L172.234,75.723z"/>
	<path fill="#6C5A57" d="M382.362,83.894c0,0-5.106-20.681-26.553-33.191l-4.596-6.638h4.34c0,0-8.936-5.617-10.723-13.532h4.085
		c0,0-4.851-5.872-4.085-12.511l7.66,5.106c0,0-1.787-20.979,0-23.128h29.872C382.362,0,386.191,35.638,382.362,83.894z"/>
	<path fill="#412E2C" d="M291.468,35.128l16.596-13.277c0,0,4.596-3.83,6.638,1.532c0,0,21.447,24.255,31.149,105.447
		c9.702,81.191,1.787,109.532,1.787,109.532l-2.298-5.106l-8.426,13.787c0,0,12.255-74.298-7.149-129.702
		C329.766,117.34,313.426,35.638,291.468,35.128z"/>
	<path fill="#0C8C44" d="M304.234,184.489l1.787-5.872c0,0-10.723-20.426,7.404-37.021c0,0,9.957-6.638,17.106-9.191
		c0,0,7.915-5.362,9.702-11.234c0,0,7.149,22.213-3.574,41.106c0,0-7.198-11.489-13.939-3.574
		c-6.741,7.915,0.663,14.298,5.003,14.553c0,0-2.298,7.915-18.128,5.617l-3.574,6.638L304.234,184.489z"/>
	<path fill="#412E2C" d="M276.149,36.66L265.17,23.894c0,0-2.043-4.34-8.17-2.298c0,0-36,11.234-39.574,15.064
		c0,0,17.617-6.383,21.702-5.617c0,0-22.468,18.128-24,20.17c0,0,17.106-9.085,20.17-9.266l-5.362,9.266
		c0,0,16.851-6.638,19.149-6.638c0,0,7.404-7.44,11.489-8.443l-4.34-2.025l9.702,0.255l-7.149-3.319l7.149-1.787l-6.894-3.574
		C259.043,25.681,267.723,27.979,276.149,36.66z"/>
	<path fill="#403130" d="M279.34,566.371L269,551.043l-14.17,19.745l5.538,50.936l11.314,32.17l22.979,36l15.319,27.191
		l11.872,8.809l16.66-25.66C338.511,700.234,287.766,571.529,279.34,566.371z"/>
	<path fill="#362A29" d="M233.706,567.163c0,0-23.685,145.709-23.685,155.666s0,3.064,0,3.064l-2.596,11.24
		c0,0-26.894,58.462-29.574,104.42c0,0,0.383,16.553-6.511,22.447h109.149c0,0-6.511-64.957-1.915-80.66
		c0,0,5.745-11.728,4.213-21.757c0,0,11.298-38.753,13.883-40.285C296.67,721.298,367.306,460.901,233.706,567.163z"/>
	<path fill="#8B4041" d="M239.128,535.553l-2.681,20.298l6.053,29.872c0,0-3.032,20.681,5.607,34.851l12.261,11.872
		c0,0,0.59,29.872,30.462,66.638c0,0,22.035,36.383,27.191,47.489L385.845,864h57.41l-46.34-87.553l-77.936-64.532
		c0,0-9.766,0.574-10.915-13.979c0,0,1.149-20.106-8.043-27.096l-39.654-49.117l9.782-46.34l-3.342-16.851l-1.637-15.319
		l-13.787-14.936l-12.255-8.043l-7.66,11.872L239.128,535.553z"/>
	<path fill="#9E414A" d="M516.787,429.66c0,0-8.809,14.489-11.617,15v16.085l-6.638,11.489l2.043,18.638l-2.043,27.574
		l11.745,53.617l15.574,36.766l-6.638,32.936l21.957,53.617l10.979-10.213l24,17.106l25.787,49.532l85.277,72.766L709.426,864
		H468.915l-42.383-62.149L322.617,655.809L295.043,581l-12.255-55.66L305,453.979l44.426-25.66l27.064-21.702l62.809-1.021
		L492.915,413L516.787,429.66z"/>
	<path fill="#9E414A" d="M714.022,836.691l-39.276,12.081l-23.646-12.081l36.878-60.309L714.022,836.691z M511.775,666.911
		l22.847-7.922l-6.894-24.191L511.775,666.911z"/>
	<path fill="#DE5F5E" d="M504.915,478.617c0,0-17.106,6.638-25.021,4.34c0,0,12.828,44.426,13.946,63.319
		c0,0,5.458-3.064,7.246-9.702c0,0-1.532,9.191-5.617,15.83c0,0,12.255,7.149,10.723,25.532c0,0-1.532,19.66,3.83,22.723
		c0,0,3.574-0.255,1.532,26.809c0,0-1.787,18.128,4.085,22.723h15.064l-3.319,4.34H516.66c0,0,7.66,40.085,17.106,53.617
		c0,0,8.426,26.298,8.936,30.638c0,0,7.149-27.319,8.681-43.66c0,0,3.574,18.894-1.787,57.447c0,0,16.085-0.766,22.723,6.894
		c0,0-1.532-33.957-9.191-43.149L559.809,701L581,737v29.872c0,0,61.787,23.234,104.426,73.532c0,0,0.766-27.574-1.021-33.191
		c0,0,7.915,10.468,6.894,39.574L701.255,857l30.638-79.66l-1.277-10.723c0,0-45.702-64.851-139.404-80.426l-9.702-6.894
		c0,0-20.426-1.277-26.043-7.404c0,0-24.255-96-38.043-111.83l-3.574-8.17l-1.277-9.447c0,0,0.766-12.255-3.319-17.106
		C509.255,525.34,510.021,490.872,504.915,478.617z"/>
	<path fill="#DE5F5E" d="M504.915,460.745c0,0-15.319,9.702-9.191-4.085c0,0-14.809,5.362-12.766,17.872
		c0,0,9.702,4.021,16.085-1.436C499.043,473.096,504.149,467.128,504.915,460.745z"/>
	<path fill="#E0B66F" d="M260.191,552.787v5.745l4.213,7.839v5.948L236.447,629c0,0,0,9.574,2.298,9.574l22.213,3.383
		c0,0,5.362,3.894,9.574-16.404l12.255-46.34c0,0,4.596-3.064-2.298-6.894l-9.191-3.295l-0.383-7.811l-4.108-8.426H260.191z"/>
	<path fill="#E0B66F" d="M240.277,502.617c0,0-9.191-9.574-15.702,0c0,0-1.915,11.489,0,13.787l1.532,5.745l-10.723-3.948
		l-3.064,24.629l-19.532-11.106l-5.362,5.745v25.277l-13.404-6.894l-5.745,6.894c0,0-3.447,38.298,0,40.979
		c0,0,46.723-9.191,50.553-13.404l-0.383-8.122l-9.191-6.814l26.809-9.012c0,0,5.362-5.541-0.383-7.839l-12.638-9.574l23.362-11.489
		c0,0,3.83-4.213,0-4.979l-8.809-3.83l1.915-3.83c0,0,5.362,3.447,6.511,1.915C246.021,526.745,246.404,508.362,240.277,502.617z"/>
	<path fill="#4D3B3B" d="M351.723,588.787c0,0,13.021,3.83,19.915,2.681c0,0,15.319,36.766,103.787,3.064
		c0,0,0.383,33.319-2.681,52.085l-15.702,17.234l-23.362,49.021L432,732.021c0,0-4.447,11.872-8.66,12.638l-9.758,39.064h11.29
		c0,0,41.775,60.213,50.569,80.277h-17.249c0,0-41.362-59.979-47.106-66.489l-14.936,6.511l-9.191,24.894L388.872,864h-99.574
		l8.426-35.085c0,0-8.426-25.66,0.383-42.894l14.936-35.234l6.128-15.319c0,0,0.766-43.66,4.979-52.468
		c0,0-24.511-53.617-27.957-73.915c0,0-12.255-32.17-13.404-33.702c0,0-18.766-26.086-26.043-35.639
		c0,0-25.277-29.085-11.106-50.148c0,0,34.085-33.702,43.085-35.617l9.766,121.404c0,0,15.702,32.17,19.532,45.574
		c0,0,9.957,33.936,12.638,38.032c0,0,7.66-13.904,9.574-15.436l7.66-34.468c0,0-7.66-6.128-7.66-29.489
		c0,0-3.064-16.851-6.894-21.064l5.745-10.34c0,0,5.362,16.851,5.362,31.021c0,0,2.298,12.255,5.745,16.468L351.723,588.787z"/>
	<path fill="#D59A63" d="M298.489,575.383l-21.064-14.17l-18.383-39.83c0,0-3.064-11.106,2.681-19.915l6.128-14.936l10.507-13.021
		c0,0,31.623-52.958,74.265-75.163c0,0,18.824-20.198,89.867-10.624c0,0,76.596,13.213,83.489,4.787c0,0,4.021-4.596-47.489-20.681
		l-22.59-9.572l1.065-2.888l73.801,28.736c0,0,14.936,1.34-13.979,41.553c0,0-19.723,1.915-67.404-3.83
		c-47.681-5.745-67.787-3.447-67.787-3.447s-40.979,22.787-72,56.106s-14.362,57.064-14.362,57.064l6.319,15.319
		C301.553,550.872,306.915,562.745,298.489,575.383z"/>
	<path fill="#BF433D" d="M534.623,396.149c0,0-6.346,7.277-21.282,8.043c0,0-60.894,1.723-79.468-6.128
		c0,0-34.319-8.054-63.383,0.383c0,0-33.702,19.532-52.085,37.915l-26.043,24.128c0,0-20.489,34.085-23.936,48.255
		c0,0-4.787,7.085,2.106,19.34c0,0,5.553,14.745,11.489,25.277l10.34,5.17l1.34-15.894c0,0-14.553-30.064,3.064-53.426
		c0,0,13.021-21.638,24.319-27.766c0,0,25.085-22.979,28.34-25.085c0,0,22.213-21.447,45.766-20.872c0,0,52.66,1.915,63.383,4.979
		c0,0,44.617,2.489,64.532,0C523.106,420.468,533.118,403.809,534.623,396.149z"/>
	<path fill="#90393F" d="M288.723,453.979l-12.83,11.106c0,0-1.34,2.681,2.489,5.936l20.681,19.915c0,0,1.34,2.872,4.979,0
		l4.787-6.128c0,0,3.255-2.489,0-5.745l-17.617-22.213C291.213,456.851,291.213,454.17,288.723,453.979z"/>
	<path fill="#4E3F3C" d="M682.617,268.234c0,0,55.532,3.447,62.426,5.362c0,0-55.142,22.991-73.149,43.66
		C671.894,317.255,638.191,294.277,682.617,268.234z"/>
	<path fill="#956D61" d="M527.728,426.016c0,0,5.527,37.537,64.506,78.899l35.787,34.829
		C628.021,539.744,572.754,445.543,527.728,426.016z"/>
	<path fill="#956D61" d="M740.83,741.957c0,0,13.021-10.702,17.617-19.128c0,0,11.106-13.404,12.638-14.553
		s-1.532,1.149-1.532,1.149l-10.809,4.236c0,0,20.09-24.533,23.301-26.448v-3.064l-12.875,11.106c0,0,16.468-18.383,6.511-78.894
		c0,0-8.043-34.851-6.894-57.83c0,0-14.936,29.872-12.638,44.809c0,0-29.872-63.957-39.447-75.83c0,0-14.936-21.296-11.872-61.201
		c0,0-16.468,26.879-12.638,51.891c0,0-64.34-100.222-37.532-153.839c0,0-22.596,18-23.745,28.34c0,0,10.723-50.17,40.979-75.447
		l20.298-27.574L665,301.553l47.872-28.723l-30.255-4.596c0,0,14.17-13.404,30.638-11.872c0,0-47.872-8.426-110.681,27.191
		c0,0,18.383-23.362,19.532-26.426l-30.255,26.426l-19.532,22.596l-9.191,75.83l31.021,74.681l60.128,78.894l22.979,32.17
		l65.106,104.17L737,719.383L740.83,741.957z"/>
	<path fill="#4E3F3C" d="M718.846,752.848c0,0,20.069-7.465,21.983-10.891l2.298-11.468c0,0,17.234-16.468,19.149-22.596
		l-11.489,6.511c0,0,14.936-2.681,6.128-76.979l-4.596,8.426c0,0-3.064-34.085-8.809-45.192c0,0-3.6,35.617-2.949,44.426
		c0,0-20.03-79.66-27.689-88.851v16.851c0,0-11.489-26.043-14.553-31.021c0,0-4.596-13.404-4.596-17.617
		c0,0-6.894,22.979-3.83,40.213c0,0-30.255-47.872-32.936-68.17c0,0-0.766,12.255,0,16.851c0,0-9.957-13.404-20.681-61.66
		c0,0-3.447,24.511-2.298,31.787c0,0-19.915-50.553-16.468-95.362c0,0-12.128,19.532-11.617,26.043l-0.016-29.872
		c0,0-16.325,34.468-14.027,41.745c0,0-36-61.66-5.362-124.085c0,0-12.255,8.426-14.553,12.638c0,0,19.532-23.362,24.128-24.894
		l-8.809,2.298l4.596-8.426c0,0-49.317,34.015-59.362,72.383c0,0,1.915-25.66,4.213-30.638c0,0-15.225,25.303-16.229,58.801
		c0,0-4.452,53.795,42.272,85.965c0,0,35.745,35.617,43.149,39.447l25.787,35.234l47.106,74.298l27.191,96.894l1.63,26.021
		C707.609,741.957,713.521,747.035,718.846,752.848z"/>
	<path fill="#473938" d="M671.956,715.705c0,0,26.363-8.578,12.193-60.28c0,0-30.638-85.787-61.277-113.362l8.809,2.681
		l26.809,42.511c0,0,36.766,27.957,47.872,60.128l-2.298-15.702c0,0,15.319,35.617,13.021,52.851l8.809-29.106
		c0,0,4.979,47.106-11.106,67.404c0,0,11.03-5.745,11.834-9.191c0,0-5.51,19.489-19.012,28.319L671.956,715.705z"/>
	<path fill="#9A7369" d="M749.255,809.383c0,0,12.255,45.277,13.021,54.617h-19.915C742.362,864,737.383,827.383,749.255,809.383z"
		/>
	<path fill="#714A42" d="M687.979,864l3.447-12.872c0,0,34.723-55.66,39.191-84.511l15.574,27.447v9.957l3.064,5.362
		c0,0-4.213,48.723-6.894,54.617H687.979z"/>
	<path fill="#512525" d="M503.766,851.894c0,0,22.979-9.702,57.83,5.106c0,0,32.681-2.723,44.298,7h-42.766
		c0,0-31.787-17.979-59.362-7V851.894z"/>
	<path fill="#4D3B3B" d="M360.149,555.851l-1.766,6.894l18.234,9.957c0,0,5.362-4.213,16.851,2.681c0,0,20.383,13.021,38.532,3.064
		c0,0,2.064-3.447,20.83-6.511c0,0,19.915-6.894,21.064-8.808v-7.277c0,0-25.957,13.404-41.894,14.553c0,0-17.91,6.048-31.285-1.38
		c0,0-6.587-6.403-18.736-3.216C381.979,565.809,363.596,560.064,360.149,555.851z"/>
	<path fill="#4D3B3B" d="M360.915,548.957c0,0,3.064-54.766,15.702-64.34c0,0,37.915-34.851,69.319,4.213
		c0,0,16.468,15.702,26.426,60.128c0,0-45.574,26.426-68.553,14.17c0,0-9.574-5.745-18-4.596
		C385.809,558.532,363.213,555.468,360.915,548.957z"/>
	<path fill="#DE9D68" d="M346.745,603.723c0,0,0.766,40.213,79.66,60.511c0,0,25.277,6.128,32.17,0c0,0,6.128-1.723-7.851,21.83
		c0,0,11.872,16.468,13.021,19.532c0,0,6.319,5.362-4.979,14.362l-8.809,11.681c0,0-3.638,3.064-5.936-2.106
		c0,0-12.83-27-42.511-40.404l-40.021-20.106c0,0-21.447-16.468-23.745-32.745C337.745,636.277,344.255,607.553,346.745,603.723z"/>
	<path fill="#BD473A" d="M342.29,617.639c0,0,6.944,26.489,36.05,37.595l30.447,13.404c0,0,46.532,21.447,51.128,50.362
		l-7.851,9.766c0,0-25.66-36.957-47.681-45.766l-7.085-4.213c0,0-18.574,0.957-25.085-9.383c0,0-32.17-22.787-33.702-34.468
		C338.511,634.936,339.751,620.639,342.29,617.639z"/>
	<path fill="#684E4A" d="M408.404,655.043l-20.298-9.766c-15.522-7.468-15.894,0-15.894,0l-7.851,23.294l-3.638-0.762
		c-1.34,10.468,5.936,12.702,5.936,12.702L395,691.617c5.936,1.723,8.809-6.128,8.809-6.128l6.894-24.319
		C412.426,656.191,408.404,655.043,408.404,655.043z M396.34,686.064c0,0-24.894-8.809-25.468-10.915c0,0,0.766-14.553,8.617-19.532
		l22.404,10.532L396.34,686.064z"/>
	<path fill="#DE9D68" d="M318.979,711.915c0,0,1.532,34.085,76.596,36.574c0,0,19.532,2.872,27.383-3.255
		c0,0,1.723,1.149-0.957,5.362l-7.66,20.106l9.162,13.213c0,0,4.242,8.808-1.503,12.638l-18.574,21.064c0,0-2.298,4.787-3.255-5.745
		c0,0-6.755-16.085-28.175-28.532c0,0-35.208-6.511-38.654-13.021c0,0-18.766-10.915-19.723-18.957
		C313.617,751.362,315.149,718.809,318.979,711.915z"/>
	<path fill="#A7372F" d="M315.915,722.83c0,0,14.99,27.192,44.644,36.192c0,0,30.229-2.681,40.186,12.83
		c0,0,18.191,18,20.106,25.277l-12.83,15.894c0,0-14.745-28.915-35.043-35.809l-6.894-1.532c0,0-17.234,4.404-23.745-7.755
		L333.723,764c0,0-16.277-7.66-19.149-16.085L315.915,722.83z"/>
	<path fill="#A7372F" d="M399.213,758.447c16.851,0.383,23.17-8.043,23.17-8.043l-8.043,20.298L399.213,758.447z"/>
	<path fill="#684E4A" d="M375.851,745.043c-5.936-0.766-24.319-7.277-24.319-7.277c-4.787-2.106-6.702,1.723-6.702,1.723
		c-4.979,5.745-9.191,32.17-9.191,32.17c-1.723,9,27.766,14.17,27.766,14.17c8.809,1.34,8.809-4.404,8.809-4.404
		s6.128-24.319,7.277-29.872C380.638,746,375.851,745.043,375.851,745.043z M365.128,780.66c0,0-15.128,0.383-23.745-5.936
		c0,0,1.532-18.766,7.468-25.468c0,0,11.872,6.894,22.021,4.979C370.872,754.234,368.574,772.234,365.128,780.66z"/>
</g>
<g>
</g>
<g>
</g>
<g>
</g>
<g>
</g>
<g>
</g>
<g>
</g>
</svg>
