<svg id="Layer_2" data-name="Layer 2" xmlns="http://www.w3.org/2000/svg" viewBox="0 0 810.86 846.88"><defs><style>.cls-1,.cls-2{stroke:#fff;}.cls-1,.cls-11,.cls-2,.cls-3,.cls-5,.cls-7,.cls-9{stroke-miterlimit:10;}.cls-10,.cls-2,.cls-4,.cls-8,.cls-9{stroke-width:2px;}.cls-14,.cls-3,.cls-4,.cls-6,.cls-7,.cls-8,.cls-9{fill:none;}.cls-10,.cls-11,.cls-12,.cls-13,.cls-14,.cls-3,.cls-4,.cls-5,.cls-6,.cls-7,.cls-8,.cls-9{stroke:#000;}.cls-14,.cls-3{stroke-width:3px;}.cls-10,.cls-12,.cls-13,.cls-14,.cls-4,.cls-6{stroke-linecap:round;}.cls-10,.cls-12,.cls-13,.cls-14,.cls-4,.cls-6,.cls-8{stroke-linejoin:round;}.cls-11,.cls-12{fill:#fff;}</style></defs><path class="cls-1" d="M421.32,195c-21.71-8-31.78-.57-31.78-.57-3.07,3.07-13.22,6.3-13.22,6.3s32,2,33.05,5.85L426,202l4.3.92-2.18-4" transform="translate(-13.5 -7.24)"/><line class="cls-2" x1="501.22" y1="826.25" x2="511.94" y2="820.25"/><path class="cls-3" d="M818.34,86.76H731.15V78.54h39.11V27.62H740.18V19.77h69.24v7.85H778.87V78.54h39.47Z" transform="translate(-13.5 -7.24)"/><path class="cls-3" d="M802.07,120.41a92.05,92.05,0,0,1-12.31,39.76q-10.43,17.57-38.5,34.2l-6.88-6.5q19.68-10.14,32-24t15.77-35.42H758.76q-6.45,13.11-19.58,27.15l-7.5-5.1A105.31,105.31,0,0,0,760,102.41l8,2.81a76.24,76.24,0,0,1-5.46,15.19Z" transform="translate(-13.5 -7.24)"/><path class="cls-3" d="M815.09,275.09l-6.35,6q-18.33-18.74-34.07-32.31a193.81,193.81,0,0,1-38.37,32.1l-6-6.71q43-27,56.9-60.08H739.5V206H797v7.54A155.21,155.21,0,0,1,780,242.38Q800.87,260.27,815.09,275.09Z" transform="translate(-13.5 -7.24)"/><path class="cls-3" d="M799.18,310.4q-2.46,34.49-15.51,50.93t-38,23l-4.51-7.7q21.57-4.85,33.62-18.44t14.67-39.82h-56.8v-8Zm23.68-5.67a10.07,10.07,0,0,1-3.49,7.91,11.58,11.58,0,0,1-7.85,3.07,11,11,0,0,1-8-3.33,11.3,11.3,0,1,1,16-16A11.48,11.48,0,0,1,822.86,304.73Zm-11.29,6.51a6.41,6.41,0,0,0,4.86-2,6.92,6.92,0,0,0,1.91-4.89,6.63,6.63,0,0,0-2-4.89,6.76,6.76,0,0,0-5-2,6.51,6.51,0,0,0-4.83,2,6.66,6.66,0,0,0-1.94,4.84,7.08,7.08,0,0,0,1.89,4.83A6.48,6.48,0,0,0,811.57,311.24Z" transform="translate(-13.5 -7.24)"/><path class="cls-3" d="M805.85,467.17h-8.61v-6.61h-46v6.61h-8.61V400.38h63.2Zm-8.61-14.67v-44h-46v44Z" transform="translate(-13.5 -7.24)"/><path class="cls-3" d="M770.05,485.89h8.19v86h-8.19Z" transform="translate(-13.5 -7.24)"/><path class="cls-3" d="M759.08,620.86,754,628a192.12,192.12,0,0,0-21.42-15l4.78-6.19A167.82,167.82,0,0,1,759.08,620.86Zm55.06-8.94q-12.71,20.28-28.71,33.18T744.7,665.59l-4.31-7.85q23.79-7.54,38.58-18.88t28.51-32.35Zm-44.3-15-5.35,6.82A223,223,0,0,0,743,588.4l4.73-6A187,187,0,0,1,769.84,596.88Z" transform="translate(-13.5 -7.24)"/><path class="cls-3" d="M809.31,748.19v-5H769.89v-8.42h39.42V719.94H772v-8.22h37.27V698.2H769.89v-8.06h48v58.05Z" transform="translate(-13.5 -7.24)"/><path class="cls-3" d="M814.46,796.82q-10.66,22.93-26.72,36.12t-48.87,19.48l-3.73-8q29.24-5,45.3-16.52T807,793Zm-48.19-3.44-5.46,7a186.55,186.55,0,0,0-24.41-17.78l4.62-6.51A226.67,226.67,0,0,1,766.27,793.38Z" transform="translate(-13.5 -7.24)"/><path class="cls-3" d="M138.47,104.06,131,114.77q-16.18-11.94-34.49-22.89-23.05,35.55-62.13,57.71l-9.07-9.81q38.5-22.73,59.42-54.61Q64.25,73,44.22,63.6l6.87-11q19.53,9,40.3,20.76,11.19-22.89,18.8-58.12l13.16,3.19q-8.43,37.28-20.36,62A397.45,397.45,0,0,1,138.47,104.06Z" transform="translate(-13.5 -7.24)"/><path class="cls-3" d="M302.3,41.44q-2.94,34.91-19.17,62.49t-59.95,53.75l-10.71-10.22q30.65-15.93,49.9-37.76T286.93,54H234.86q-10.05,20.6-30.48,42.67l-11.69-8q31.88-31.39,44.05-75.53l12.51,4.41q-1.87,9.16-8.5,23.87ZM316.61,40l-8.75,7.36A175.8,175.8,0,0,0,288.57,24l8.25-6.46A157.67,157.67,0,0,1,316.61,40ZM333,31.06l-8.82,7.6a204.12,204.12,0,0,0-18.48-22.15l7.77-7.19A235.89,235.89,0,0,1,333,31.06Z" transform="translate(-13.5 -7.24)"/><path class="cls-3" d="M481.66,131.52,476.43,144q-37.18-14.38-88-25.67l4.33-12A607.48,607.48,0,0,1,481.66,131.52Zm-7-93.92-3.92,13.57a570.19,570.19,0,0,0-77-17.25l3.68-11.85A604.67,604.67,0,0,1,474.63,37.6Zm.66,45.86-5.07,12.42a581.37,581.37,0,0,0-76.51-20.11L397.8,63.6A565.54,565.54,0,0,1,475.29,83.46Z" transform="translate(-13.5 -7.24)"/><path class="cls-3" d="M672.14,56.24q-16.59,36-41.6,56.77t-76.11,30.61L548.63,131q45.52-7.92,70.54-25.95t41.28-54.89Zm-75-5.4-8.5,11a291.27,291.27,0,0,0-38-28l7.2-10.21A350.46,350.46,0,0,1,597.1,50.84Z" transform="translate(-13.5 -7.24)"/><path d="M62.72,171.4l38.8,80.83a2,2,0,0,0,1.3,1.07,2.07,2.07,0,0,0,.5.06,2,2,0,0,0,1.15-.36c.21-.14,20.81-14.44,44.18-14.44a49.25,49.25,0,0,1,35.79,14.8c12.63,12.5,21.91,32.93,27.58,60.7a2,2,0,0,0,1.55,1.56,1.9,1.9,0,0,0,.41,0,2,2,0,0,0,1.64-.85c.27-.4,26.63-38.46,39.63-90,7.59,24,32.34,104.38,33.37,136.87a.76.76,0,0,0,0,.15l6.56,61.89a.88.88,0,0,0,0,.16,104.41,104.41,0,0,0,10.1,27.45c10,18.27,23.92,27.92,40.34,27.92,9.89,0,20.81-3.48,32.45-10.33l5.17-.28a2,2,0,0,0,1.64-1c7.63-13.67,17.6-29.08,20.41-30.16a2,2,0,0,0,1.28-1.8l1.25-41,8.76-.77a2,2,0,0,0,1.67-2.77c-1.87-4.42-3.26-9.29-3-10.41a2,2,0,0,0-.77-2.11,2,2,0,0,0-2.25-.06c-.19.12-19.5,12.41-32.85,12.41-.44,0-.87,0-1.28-.05H378a2.22,2.22,0,0,0-.37,0,55.65,55.65,0,0,0-8.51,2.45,2,2,0,0,0-1.5-3.33,1.83,1.83,0,0,0-.4.05c-1.14.23-28.09,5.91-35.88,21a18.37,18.37,0,0,0-1.76,12.08c-2.81-2.06-5.45-4.62-5.87-6.76a2,2,0,0,0-1.84-1.62h-.13a2,2,0,0,0-1.89,1.37A150.69,150.69,0,0,0,315.18,433a18.3,18.3,0,0,1-5-9c-1.32-6.18.67-13.16,5.92-20.77l.08-.13c.13-.22,13-21.74,37.27-22.9.77.06,4.48.36,9.65.36,11.46,0,27-1.42,35.79-8.16a2,2,0,0,0-1.21-3.58l-.36,0c-.07,0-3.48.62-7.63,1.28a12.52,12.52,0,0,0,4.4-6.11c2.25-4.45,5.22-9.65,6.17-10.48a2.11,2.11,0,0,0,1-2.24c-.33-1.6-.85-2.06-11.16-3.22-3.88-.43-7.79-.79-9-.9-1.21-.56-2.49-1.18-3.69-1.77,1.76.05,3.2.12,3.22.12h.1a2,2,0,0,0,.89-3.8c-.15-.07-14.78-7.33-29.43-15.9-22.27-13-28.08-19.28-29.48-22,4.49-2.64,25.27-12,93.69-12.4a2,2,0,0,0,1.38-.57l11.05-10.75,2.88-.38a2,2,0,0,0,1.38-.84c14.66-21,31.71-44.25,34.53-46a2,2,0,0,0,1.18-1.82v-6.61a2,2,0,0,0-1-1.75c-12.71-7.12-33.32-18.89-35.91-20.95,9.89.17,45.07.78,57.13.78,2.92,0,3.72,0,4.07-.06l.28,0a105.87,105.87,0,0,1,19.38-2.08c7.54,0,16.87,1.26,18.53,7.26,4,14.37,17.33,30.65,18.47,32,.71,1,10.19,15.23,8.37,29.74a1.09,1.09,0,0,0,0,.18L556.75,309a2,2,0,0,0,.57,1.46l4.51,4.65v8.18a2,2,0,0,0,1,1.73l3.07,1.77a2.07,2.07,0,0,0,1,.26l.33,0,1.57-.26,1.57,2.1a2.24,2.24,0,0,0,.47.45c.18.12,17.67,12.1,35.16,25,32.3,23.79,35.55,29.22,35.78,30.31a1.6,1.6,0,0,0,.62,1.1.24.24,0,0,1,.05.24c-.14.42-2,4.11-23,7.21a2,2,0,0,0-1.7,1.74c-2.53,21-5.89,44.67-7.16,47.32a1.94,1.94,0,0,0-.38,1.19l.15,25.35a2,2,0,0,0,.12.68c0,.1,3.76,10.28,8.33,20.73,8,18.23,11.95,22.53,14.26,23.83,12.48,14.8,32.34,39.72,33.27,44.58a2.14,2.14,0,0,0,.29.72c.15.22,14.57,22.61,9.08,54.66-2.23,13-7.62,23.55-15.59,30.48a31.05,31.05,0,0,1-11.5,6.64,1.43,1.43,0,0,0-.27.09c-.32.12-32.24,12.69-76,16.46a2,2,0,0,0-1.77,2.44c0,.2,4.45,20.46-5.82,40a1.89,1.89,0,0,0-.11.25l-9.84,27.2a2,2,0,0,0,.23,1.81,2,2,0,0,0,1.6.87c.08,0,8,.28,12.72,6.15,3.4,4.22,4.37,10.35,2.88,18.27a64.82,64.82,0,0,1-1.95,8.09c-1.81,5.73-3.44,7-3.91,7a2,2,0,0,0-1.76,1c-.2.38-5,9.39-3.48,25.79-.39,2.36-4.23,23.07-18.36,23.07-3.92,0-8.39-1.54-13.31-4.58a2,2,0,0,0-2,0L525,826.36a2,2,0,0,0-1,1.36,2,2,0,0,0,.38,1.62l2.42,3.1a11.3,11.3,0,0,1-4.19.75,17.64,17.64,0,0,1-6.23-1.26,2,2,0,0,0-2,.34c-.11.1-11.34,9.58-22.22,9.58a16.4,16.4,0,0,1-3.83-.44c-1.63-.67-19.06-8.16-18.76-18.84,1.91-15.76,5.27-41.42,6.29-44.4a2,2,0,0,0-2.88-2.69,2.4,2.4,0,0,0-.24.22c-.17.16-2.47,2.28-8.24,2.28a29.43,29.43,0,0,1-5.47-.56,2.22,2.22,0,0,0-.37,0,1.23,1.23,0,0,0-.27,0l-10.12,1.39-.37-8.11a2,2,0,0,0-1.06-1.68,2,2,0,0,0-.93-.23,2,2,0,0,0-1.05.3c-4.48,2.75-9.78,5.85-11.82,6.83a45.59,45.59,0,0,1-9.68-10.84c-5.94-9.43-6.84-19.3-2.66-29.33a2,2,0,0,0,0-1.57c-2.25-5.12-4.4-11.64-4-13.18a2,2,0,0,0-1.95-2.46h-.21s-.54.05-1.41.05c-2.47,0-8.59-.48-12-5-3.11-4.08-3.46-10.57-1-19.31a2,2,0,0,0-.64-2.06,2,2,0,0,0-1.29-.48,2.1,2.1,0,0,0-.85.19c-.07,0-6.82,3.2-13.54,6.49-14.31,7-14.53,7.68-14.87,8.68a2,2,0,0,0,.16,1.61L447.59,848h-8.32L362.08,713.08a2,2,0,0,0-1.3-1,2.2,2.2,0,0,0-.44,0,2.06,2.06,0,0,0-1.15.36c-2.52,1.77-61.36,43.14-68.41,55.93-1.51,1.55-11.37,11.63-22,21.59-17.14,16-23.86,20.07-26.39,21-1-7.76-4.46-36.47-3.44-44.41a2.26,2.26,0,0,0,0-.45c-.19-2-4.71-48.28-9.88-58.78A135.76,135.76,0,0,1,223.26,692c-3.09-9.2-6.28-18.71-10.55-24.43a2,2,0,0,0-2.08-.75c-1.92.47-47.2,11.71-61.61,20.85l-.14.1c-.12.09-12.42,9.12-42.27,9.12-5,0-10.23-.25-15.62-.75-2.32-.69-27.5-8.4-33.95-20.63a2.31,2.31,0,0,0-.25-.36c-.16-.19-15.93-19.12-11.08-59.33.75-2.64,11.89-41.39,27.67-59.63,16.89-19.53,29.42-77,30-79.42a2,2,0,0,0,0-.43V440.88c1.34-3.37,12.31-30.53,22.73-40.26l.07-.07,39.35-40.73a2,2,0,0,0,.53-1.05c0-.06,1.11-6,7.28-12.14a2,2,0,0,0,.31-.4l6-10.14a2,2,0,0,0,.23-1.45c0-.09-2-9.17,3-13.24a2,2,0,0,0,.72-1.3c.13-1.09,3-26.8-11.81-43.53-8.05-9.08-19.74-13.69-34.75-13.69A97,97,0,0,0,117.72,265l-.15,0c-1,.28-24.08,7.31-41.15,42.11-1.53-.82-6-4.07-16.85-17l0-.05-42-46.62V171.4H62.72m301.87,7.94c11.72,3.63,22.62,6.79,26.62,6.79a5.26,5.26,0,0,0,1.19-.12c7.25.38,15.87,2.09,16.9,4a1.93,1.93,0,0,0,.76.79L425.89,200a2.28,2.28,0,0,0-.51.09c-.26.08-26,7.91-35.74,8.21H389c-10.54,0-41.3-6.36-41.61-6.43l-.14,0c-.48-.06-7.4-1-13.63-1.73,8.94-2.64,23.34-6.09,37.57-6.09,1.56,0,3.09,0,4.57.12h.11a2,2,0,0,0,1.32-3.5c-4.46-3.9-9.17-8.12-12.59-11.3m103.1,53.49h0M400.3,353.51h0M64,169.4H15.49v74.84L58,291.43c13,15.43,17.47,18,19,18a.73.73,0,0,0,.81-.66c16.91-35,40.27-41.8,40.27-41.8a94,94,0,0,1,18.9-2.11c51.19,0,44.57,55,44.57,55-6,4.92-3.69,15.21-3.69,15.21l-6,10.15c-6.76,6.76-7.84,13.21-7.84,13.21l-39.34,40.73c-11.53,10.76-23.37,41.34-23.37,41.34v35.81s-12.75,59.17-29.5,78.54S43.74,615.4,43.74,615.4c-5.07,41.65,11.53,61,11.53,61,7.22,13.68,35.35,21.67,35.35,21.67,5.8.54,11.13.77,16,.77,31.08,0,43.48-9.53,43.48-9.53,14.3-9.07,61-20.6,61-20.6,6.76,9.07,11.06,29.2,16.14,39.5s9.68,58.09,9.68,58.09c-1.23,9.53,3.69,46.88,3.69,46.88a2,2,0,0,0,.56.07c8.83,0,51.23-43.72,51.23-43.72,6.15-12.14,67.93-55.48,67.93-55.48L438.11,850H451L370.79,707.77c.46-1.38,27.36-14,27.36-14-6.86,24.85,9.6,26.81,15,26.81,1,0,1.63-.06,1.63-.06C414,723.75,418.9,735,418.9,735c-10.76,25.82,13.83,43.19,13.83,43.19,1.23,0,13.22-7.38,13.22-7.38l.46,10.3,12.29-1.69a31.32,31.32,0,0,0,5.84.59c6.56,0,9.33-2.55,9.65-2.86l0,0,0,0c-1.28,1.63-6.57,45.3-6.57,45.3-.47,12.76,20.13,20.9,20.13,20.9a18.17,18.17,0,0,0,4.45.53c11.77,0,23.52-10.06,23.52-10.06a19.42,19.42,0,0,0,6.95,1.4,11.39,11.39,0,0,0,7.19-2.16L526,828.11l2.46-1.39c5.62,3.48,10.36,4.88,14.36,4.88,16.85,0,20.37-25,20.37-25-1.54-16.14,3.23-24.9,3.23-24.9,5.07,0,7.84-16.75,7.84-16.75,4.91-26.13-17.52-26.74-17.52-26.74l9.83-27.2c10.76-20.44,6-41.35,6-41.35,44.57-3.84,76.53-16.59,76.53-16.59s22.9-5.54,28.59-38.73-9.38-56.1-9.38-56.1c-1.38-7.22-34-45.8-34-45.8-7.22-3.23-22-43.65-22-43.65l-.15-25.36c2-2.3,7.53-48.25,7.53-48.25,31.2-4.61,24-10.92,24-10.92C642.05,375.65,572,327.7,572,327.7l-2.3-3.08-2.77.46-3.07-1.76v-9l-5.08-5.23,1.39-39.5c2-16-8.76-31.2-8.76-31.2s-14.14-16.9-18.14-31.35c-1.92-6.93-11.25-8.73-20.46-8.73A107.47,107.47,0,0,0,493,200.44c-.51,0-1.9.06-3.92.06-14.16,0-59.7-.83-59.7-.83l-18.29-10.6c-2.31-4.3-18.91-5.07-18.91-5.07a2.47,2.47,0,0,1-.94.13c-6,0-32.17-8.75-33.17-8.89h0c-1.5,0,17.86,16.91,17.86,16.91q-2.33-.12-4.68-.12c-23.6,0-47.26,9.19-47.26,9.19h.24c3.31,0,22.81,2.62,22.81,2.62s31.15,6.47,42,6.47h.71C399.84,210,426,202,426,202l4.3.92c.92,1.54,36.58,21.52,36.58,21.52V231c-3.84,1.53-35.35,46.72-35.35,46.72l-3.54.46-11.52,11.22c-81.92.46-96.06,13.6-96.06,13.6,1.77,11.45,60.4,40.5,60.4,40.5s-3.2-.17-6-.17c-2.19,0-4.11.1-4,.47.23.85,9.84,5.31,9.84,5.31s20.28,1.76,18.59,2.69-7,11.45-7,11.45c-2.38,8.37-16.67,10.37-16.67,10.37.23,0,.51,0,.83,0,5.35,0,21.3-2.87,21.3-2.87-8.59,6.56-24.39,7.74-34.58,7.74-5.67,0-9.61-.37-9.61-.37-25.74,1.16-39,23.9-39,23.9-16.29,23.59,2.39,34.89,2.39,34.89-.69-3.31,4.92-20.21,4.92-20.21,1.07,5.53,11.37,11,11.37,11-11.61-26.28,34.5-35.73,34.5-35.73-13,3.38-13.52,17.29-13.52,17.29,2.3-12.45,23.9-16.45,23.9-16.45.46,0,.93.05,1.41.05,14.09,0,33.93-12.73,33.93-12.73-.69,2.77,3.08,11.68,3.08,11.68l-10.53.92-1.31,42.81c-5.22,2-21.44,31-21.44,31l-5.66.31c-12.32,7.33-22.86,10.3-31.85,10.3-38.26,0-48.48-53.74-48.48-53.74l-6.55-61.89C289.39,322.68,255,217.35,255,217.35c-12.29,55.33-41,96.31-41,96.31-12.61-61.8-40.63-77.1-65.33-77.1-24.27,0-45.33,14.8-45.33,14.8L64,169.4Z" transform="translate(-13.5 -7.24)"/><path class="cls-4" d="M453.48,387.94s8.91,11.68,23.2,11.84" transform="translate(-13.5 -7.24)"/><path class="cls-5" d="M436.57,357.36s.92-11.84,1.85-12.45c0,0,17.67-1.08,24.59,9.53l-3.39-8s-13.06-6.77-25.05-4.46C434.57,342,434.57,354.13,436.57,357.36Z" transform="translate(-13.5 -7.24)"/><path class="cls-5" d="M444.87,368s-2.92-2.46.92-7.53c0,0,1.85,8,5.69,1.39,0,0,1.69,5.37-2.69,7.37,0,0,4.53,1.23,7.15-7.84,0,0,3.07-8.91-3.39-11.06,0,0-5.22-1.08-7.22,2.46,0,0,3.84-.31,3.46,4,0,0-4.07,2.92-5.61-.46C443.18,356.28,439.64,364,444.87,368Z" transform="translate(-13.5 -7.24)"/><path class="cls-4" d="M513.85,362.18s-12-7.33-21.8-7.74l-7.37,23.36s4.18,9.32,8.59,12.74h10.87" transform="translate(-13.5 -7.24)"/><path class="cls-4" d="M504.66,387.33l-6.88.61h-1.7l-8.43-10,6.66-19.77s15.26,3.79,18,6.55" transform="translate(-13.5 -7.24)"/><polygon class="cls-5" points="490.44 356.52 492.49 357.24 490.44 362.01 495.81 364.6 494.51 366.65 489.62 364.41 484.6 375.99 482.75 375.07 487.36 363.49 480.5 360.93 481.22 358.88 488.15 361.24 490.44 356.52"/><path class="cls-4" d="M468.79,386.61s-.1-2.15,1.13-2.66" transform="translate(-13.5 -7.24)"/><path class="cls-5" d="M420.9,320.14c28-4.44,76.34-7.29,106.6,17.7l6.77,13.52s4.09,5.84,6.35,6c0,0,13.73,24.33,19.47,26.59,0,0-8,2.87-19.27-4.72,0,0-1.64,8.48-4.3,11.31,0,0-2.25-3.93-1.64-6.59,0,0-2.87,5.81-4.3,6.59,0,0-13.32-12.79-20.08-10.79l3.35-10.5S498,392.09,489.18,393.86c0,0,25.25-19.13,26-41.47,0,0-13.53,11.33-17.21,13.11,0,0,16.34-15.78,15.85-33.19,0,0-10.73,23.05-16.47,25.05,0,0,11.27-23,10.86-29.36,0,0-25,38.64-32.38,41.25l2.46-5.49s-11.06,3.09-12.09,5.49c0,0,7-13,7.17-16.45,0,0-8,11.47-8.32,13.52,0,0,2.18-31.55,8.32-37.91,0,0-11.88,10.83-12.29,13.1l10.14-22.73-3.38.81S446.77,338,446,339.27l3.39-8.6S430,345.22,428.53,345.42c0,0-.21,8.93,0,10.1,0,0-10.69,22-15.17,24.66,0,0-24.38,12.17-35.34,12.68,0,0-20.86,2.66-23.9,16.45,0,0,1.82-12.71,13.52-17.29,0,0-48.33,7.81-34.5,35.73,0,0-10.76-7.69-11.37-11,0,0-5.54,12-4.92,20.21,0,0-16.24-13.06-2.39-34.89,0,0,18.3-23.76,39-23.9,0,0,30.56,4.69,44.19-7.37,0,0-18.75,2.17-22.13,2.84,0,0,13.57-.72,16.67-10.37l7-11.45a45.87,45.87,0,0,0-18.59-2.69l-9.84-5.31,10-.3s12.91,4,37.71-20.21Z" transform="translate(-13.5 -7.24)"/><path class="cls-4" d="M430.17,384.77c-4.41-2.87-10.4-13.77-10.4-13.77" transform="translate(-13.5 -7.24)"/><line class="cls-4" x1="410.31" y1="363.77" x2="415.44" y2="368.36"/><path class="cls-4" d="M416.44,289.43s85.24-9.82,147.39,33.89" transform="translate(-13.5 -7.24)"/><circle class="cls-6" cx="467.28" cy="243.82" r="17.52"/><circle class="cls-6" cx="467.6" cy="243.72" r="12.81"/><path class="cls-5" d="M467.87,261l3.38,2.76,9.53-9,9.35,8a2.27,2.27,0,0,0,2.43-2.87l-8.19-8,9.53-8.61s.3-2.77-3-2.87l-10,8.3-8.76-8.3s-2.17-1.18-2.34,2.43l8.23,8.23Z" transform="translate(-13.5 -7.24)"/><circle class="cls-6" cx="523.25" cy="259.03" r="17.52"/><circle class="cls-6" cx="523.25" cy="259.03" r="12.78"/><path class="cls-5" d="M521.1,270.82l2.14,3.81,12.16-4.93,5.8,10.85a2.26,2.26,0,0,0,3.31-1.78l-4.72-10.43,12-4.54s1.29-2.46-1.72-3.76l-12.37,4.07-5.14-10.92s-1.59-1.89-3.06,1.41l4.66,10.66Z" transform="translate(-13.5 -7.24)"/><path class="cls-6" d="M433.34,277.13h20.6L461,273l27.05.77,2.76,3.38s30.13,5.54,32.43,9.22h3.38s27.93,14.45,27.64,16v3.56l3.55,2.74" transform="translate(-13.5 -7.24)"/><path class="cls-6" d="M430.88,288.48l-1.23-8.27,17.53-.93s4-1.84,5.22.77c0,0,1.85,2.15,8.76-4.45l19.62.61s4.82-1.38,6.51.31l1.38,2.53s30.89,5.11,33.51,9.43c0,0,7.07-3.66,6.91,2.33,0,0,20.44,11.07,21.67,13.06v4.31s5.76-3.5,5.23,3.07l6.45,5.94" transform="translate(-13.5 -7.24)"/><line class="cls-6" x1="425.07" y1="281.25" x2="433.68" y2="272.05"/><line class="cls-6" x1="438.9" y1="272.82" x2="443.05" y2="281.25"/><polyline class="cls-6" points="429.37 280.65 435.83 274.51 440.13 281.25"/><polyline class="cls-6" points="457.75 283.24 469.95 271.13 476.63 285.57"/><path class="cls-6" d="M512.65,298.19l13.68-7.38s.64,13.07,1.78,13.53" transform="translate(-13.5 -7.24)"/><polyline class="cls-6" points="534.37 306.23 539.26 302.94 540.77 309.88"/><line class="cls-6" x1="542.49" y1="304.01" x2="544.78" y2="312.36"/><line class="cls-6" x1="537.26" y1="300.94" x2="531.58" y2="304.01"/><line class="cls-6" x1="518.48" y1="298.66" x2="515.59" y2="283.57"/><line class="cls-6" x1="494.98" y1="290.54" x2="508.68" y2="281.25"/><line class="cls-6" x1="475.17" y1="271.82" x2="480.4" y2="286.97"/><line class="cls-6" x1="467.28" y1="268.97" x2="453.04" y2="282.04"/><line class="cls-6" x1="412.77" y1="274.51" x2="413.7" y2="280.5"/><path class="cls-7" d="M466.23,415.91h-9.56C443.21,404.44,432,389.27,432,389.27c-3.07-3.07-3.48-33.75-3.48-33.75" transform="translate(-13.5 -7.24)"/><path class="cls-5" d="M497,411.82l6.56-20.29c-20.83,6.19-38.45,26.23-38.45,26.23-25.95,21.92-3.77,63.73-3.77,63.73l-2.45-13.32c.41,2.87,7.37,14.75,7.37,14.75,10,15.37,7,25.21,7,25.21,3.69-3.9,4.3-18.65,4.3-18.65,2.05,2,5.95,13.8,5.95,13.8,4.09-21.86-16-44.95-16-44.95,14.14,3.9,17.22,9.43,17.22,9.43.82-3.9-15.32-12.3-15.32-12.3-12.66-12.09-2.1-28.07-2.1-28.07C468.08,425.54,497,411.82,497,411.82Z" transform="translate(-13.5 -7.24)"/><path class="cls-5" d="M448.06,407.86l1.28,6.82s-2-.2-2,2.46c0,0-7.79-8-8.61-12.7,0,0,4.1,10.86,1,12.7,0,0,1.23-3.07-3.08-6.35,0,0-11.42-11.27-11.75-18.44,0,0-11,5.43-11.81,7.43l3.28-7.92s-1.85-7.25-3.08-11.68c0,0,5.33-6.34,5.33-9.18l9.64,12.23A120.74,120.74,0,0,0,448.06,407.86Z" transform="translate(-13.5 -7.24)"/><path class="cls-4" d="M397.53,326.58s19.55-5.89,24.75-5.41" transform="translate(-13.5 -7.24)"/><path class="cls-5" d="M214.39,332.72l2.25,2.25s30.94-40.37,40-72.54c0,0,21.93,74,24.18,84.63,0,0,15.78,67.83,15.58,78.89l-7-69.46s-8.2-54.1-13.94-66.4c0,0-17.21-62.7-20.08-68.44,0,0-14.55,49.88-23.56,60.7,0,0-10.46,24.14-17.83,31.31Z" transform="translate(-13.5 -7.24)"/><path class="cls-5" d="M152.86,371.65s-5.07,7.69-2.3,9.22l5.22,6s-40.11,43.49-40.42,57l-.77,39.8s-8.3,48.57-31.66,81.15c0,0-24.9,44.88-25.51,54.1,0,0-12.6,42.88,18.75,72.23,0,0-20.44-4-30.12-38,0,0-6.61-39,4-53.79,0,0,13.07-34.74,19.83-40.42,0,0,15.83-20.6,18.13-33.2,0,0,12.78-39.76,12.61-42.57l1.53-6.92.31-35.65s14.29-34.89,20.44-38C122.89,402.7,150.56,372.11,152.86,371.65Z" transform="translate(-13.5 -7.24)"/><path class="cls-5" d="M77,693s36.65-1.07,51.1-29c0,0,31.66-44.57,48.56-44.26,0,0,69.48,22,70.38,171.69,0,0,15.07-9.71,37.2-33.07,0,0,41.5-41.49,69.78-54.71l6.3,10.45S295.69,759.91,290,772c0,0-42,41-49.36,41.17l-3.69-46.88-3.69-36.11-4.92-22.29-3.69-8.6-7.37-20.6-5.84-11.06s-17.57-32.27-38.31-39.48c0,0-25.25,13.52-33.36,37,0,0-17.48,24.75-39.85,33.57C99.9,698.72,86.45,697.42,77,693Z" transform="translate(-13.5 -7.24)"/><polygon class="cls-5" points="350.68 690.24 386.54 673.23 384.9 685.32 357.29 700.53 350.68 690.24"/><path class="cls-5" d="M582.63,660.18s44.26-4.92,59.63-17c0,0,25.82-11.48,23.36-59,0,0-5.12-35.45-35-65.57,0,0-23.57-29.92-23.57-34,0,0,4.11-.41,4.72-13.32l16,35.45,7.79,9,18.69,21.21s22.74,33.76,23.76,49c0,0,3.65,36.34-11.31,52.73,0,0-9.2,14.75-36.16,19.47,0,0-42.94,10.65-55.23,10.24Z" transform="translate(-13.5 -7.24)"/><path class="cls-5" d="M402.61,454.64s6.3-45,3.3-61.86l10.53-.92s11.79,11,14.81,58c0,0,6.4,16.19-43.4,41.7,0,0-27.49,4.36-50.48-15.19,0,0,24.35,14.88,49.56,10,0,0,29.51-13.52,39.34-32,0,0-7.1-47.46-13.11-54.56,0,0,2.2,24.74-3.25,45.64Z" transform="translate(-13.5 -7.24)"/><path class="cls-5" d="M525.56,411.46s-11.43,14.29-11.71,19.36l2.95-48.56s-4.39-7-10.45,1.69l-17.68,51.64a13.37,13.37,0,0,0-1,5.07l-22.57,8-13.6,6L441,464.17s-4-8.76-4-11.68l-6.86-.15-3.79,8.3s6.5,15.52,11.42,17.83c0,0,15.76-11.69,17.79-11.61l14.33-5.42,5.18-.45s13-3.89,15.88-6.5c0,0,11.06,31.2,18,30,0,0,6.3,3.07,26-13.68,0,0,21.21-37,24.28-38.64,0,0-.41-6.7.88-9,0,0-24,26.75-25.31,37.8,0,0-15.88,15.07-20.93,16,0,0-7,4.61-18.57-33.66l15.52-53.94s-4.3,50.56-.61,56.25Z" transform="translate(-13.5 -7.24)"/><path d="M534.29,388.86l17.89,4.23c.14,4.43,2.31,12.56,4.05,18.41-1.81-1.12-4.21-2.48-7.42-4.16-3.53-1.84-7-3.54-9.15-4.56a5,5,0,0,0,.16-.89c.29-3.89-4.19-9.06-6.61-11.56l1.08-1.47m-.83-2.25-2.88,3.93s10.6,10,6.17,13.08c0,0,21.9,10.14,23.34,13.52,0,0-6.92-21.1-5.82-25.61l-20.81-4.92Z" transform="translate(-13.5 -7.24)"/><path class="cls-4" d="M518.33,423.91s11.73-23.52,18.42-20.29" transform="translate(-13.5 -7.24)"/><path class="cls-4" d="M370.34,491.13l-4.93,8.08s-24,5.23-29.81,12.3c0,0-36.27,14.14-52.87,12.91,0,0-3.79,3.69-4,5.22a44.14,44.14,0,0,0-2.25-5.63s-4.92-3.18-5.53-3.18c0,0,3.58-4.2-4.21-4.2l-6-3.17L248,515.61l-1.64,2.76-1.94.11s-5.33,5.22-8.81,5.63c0,0-3.79,4.82,2.76,5.12l-4.3,5.84s-3.48,5.23,5.74,8.41a7.75,7.75,0,0,0,5.74,7.58s7.68,9.53,14.24,11.78l2.46,2.15,11.78-.92-2.66-6.25,5.22-8.61s3.89-2.35,5.43,3.18l5.43,9.84,17.62,30.84S320.43,582,339.8,559.15l22.85-22.23s13.93-8.81,16.8-12.4c0,0,18-21.72,19.88-22.44,0,0-1.54,20.8,4.71,38.94,0,0,6,60.35,8,67.31,0,0,41.29-25.82,45.19-25.82,0,0-.87-2.35,2-3.22,0,0,22.84-13.58,35.09-14.55,0,0,4.45-1.64,5.12.1l6-1.59-7.64-11.88L506,496.29l4.45-11.61" transform="translate(-13.5 -7.24)"/><path class="cls-4" d="M543.28,456.49c50.85,31.9,63.73,28.07,63.73,28.07,5.33,0,5.38-15.78,5.38-15.78l-.15-25.36,7.53-48.25C605.48,382.61,575.25,376,575.25,376c-11.27,2.87-21,15.58-21,15.58s.49,10.86,5.82,25.61l1.23,3.9-1.23,2.1" transform="translate(-13.5 -7.24)"/><path class="cls-4" d="M561.5,384,560.09,378l-2.26,1.6-4.51-13.07-12.7-9.17s-8.94-3.74-13.08-23.41l3-7-3.64-3.66S527,319.4,532,321l1.67-3.93s.62-1.11,5.74.08l5.69,2.4s4.76-1.22,7,2.06l3.9,3.28s1.88.2,1.14,3.28l4.37.82,5.4-3.95,2.77-.46,2.3,3.08s2.26,4,2,6l-4.1,6.56,5.33,7.58s3.69,3.54,2,11.81l1.43,1.1,3.69,8.46s1.49,1.41-.89,3.24l1.35,5.44" transform="translate(-13.5 -7.24)"/><path class="cls-4" d="M398.15,693.78c.15-12.6,16.75-53.48,16.75-53.48s50.41-29.51,53.18-28.89c0,0,1.53,2.46,5.12.41l34.48-14.71s3.63-1.33,2.81-3.28l10.81-4.25a54.33,54.33,0,0,1,17.27,6.25l11.47,3.9s49,8,45.7,16a57.5,57.5,0,0,1-20.49,52.66" transform="translate(-13.5 -7.24)"/><path class="cls-4" d="M396.51,704s14.19-28,35.3-29.25c0,0,15.16-2.43,38.32,6.7,0,0,27.05,10.56,45.69-2.64,0,0,22.95-14.21,30.33-25.17l15.57-15s26.23-26,34-22.94" transform="translate(-13.5 -7.24)"/><path class="cls-4" d="M561.72,638.87s9.83,17.74,10.87,30.78" transform="translate(-13.5 -7.24)"/><path class="cls-4" d="M413.47,683.38s-.89,27.66,1.28,37.15c0,0,21.82-55.92,81.38-8.14" transform="translate(-13.5 -7.24)"/><path class="cls-4" d="M495.11,685.43s4.52,26.18-3.06,47.49c0,0,3.9,16.19-2.87,27.26l-15,16.9" transform="translate(-13.5 -7.24)"/><path class="cls-4" d="M555.71,738.2s-15.11,41-22.08,47.8c0,0-11.48,20.49-14.14,22.13,0,0-10.45,14.34-9.84,19.88" transform="translate(-13.5 -7.24)"/><path class="cls-8" d="M458.7,779.39S447,774,446,770.78c-.57-1.79-6.36-9.37-6.36-9.37-.82-3.69-5.53-8.2-5.53-8.2-3.48,0-15.16-18.24-15.16-18.24" transform="translate(-13.5 -7.24)"/><path class="cls-4" d="M412,608.33l-10.14,8s-2.26,1.85,1.64,7.38l10.82,18" transform="translate(-13.5 -7.24)"/><path class="cls-4" d="M505.53,563.25l2.61-.72s1.74-.71,2.35,2.67l11.42,24.49" transform="translate(-13.5 -7.24)"/><line class="cls-4" x1="443.72" y1="575.28" x2="454.58" y2="604.17"/><path class="cls-4" d="M499.48,564.84s10.4,25,11,29" transform="translate(-13.5 -7.24)"/><path class="cls-4" d="M465.93,582.51s16.8-10.45,27.66-12.19c0,0,8.61,21.21,8.61,23.51l-27.26,11.84-5-10.45,12.09-5-.92-2.21-11.78,4.87Z" transform="translate(-13.5 -7.24)"/><path class="cls-4" d="M469.31,592.86l-3.38,1.33a2.23,2.23,0,0,0,1.33,2.77l2.66-1.74" transform="translate(-13.5 -7.24)"/><path class="cls-9" d="M495.35,719.33s44.07-30.49,59.27,21.78" transform="translate(-13.5 -7.24)"/><path class="cls-6" d="M426.91,746.4s-2.17-33.25,37.17-34.48c0,0,12.27-1.33,21.26,5.84,0,0,9.72,3.76,9.23,6" transform="translate(-13.5 -7.24)"/><path class="cls-6" d="M438,720.53s17.52-10.76,38.73,2.45a21.46,21.46,0,0,1,15.37,9.94" transform="translate(-13.5 -7.24)"/><path class="cls-7" d="M430.84,751s44.93-13.68,48.46,20.34" transform="translate(-13.5 -7.24)"/><path class="cls-7" d="M439.59,761.41s12.27-13.68,34.21-4.23" transform="translate(-13.5 -7.24)"/><polygon class="cls-7" points="532.5 620.61 559.09 597.71 552.98 595.68 531.73 600.02 532.5 620.61"/><path class="cls-5" d="M573.13,604.47S546.77,625.24,546,627.85l-1.23-20.75,22.39-4-7.32-1.54-18.15,4.14s.93,22.33,1.54,25.25c0,0-26-.15-28.59.62,0,0-11.06,26.59-10.45,29.51,0,0-21.36-14.46-25.2-15.53,0,0-18.75,14.61-18.75,15.84,0,0-13.37-18.14-16.45-19.68,0,0-19.51,12.61-25.66,20.44l-9.81-4.65-.53,2.28,7.26,3.91L402.2,675.48l-3.59,14S418,670,426.89,669.5c0,0,19.52-2.3,39.65,4.15,0,0,19.06,8.61,38.12,2.31,0,0,11.21.46,40.88-30.59,0,0,29.86-31,42.75-36.25ZM441.8,657.67c-6.15-1.69-17.52,1.23-17.52,1.23l19.05-13.38,12.45,14.91Zm21.82,4.15,16.44-12.76,19.42,13.68C485.39,668.58,463.62,661.82,463.62,661.82Zm45.18-2.92c.31-2.62,7.84-24.9,7.84-24.9h22.9C538,638.92,508.8,658.9,508.8,658.9Z" transform="translate(-13.5 -7.24)"/><path class="cls-4" d="M282.73,524.42S293.46,528.85,289,565" transform="translate(-13.5 -7.24)"/><path class="cls-4" d="M289.12,537l-8.54-.75s-1.69-.92-1.85-6.61" transform="translate(-13.5 -7.24)"/><path class="cls-5" d="M238.36,529.23l1.95-2.35s2.61,3.38,9.68,2.76v2.46h1.69s6.3,3.08,6,8c0,0,8.6,2.46,9.06,8,0,0,7.32-.19,8.81,2.82l-4.19,6.91,2.66,6.25-11.78.92-2.46-2.15s-9.63-4.82-14.24-11.78c0,0-5.33-2.21-5.74-7.58C239.8,543.48,226.43,541.12,238.36,529.23Z" transform="translate(-13.5 -7.24)"/><path class="cls-10" d="M271,520.83s-5.74,2.41-10.2,0l-7.68,2.82-3.08,6v2.46" transform="translate(-13.5 -7.24)"/><line class="cls-4" x1="232.85" y1="511.14" x2="224.86" y2="522"/><path class="cls-4" d="M251.68,532.1s11.84-7.22,13.83-7.07l8.46,3.54s3.69,2.3,2.92,6.45l-7.23-1.7-5.32,2.78" transform="translate(-13.5 -7.24)"/><path class="cls-4" d="M276.89,535s3.84,2,1.84,5.54h-6l-3.08,5.37" transform="translate(-13.5 -7.24)"/><path class="cls-4" d="M282,552.39c3.59-13.37-3.28-11.83-3.28-11.83" transform="translate(-13.5 -7.24)"/><path class="cls-4" d="M300.81,522.32s7.28,4.38,4.36,42.66a26.52,26.52,0,0,0,8.38,21.14" transform="translate(-13.5 -7.24)"/><polygon class="cls-11" points="239.04 516.41 240.98 522.6 237.08 524.87 236.99 521.43 239.04 516.41"/><path class="cls-5" d="M266.59,525.48l9,3.75,1.88,5.79,1.88,3.15v2.31s5.59-1,3.12,12.67l6.25,11.25,1.41-8s1.49-31.29-8-31.36l-3.71,3.67L276.48,524,271,521.34l-5.51,1Z" transform="translate(-13.5 -7.24)"/><path class="cls-4" d="M557.49,409s24-30.09,59.4,4.59" transform="translate(-13.5 -7.24)"/><path class="cls-12" d="M581.53,372.49C572,369.64,560.09,378,560.09,378" transform="translate(-13.5 -7.24)"/><path class="cls-13" d="M528.67,331.33s1.91,2.92,4,2.21c0,0,1.33,11.88,6.76,9.53a4,4,0,0,0,3.07-4l-2.76-4.2,2.76-.21s1.49,6.36,5.41,6.66l1.87.11a43.22,43.22,0,0,0,5.14.92s4.8,3,5.21,4.71h1.33l1-4.4s1.23,5.43,4,2.45l3.48-4.81s10.25,12.55,7.38,19.39l1.43,1.1,3.69,8.46v2.65s-14.68-1-24.14,6.82l-5-12.19-12.7-9.17s-11.68-9.89-12.5-23.31Z" transform="translate(-13.5 -7.24)"/><path class="cls-6" d="M568,329.34s-5.53,9.83-5.53,13.32c0,0,3.95-12.34-.31-13.32" transform="translate(-13.5 -7.24)"/><path class="cls-6" d="M557.13,328.21s1.16,3.79-2.25,14.14" transform="translate(-13.5 -7.24)"/><path class="cls-6" d="M545.08,319.59s4.55,1.55,4.55,12.51c0,0,2.36,8.61.11,9.33" transform="translate(-13.5 -7.24)"/><path class="cls-6" d="M532,321s4.23,2.25,5,5c0,0,2.26,1.43,3.79,1.33,0,0,1,5.3,1.64,7.27" transform="translate(-13.5 -7.24)"/><path class="cls-6" d="M540.82,327.39s-2.66,2.77-1.12,7.48" transform="translate(-13.5 -7.24)"/><line class="cls-13" x1="523.53" y1="318.82" x2="525.72" y2="324.09"/><path class="cls-6" d="M530.53,327a55.19,55.19,0,0,1,2.1,6.56" transform="translate(-13.5 -7.24)"/><path class="cls-4" d="M435.87,476s-5.91,37.23-2.22,48c0,0,2-42.62,6.33-48.16" transform="translate(-13.5 -7.24)"/><path class="cls-11" d="M428.53,483.33s-.92-2.35,1.33-1.33l5,7.17,7.27-3.71s3.49-1,2,2.07L437,491.94l3.79,5.12s.48,3.38-2.35,1.95l-3.9-5.84L429,496.45s-3.07,1.33-1.74-1.95l5.14-3.95Z" transform="translate(-13.5 -7.24)"/><path class="cls-11" d="M441.34,516.64s1.45,2.24-1.14,1.64l-6.73-6.37-7,5.3S423,519,424,515.47l6.61-6-5-4.5s-1.17-3.38,2.11-2.48l5.27,5.22,5.21-4.49s3-2,2.23,1.65L435.78,510Z" transform="translate(-13.5 -7.24)"/><path class="cls-4" d="M432.44,452.39s4.77-21.11,16.9-26.95c0,0-4.22-10.68,0-10.76,0,0-1.78,5.47,11.25,7.62" transform="translate(-13.5 -7.24)"/><path class="cls-4" d="M449.34,425.44a9.23,9.23,0,0,0,7,3.51" transform="translate(-13.5 -7.24)"/><path class="cls-4" d="M465.58,430.58l2,.4s.23,1.4,2.15,1.16l7.91-2.16.33-1s10.66-2.05,10.51-11l6.46-.85" transform="translate(-13.5 -7.24)"/><path class="cls-4" d="M475.67,422.35s5.93.79,10.31-5.21" transform="translate(-13.5 -7.24)"/><line class="cls-4" x1="463.73" y1="415.11" x2="463.73" y2="422.86"/><line class="cls-4" x1="455.46" y1="424.9" x2="455.22" y2="418.99"/><line class="cls-4" x1="357.29" y1="700.53" x2="291.56" y2="585.83"/><line class="cls-4" x1="346.84" y1="706.83" x2="260.52" y2="556.83"/><path class="cls-4" d="M260.7,513.46l-54.2-96.78c-6.15-12.91-8.45-31.35-8.45-31.35l2.3-5.23s5.84-2.61,4.77-12.75l7.37-18.91s3.38-.2,4.15-13.47" transform="translate(-13.5 -7.24)"/><path class="cls-4" d="M247.48,516.48,189,415s-35.89-29.13-38.42-34.12" transform="translate(-13.5 -7.24)"/><path class="cls-4" d="M182.63,319.86s2.93-7.64,31.76,12.86" transform="translate(-13.5 -7.24)"/><path class="cls-4" d="M178.37,332.43a7.12,7.12,0,0,1,9.34-1.05s27,9.93,24.79,15.07" transform="translate(-13.5 -7.24)"/><path class="cls-4" d="M173,345.73s22.57,10.06,32.08,21.62" transform="translate(-13.5 -7.24)"/><path class="cls-4" d="M164.91,355.67s14.52.63,35.44,24.43" transform="translate(-13.5 -7.24)"/><path class="cls-4" d="M324.82,627.53c-4.95,0-10.53,6.52-10.53,6.52L321.05,621" transform="translate(-13.5 -7.24)"/><path class="cls-4" d="M237,498.38s4.28-13.48,7.54-13.7" transform="translate(-13.5 -7.24)"/><circle class="cls-5" cx="122.01" cy="311.23" r="35.61"/><path class="cls-4" d="M528.48,826.72C559.78,799,533.63,786,533.63,786" transform="translate(-13.5 -7.24)"/><path class="cls-4" d="M542.1,771.35s16.61,7.42,13.61,32.07-22.88,23.66-26,23.3" transform="translate(-13.5 -7.24)"/><path class="cls-4" d="M554.31,741.92s26.25-6.9,12.13,39.77" transform="translate(-13.5 -7.24)"/><path class="cls-4" d="M428.8,748.74s2.45,21.32,15.74,19.55" transform="translate(-13.5 -7.24)"/><polyline class="cls-4" points="300.79 603.86 289.08 606.46 294.94 591.71"/><path class="cls-4" d="M286.71,586.12a27.64,27.64,0,0,0,15.75,2.39l-7.87,11.3" transform="translate(-13.5 -7.24)"/><path class="cls-4" d="M284,581.38l6.2-14.37c-13.61-5.81-12.37,3.64-12.37,3.64l3.6-19.83" transform="translate(-13.5 -7.24)"/><path class="cls-4" d="M254.48,514.51l-9.9-3.05s-1.17-12.08,9.65-9.55l-15.36-.35s5.39-10.85,10.48-8.36" transform="translate(-13.5 -7.24)"/><rect class="cls-14" x="1.5" y="160.76" width="682" height="682"/></svg>